SplineFontDB: 3.0
FontName: MedievalSharp
FullName: MedievalSharp
FamilyName: MedievalSharp
Weight: Medium
Copyright: wmk69\nSIL Open Font License v.1.1
Version: 1.0
ItalicAngle: 0
UnderlinePosition: -81
UnderlineWidth: 122
Ascent: 1511
Descent: 537
LayerCount: 2
Layer: 0 1 "Warstwa t+AUIA-a"  1
Layer: 1 1 "Plan pierwszy"  0
XUID: [1021 783 23647091 8578152]
FSType: 0
OS2Version: 3
OS2_WeightWidthSlopeOnly: 0
OS2_UseTypoMetrics: 1
CreationTime: 1260698820
ModificationTime: 1298810604
PfmFamily: 17
TTFWeight: 500
TTFWidth: 5
LineGap: 0
VLineGap: 0
Panose: 2 12 6 4 2 2 2 1 2 4
OS2TypoAscent: 1771
OS2TypoAOffset: 0
OS2TypoDescent: -543
OS2TypoDOffset: 0
OS2TypoLinegap: 0
OS2WinAscent: 1771
OS2WinAOffset: 0
OS2WinDescent: 543
OS2WinDOffset: 0
HheadAscent: 1771
HheadAOffset: 0
HheadDescent: -543
HheadDOffset: 0
OS2SubXSize: 1434
OS2SubYSize: 1331
OS2SubXOff: 0
OS2SubYOff: 287
OS2SupXSize: 1434
OS2SupYSize: 1331
OS2SupXOff: 0
OS2SupYOff: 977
OS2StrikeYSize: 102
OS2StrikeYPos: 512
OS2Vendor: '    '
OS2CodePages: 20000093.00000000
OS2UnicodeRanges: 8000002f.4000204b.00000000.00000000
DEI: 91125
TtTable: prep
PUSHW_1
 511
SCANCTRL
PUSHB_1
 1
SCANTYPE
SVTCA[y-axis]
MPPEM
PUSHB_1
 8
LT
IF
PUSHB_2
 1
 1
INSTCTRL
EIF
PUSHB_2
 70
 6
CALL
IF
POP
PUSHB_1
 16
EIF
MPPEM
PUSHB_1
 20
GT
IF
POP
PUSHB_1
 128
EIF
SCVTCI
PUSHB_1
 6
CALL
NOT
IF
EIF
PUSHB_1
 20
CALL
EndTTInstrs
TtTable: fpgm
PUSHB_1
 0
FDEF
PUSHB_1
 0
SZP0
MPPEM
PUSHB_1
 42
LT
IF
PUSHB_1
 74
SROUND
EIF
PUSHB_1
 0
SWAP
MIAP[rnd]
RTG
PUSHB_1
 6
CALL
IF
RTDG
EIF
MPPEM
PUSHB_1
 42
LT
IF
RDTG
EIF
DUP
MDRP[rp0,rnd,grey]
PUSHB_1
 1
SZP0
MDAP[no-rnd]
RTG
ENDF
PUSHB_1
 1
FDEF
DUP
MDRP[rp0,min,white]
PUSHB_1
 12
CALL
ENDF
PUSHB_1
 2
FDEF
MPPEM
GT
IF
RCVT
SWAP
EIF
POP
ENDF
PUSHB_1
 3
FDEF
ROUND[Black]
RTG
DUP
PUSHB_1
 64
LT
IF
POP
PUSHB_1
 64
EIF
ENDF
PUSHB_1
 4
FDEF
PUSHB_1
 6
CALL
IF
POP
SWAP
POP
ROFF
IF
MDRP[rp0,min,rnd,black]
ELSE
MDRP[min,rnd,black]
EIF
ELSE
MPPEM
GT
IF
IF
MIRP[rp0,min,rnd,black]
ELSE
MIRP[min,rnd,black]
EIF
ELSE

StartChar: .notdef
Encoding: 65536 -1 0
Width: 748
Flags: W
HStem: 0 68<136 544> 1297 68<136 544>
VStem: 68 68<68 1297> 544 68<68 1297>
LayerCount: 2
Fore
SplineSet
68 0 m 1,0,-1
 68 1365 l 1,1,-1
 612 1365 l 1,2,-1
 612 0 l 1,3,-1
 68 0 l 1,0,-1
136 68 m 1,4,-1
 544 68 l 1,5,-1
 544 1297 l 1,6,-1
 136 1297 l 1,7,-1
 136 68 l 1,4,-1
EndSplineSet
Validated: 1
EndChar

StartChar: exclam
Encoding: 33 33 4
Width: 600
GlyphClass: 2
Flags: W
HStem: 1491 20G<406 419>
VStem: 180 239<34.4939 236.672> 223 164<393.938 1394.93>
LayerCount: 2
Fore
SplineSet
419 167 m 0,0,1
 419 112 419 112 429 32 c 9,2,3
 357 24 357 24 291 0 c 0,4,5
 204 -32 204 -32 161 -64 c 17,6,7
 180 20 180 20 180 108 c 0,8,9
 180 162 180 162 173 216 c 0,10,-1
 167 237 l 9,11,12
 298 251 298 251 428 326 c 0,13,-1
 435 330 l 9,14,15
 419 272 419 272 419 167 c 0,0,1
174 293 m 17,16,17
 223 602 223 602 223 839 c 0,18,19
 223 868 223 868 222 891 c 0,20,21
 204 1309 204 1309 179 1401 c 0,22,-1
 174 1422 l 9,23,24
 296 1436 296 1436 419 1507 c 0,25,-1
 426 1511 l 1,26,27
 386 1222 386 1222 386 967 c 0,28,29
 386 931 386 931 387 899 c 0,30,31
 396 627 396 627 422 407 c 24,32,-1
 426 385 l 25,33,34
 358 377 358 377 304 357 c 0,35,36
 217 325 217 325 174 293 c 17,16,17
EndSplineSet
Validated: 1
EndChar

StartChar: quotedbl
Encoding: 34 34 5
Width: 992
GlyphClass: 2
Flags: W
HStem: 981 527 1491 20G<765 782>
VStem: 203 252<1042.93 1205.66> 248 157<1062.37 1437.75> 540 252<1042.93 1201.91> 585 156<1062.37 1437.75>
LayerCount: 2
Fore
SplineSet
540 981 m 17,0,1
 585 1075 585 1075 585 1221 c 0,2,3
 585 1230 585 1230 585 1240 c 0,4,5
 585 1338 585 1338 541 1435 c 24,6,-1
 537 1446 l 9,7,8
 659 1456 659 1456 782 1508 c 0,9,-1
 789 1511 l 1,10,11
 741 1382 741 1382 741 1273 c 0,12,13
 741 1260 741 1260 742 1249 c 0,14,15
 753 1127 753 1127 784 1065 c 0,16,17
 792 1049 792 1049 792 1048 c 25,18,19
 727 1042 727 1042 670 1028 c 0,20,21
 590 1008 590 1008 540 981 c 17,0,1
203 981 m 17,22,23
 248 1075 248 1075 248 1221 c 0,24,25
 248 1230 248 1230 248 1240 c 0,26,27
 248 1338 248 1338 204 1435 c 24,28,-1
 200 1446 l 9,29,30
 322 1456 322 1456 445 1508 c 0,31,-1
 452 1511 l 1,32,33
 405 1384 405 1384 405 1277 c 0,34,35
 405 1262 405 1262 406 1249 c 0,36,37
 415 1128 415 1128 447 1065 c 0,38,39
 455 1049 455 1049 455 1048 c 25,40,41
 390 1042 390 1042 333 1028 c 0,42,43
 253 1008 253 1008 203 981 c 17,22,23
EndSplineSet
Validated: 1
EndChar

StartChar: numbersign
Encoding: 35 35 6
Width: 1413
GlyphClass: 2
Flags: W
HStem: 533 165<634 781> 858 165<630 776>
VStem: 460 165<707 854> 785 165<703 849>
LayerCount: 2
Fore
SplineSet
150 816 m 1,0,1
 175 863 175 863 197 946 c 0,2,3
 211 999 211 999 217 1068 c 1,4,-1
 243 1060 l 1,5,6
 312 1041 312 1041 451 1032 c 1,7,8
 441 1169 441 1169 424 1246 c 1,9,-1
 418 1271 l 1,10,11
 538 1281 538 1281 663 1333 c 2,12,-1
 670 1336 l 1,13,14
 640 1199 640 1199 630 1024 c 1,15,16
 675 1023 675 1023 725 1023 c 0,17,18
 773 1023 773 1023 776 1023 c 1,19,20
 766 1159 766 1159 749 1236 c 1,21,-1
 743 1261 l 1,22,23
 863 1271 863 1271 988 1323 c 2,24,-1
 995 1326 l 1,25,26
 967 1195 967 1195 956 1029 c 1,27,28
 1122 1040 1122 1040 1253 1068 c 1,29,-1
 1250 1061 l 2,30,31
 1198 936 1198 936 1188 816 c 1,32,-1
 1163 822 l 1,33,34
 1086 839 1086 839 950 849 c 1,35,36
 950 824 950 824 950 798 c 0,37,38
 950 760 950 760 951 703 c 1,39,40
 1127 713 1127 713 1263 743 c 1,41,-1
 1260 736 l 2,42,43
 1208 611 1208 611 1198 491 c 1,44,-1
 1173 497 l 1,45,46
 1096 514 1096 514 959 524 c 1,47,48
 968 385 968 385 987 316 c 1,49,-1
 995 290 l 1,50,51
 927 284 927 284 873 270 c 0,52,53
 788 248 788 248 743 223 c 1,54,55
 771 366 771 366 781 532 c 1,56,57
 758 532 758 532 729 533 c 128,-1,58
 700 534 700 534 634 534 c 1,59,60
 643 395 643 395 662 326 c 1,61,-1
 670 300 l 1,62,63
 601 294 601 294 548 280 c 0,64,65
 464 258 464 258 418 233 c 1,66,67
 445 370 445 370 455 528 c 1,68,69
 297 518 297 518 160 491 c 1,70,71
 185 538 185 538 207 621 c 0,72,73
 221 674 221 674 227 743 c 1,74,-1
 254 735 l 1,75,76
 322 716 322 716 461 707 c 1,77,78
 461 754 461 754 460 802 c 0,79,80
 460 826 460 826 459 854 c 1,81,82
 293 844 293 844 150 816 c 1,0,1
783 856 m 1,83,84
 742 857 742 857 719 858 c 128,-1,85
 696 859 696 859 625 859 c 1,86,87
 625 834 625 834 625 808 c 0,88,89
 625 762 625 762 627 700 c 1,90,91
 678 698 678 698 735 698 c 0,92,93
 783 698 783 698 786 698 c 1,94,95
 786 719 786 719 785 778 c 0,96,97
 785 791 785 791 783 856 c 1,83,84
EndSplineSet
Validated: 1
EndChar

StartChar: percent
Encoding: 37 37 7
Width: 1575
GlyphClass: 2
Flags: W
HStem: 0 21G<395 525 1130 1184.41> 1491 20G<417.373 467.5 1122.5 1192>
VStem: 177 125<1100.92 1340.1> 634 118<1021.38 1262.69> 850 126<252.835 493.056> 1307 118<172.688 416.149>
LayerCount: 2
Fore
SplineSet
1028 524 m 1,0,-1
 1021 513 l 1,1,2
 1003 480 1003 480 988 431 c 0,3,4
 979 402 979 402 976 359 c 0,5,6
 975 344 975 344 978 332 c 0,7,8
 988 292 988 292 1017 256 c 1,9,10
 1042 225 1042 225 1110 195 c 0,11,12
 1192 159 1192 159 1249 141 c 1,13,-1
 1260 155 l 1,14,15
 1284 188 1284 188 1299 240 c 0,16,17
 1303 254 1303 254 1307 307 c 0,18,19
 1308 321 1308 321 1305 336 c 0,20,21
 1298 371 1298 371 1266 412 c 1,22,23
 1236 448 1236 448 1181 470 c 0,24,25
 1104 502 1104 502 1028 524 c 1,0,-1
850 328 m 0,26,27
 851 394 851 394 877 459 c 0,28,29
 897 508 897 508 943 548 c 0,30,31
 969 571 969 571 1009 596 c 1,32,-1
 1125 663 l 1,33,34
 1154 657 1154 657 1219 627 c 0,35,36
 1267 605 1267 605 1317 564 c 1,37,38
 1375 514 1375 514 1398 452 c 1,39,40
 1425 387 1425 387 1425 331 c 0,41,-1
 1425 329 l 0,42,43
 1425 260 1425 260 1396 201 c 128,-1,44
 1367 142 1367 142 1330 113 c 0,45,46
 1291 82 1291 82 1267 68 c 2,47,-1
 1150 0 l 1,48,49
 1110 9 1110 9 1057 34 c 0,50,51
 1011 56 1011 56 959 98 c 0,52,53
 903 143 903 143 878 201 c 1,54,55
 850 265 850 265 850 328 c 0,26,27
355 1372 m 1,56,-1
 348 1361 l 1,57,58
 332 1332 332 1332 315 1279 c 0,59,60
 302 1239 302 1239 302 1208 c 0,61,62
 302 1194 302 1194 305 1180 c 0,63,64
 313 1142 313 1142 344 1104 c 1,65,66
 370 1072 370 1072 436 1043 c 0,67,68
 519 1007 519 1007 576 989 c 1,69,-1
 587 1003 l 1,70,71
 612 1037 612 1037 626 1088 c 0,72,73
 634 1117 634 1117 634 1156 c 0,74,75
 634 1171 634 1171 632 1184 c 0,76,77
 627 1217 627 1217 592 1260 c 1,78,79
 569 1290 569 1290 506 1318 c 0,80,81
 458 1339 458 1339 355 1372 c 1,56,-1
177 1176 m 0,82,83
 177 1242 177 1242 204 1307 c 0,84,85
 223 1353 223 1353 270 1396 c 0,86,87
 296 1419 296 1419 336 1444 c 1,88,-1
 452 1511 l 1,89,90
 483 1505 483 1505 545 1476 c 0,91,92
 591 1455 591 1455 644 1412 c 1,93,94
 702 1362 702 1362 725 1301 c 1,95,96
 752 1235 752 1235 752 1179 c 0,97,-1
 752 1177 l 0,98,99
 752 1106 752 1106 723 1049 c 0,100,101
 693 990 693 990 657 961 c 0,102,103
 616 929 616 929 594 916 c 2,104,-1
 477 848 l 1,105,106
 439 856 439 856 384 882 c 0,107,108
 333 906 333 906 286 946 c 0,109,110
 229 993 229 993 205 1049 c 1,111,112
 177 1113 177 1113 177 1176 c 0,82,83
150 89 m 1,113,114
 344 284 344 284 747 825 c 0,115,116
 1074 1264 1074 1264 1171 1513 c 1,117,118
 1213 1481 1213 1481 1301 1449 c 0,119,120
 1355 1429 1355 1429 1423 1421 c 1,121,122
 1236 1209 1236 1209 912 756 c 1,123,124
 648 396 648 396 402 0 c 1,125,-1
 395 4 l 2,126,127
 271 75 271 75 150 89 c 1,113,114
EndSplineSet
Validated: 1
EndChar

StartChar: ampersand
Encoding: 38 38 8
Width: 1512
VWidth: 0
GlyphClass: 2
Flags: W
HStem: 0 21G<531.5 676.406 1214 1248> 1491 20G<600.488 689>
VStem: 122 139<428.562 610.441> 178 143<1025.34 1221.39>
LayerCount: 2
Fore
SplineSet
642 0 m 1,0,1
 421 104 421 104 376 132 c 0,2,3
 239 216 239 216 184 286 c 1,4,5
 122 368 122 368 122 479 c 2,6,-1
 122 486 l 1,7,8
 132 606 132 606 234 678 c 0,9,10
 325 742 325 742 413 757 c 1,11,-1
 336 790 l 1,12,13
 178 893 178 893 178 1076 c 0,14,15
 178 1186 178 1186 268 1278 c 0,16,17
 344 1355 344 1355 397 1388 c 1,18,-1
 640 1511 l 1,19,20
 738 1488 738 1488 821 1433 c 0,21,22
 894 1385 894 1385 942 1332 c 1,23,-1
 802 1211 l 1,24,25
 776 1231 776 1231 740 1252 c 0,26,27
 582 1344 582 1344 409 1386 c 1,28,-1
 404 1384 l 1,29,30
 321 1276 321 1276 321 1153 c 0,31,32
 321 1113 321 1113 330 1072 c 1,33,-1
 338 1040 l 1,34,35
 618 728 618 728 1032 410 c 1,36,37
 1130 635 1130 635 1130 894 c 0,38,39
 1130 899 1130 899 1130 904 c 1,40,41
 1133 894 1133 894 1178 870 c 0,42,43
 1267 823 1267 823 1354 818 c 0,44,45
 1373 817 1373 817 1376 822 c 1,46,47
 1264 538 1264 538 1107 353 c 1,48,49
 1274 228 1274 228 1462 102 c 1,50,51
 1457 103 1457 103 1452 103 c 0,52,53
 1404 99 1404 99 1338 70 c 0,54,55
 1288 48 1288 48 1248 10 c 1,56,-1
 1235 0 l 1,57,58
 1193 74 1193 74 1009 250 c 1,59,60
 907 154 907 154 888 143 c 2,61,-1
 642 0 l 1,0,1
970 287 m 1,62,-1
 878 372 l 1,63,64
 540 680 540 680 476 726 c 0,65,66
 460 738 460 738 453 741 c 1,67,68
 292 657 292 657 269 582 c 0,69,70
 261 556 261 556 261 532 c 0,71,72
 262 471 262 471 310 424 c 1,73,74
 396 350 396 350 455 315 c 0,75,76
 640 205 640 205 876 145 c 1,77,78
 929 214 929 214 970 287 c 1,62,-1
EndSplineSet
Validated: 1
EndChar

StartChar: quotesingle
Encoding: 39 39 9
Width: 655
GlyphClass: 2
Flags: W
HStem: 981 527 1491 20G<428.5 445>
VStem: 203 252<1042.93 1205.66> 248 157<1062.37 1437.75>
LayerCount: 2
Fore
SplineSet
203 981 m 17,0,1
 248 1075 248 1075 248 1221 c 0,2,3
 248 1230 248 1230 248 1240 c 0,4,5
 248 1338 248 1338 204 1435 c 24,6,-1
 200 1446 l 9,7,8
 322 1456 322 1456 445 1508 c 0,9,-1
 452 1511 l 1,10,11
 405 1384 405 1384 405 1277 c 0,12,13
 405 1262 405 1262 406 1249 c 0,14,15
 415 1128 415 1128 447 1065 c 0,16,17
 455 1049 455 1049 455 1048 c 25,18,19
 390 1042 390 1042 333 1028 c 0,20,21
 253 1008 253 1008 203 981 c 17,0,1
EndSplineSet
Validated: 1
EndChar

StartChar: parenleft
Encoding: 40 40 10
Width: 939
GlyphClass: 2
Flags: W
VStem: 150 190<380.17 990.943>
LayerCount: 2
Fore
SplineSet
628 -324 m 1,0,1
 537 -269 537 -269 472 -192 c 0,2,3
 341 -38 341 -38 287 58 c 0,4,5
 206 202 206 202 172 392 c 0,6,7
 150 515 150 515 150 639 c 0,8,9
 150 710 150 710 157 779 c 0,10,11
 177 973 177 973 245 1165 c 0,12,13
 299 1318 299 1318 415 1461 c 0,14,15
 508 1577 508 1577 625 1643 c 0,16,17
 718 1696 718 1696 846 1721 c 1,18,-1
 831 1710 l 1,19,20
 569 1528 569 1528 446 1223 c 0,21,22
 364 1020 364 1020 343 759 c 0,23,24
 340 722 340 722 340 685 c 0,25,26
 341 532 341 532 385 379 c 1,27,28
 455 172 455 172 567 36 c 0,29,30
 699 -124 699 -124 890 -179 c 0,31,-1
 628 -324 l 1,0,1
EndSplineSet
Validated: 1
EndChar

StartChar: parenright
Encoding: 41 41 11
Width: 939
GlyphClass: 2
Flags: W
VStem: 600 190<398.891 1016.95>
LayerCount: 2
Fore
SplineSet
312 1721 m 1,0,1
 405 1664 405 1664 468 1589 c 0,2,3
 598 1433 598 1433 653 1338 c 0,4,5
 734 1197 734 1197 768 1005 c 0,6,7
 790 879 790 879 790 755 c 0,8,9
 790 685 790 685 783 617 c 0,10,11
 763 422 763 422 695 231 c 0,12,13
 640 78 640 78 525 -65 c 0,14,15
 435 -176 435 -176 315 -246 c 0,16,17
 222 -300 222 -300 94 -324 c 1,18,-1
 109 -314 l 1,19,20
 368 -134 368 -134 493 173 c 0,21,22
 576 375 576 375 597 638 c 0,23,24
 600 675 600 675 600 712 c 0,25,26
 599 865 599 865 555 1017 c 1,27,28
 484 1229 484 1229 373 1361 c 0,29,30
 240 1520 240 1520 50 1575 c 0,31,-1
 312 1721 l 1,0,1
EndSplineSet
Validated: 1
EndChar

StartChar: asterisk
Encoding: 42 42 12
Width: 1266
GlyphClass: 2
Flags: W
HStem: 1491 20G<735.5 743>
LayerCount: 2
Fore
SplineSet
150 1159 m 1,0,1
 189 1184 189 1184 255 1248 c 0,2,3
 293 1285 293 1285 334 1344 c 1,4,-1
 353 1324 l 1,5,6
 426 1252 426 1252 550 1170 c 1,7,8
 541 1318 541 1318 515 1418 c 1,9,-1
 507 1444 l 1,10,11
 577 1450 577 1450 629 1464 c 0,12,13
 712 1486 712 1486 759 1511 c 1,14,15
 727 1351 727 1351 721 1172 c 1,16,17
 842 1253 842 1253 914 1324 c 1,18,-1
 933 1344 l 1,19,20
 975 1284 975 1284 1011 1248 c 0,21,22
 1070 1188 1070 1188 1117 1159 c 1,23,24
 961 1107 961 1107 802 1022 c 1,25,26
 956 943 956 943 1117 892 c 1,27,-1
 1111 887 l 2,28,29
 1003 805 1003 805 935 706 c 1,30,-1
 916 724 l 1,31,32
 870 770 870 770 727 864 c 1,33,34
 736 693 736 693 753 630 c 1,35,-1
 759 605 l 1,36,37
 640 595 640 595 514 543 c 2,38,-1
 507 540 l 1,39,40
 543 702 543 702 552 872 c 1,41,42
 399 772 399 772 351 724 c 1,43,-1
 332 706 l 1,44,45
 264 805 264 805 156 887 c 2,46,-1
 150 892 l 1,47,48
 311 943 311 943 465 1022 c 1,49,50
 306 1107 306 1107 150 1159 c 1,0,1
EndSplineSet
Validated: 1
EndChar

StartChar: plus
Encoding: 43 43 13
Width: 1131
GlyphClass: 2
Flags: W
HStem: 610 166<150.25 476 646 985.609>
VStem: 479 167<287.042 606 776 1116.61>
LayerCount: 2
Fore
SplineSet
80 570 m 1,0,1
 103 613 103 613 127 700 c 0,2,3
 141 751 141 751 147 822 c 1,4,-1
 173 814 l 1,5,6
 290 784 290 784 476 776 c 1,7,8
 466 1014 466 1014 446 1092 c 1,9,-1
 440 1117 l 1,10,11
 559 1126 559 1126 685 1179 c 2,12,-1
 692 1182 l 1,13,14
 648 983 648 983 644 774 c 1,15,16
 853 779 853 779 1051 822 c 1,17,-1
 1048 815 l 2,18,19
 996 690 996 690 986 570 c 1,20,-1
 961 576 l 1,21,22
 884 597 884 597 646 606 c 1,23,24
 653 421 653 421 684 304 c 1,25,-1
 692 278 l 1,26,27
 627 272 627 272 570 257 c 0,28,29
 484 234 484 234 440 210 c 1,30,31
 477 397 477 397 479 610 c 1,32,33
 267 608 267 608 80 570 c 1,0,1
EndSplineSet
Validated: 1
EndChar

StartChar: comma
Encoding: 44 44 14
Width: 655
GlyphClass: 2
Flags: W
HStem: -267 1<0.499023 2.10645>
VStem: 0 545
LayerCount: 2
Fore
SplineSet
0 -267 m 1,0,1
 67 -240 67 -240 186 7 c 0,2,3
 268 177 268 177 281 280 c 1,4,5
 326 258 326 258 420 240 c 0,6,7
 462 232 462 232 510 232 c 0,8,9
 526 232 526 232 545 233 c 1,10,11
 503 197 503 197 365 -7 c 1,12,13
 291 -154 291 -154 264 -311 c 1,14,-1
 256 -308 l 2,15,16
 147 -267 147 -267 28 -266 c 0,17,18
 16 -266 16 -266 0 -267 c 1,0,1
EndSplineSet
Validated: 1
EndChar

StartChar: hyphen
Encoding: 45 45 15
Width: 1131
GlyphClass: 2
Flags: W
HStem: 611 163<162.316 985.609>
LayerCount: 2
Fore
SplineSet
80 570 m 9,0,1
 103 613 103 613 127 700 c 0,2,3
 141 751 141 751 147 822 c 25,4,-1
 173 814 l 24,5,6
 329 774 329 774 630 774 c 0,7,8
 832 774 832 774 1051 822 c 1,9,-1
 1048 815 l 0,10,11
 996 692 996 692 986 570 c 17,12,-1
 961 576 l 16,13,14
 755 611 755 611 533 611 c 0,15,16
 517 611 517 611 498 611 c 0,17,18
 281 611 281 611 80 570 c 9,0,1
EndSplineSet
Validated: 1
EndChar

StartChar: period
Encoding: 46 46 16
Width: 574
GlyphClass: 2
Flags: W
HStem: -66 390
VStem: 169 239<32.4939 234.672>
LayerCount: 2
Fore
SplineSet
150 -66 m 17,0,1
 169 18 169 18 169 106 c 0,2,3
 169 160 169 160 162 214 c 0,4,-1
 156 235 l 9,5,6
 287 249 287 249 417 324 c 0,7,-1
 424 328 l 9,8,9
 408 270 408 270 408 165 c 0,10,11
 408 110 408 110 418 30 c 9,12,13
 346 22 346 22 280 -2 c 0,14,15
 193 -34 193 -34 150 -66 c 17,0,1
EndSplineSet
Validated: 1
EndChar

StartChar: slash
Encoding: 47 47 17
Width: 1118
GlyphClass: 2
Flags: W
LayerCount: 2
Fore
SplineSet
0 -127 m 1,0,1
 310 382 310 382 524 816 c 0,2,3
 742 1259 742 1259 866 1664 c 1,4,5
 909 1632 909 1632 996 1600 c 0,6,7
 1053 1580 1053 1580 1118 1572 c 1,8,9
 896 1200 896 1200 680 741 c 1,10,11
 419 213 419 213 252 -216 c 1,12,-1
 245 -212 l 2,13,14
 121 -141 121 -141 0 -127 c 1,0,1
EndSplineSet
Validated: 1
EndChar

StartChar: zero
Encoding: 48 48 18
Width: 1354
VWidth: 0
GlyphClass: 2
Flags: W
HStem: 0 21G<665.5 732.857> 1495 20G<621.951 684.5>
VStem: 120 161<598.777 1002.46> 1074 160<488.015 912.019>
LayerCount: 2
Fore
SplineSet
443 1370 m 1,0,-1
 442 1369 l 1,1,2
 358 1320 358 1320 311 1104 c 0,3,4
 281 965 281 965 281 848 c 0,5,6
 281 796 281 796 287 749 c 0,7,8
 304 618 304 618 381 478 c 1,9,10
 452 352 452 352 601 260 c 0,11,12
 744 172 744 172 911 142 c 1,13,-1
 913 143 l 1,14,15
 1006 195 1006 195 1049 423 c 0,16,17
 1074 554 1074 554 1074 662 c 0,18,19
 1074 714 1074 714 1068 763 c 0,20,21
 1053 889 1053 889 974 1034 c 1,22,23
 903 1163 903 1163 760 1247 c 0,24,25
 616 1331 616 1331 443 1370 c 1,0,-1
701 0 m 1,26,27
 630 19 630 19 521 78 c 0,28,29
 419 134 419 134 331 223 c 0,30,31
 219 336 219 336 174 470 c 1,32,33
 120 621 120 621 120 750 c 0,34,35
 120 753 120 753 120 755 c 0,36,37
 120 897 120 897 182 1050 c 0,38,39
 227 1163 227 1163 308 1257 c 0,40,41
 372 1332 372 1332 431 1372 c 1,42,-1
 653 1515 l 1,43,44
 716 1498 716 1498 834 1434 c 0,45,46
 923 1386 923 1386 1024 1289 c 1,47,48
 1137 1175 1137 1175 1182 1034 c 1,49,50
 1233 885 1233 885 1234 757 c 0,51,52
 1234 751 l 0,53,54
 1234 590 1234 590 1178 459 c 0,55,56
 1124 333 1124 333 1049 258 c 0,57,58
 945 154 945 154 924 140 c 2,59,-1
 701 0 l 1,26,27
EndSplineSet
Validated: 1
EndChar

StartChar: one
Encoding: 49 49 19
Width: 670
GlyphClass: 2
Flags: W
HStem: 0 21G<289.5 289.5> 1491 20G<497.5 513>
VStem: 311 164<286.748 1218.88>
LayerCount: 2
Fore
SplineSet
268 0 m 1,0,1
 311 299 311 299 311 683 c 0,2,3
 311 734 311 734 310 780 c 0,4,5
 303 1090 303 1090 292 1228 c 1,6,7
 250 1187 250 1187 220 1149 c 1,8,9
 137 1059 137 1059 106 936 c 1,10,-1
 96 946 l 2,11,12
 56 986 56 986 -50 1013 c 1,13,14
 16 1047 16 1047 139 1179 c 0,15,16
 207 1252 207 1252 268 1422 c 1,17,18
 388 1436 388 1436 513 1507 c 2,19,-1
 520 1511 l 1,20,21
 475 1228 475 1228 475 823 c 0,22,23
 475 806 475 806 475 788 c 0,24,25
 475 307 475 307 512 128 c 1,26,-1
 520 92 l 1,27,28
 452 84 452 84 398 64 c 0,29,30
 311 32 311 32 268 0 c 1,0,1
EndSplineSet
Validated: 1
EndChar

StartChar: four
Encoding: 52 52 20
Width: 1141
GlyphClass: 2
Flags: W
HStem: 0 21G<761 762> 363 97<234.355 781.068> 1491 20G<968.5 984>
VStem: 785 161<481.745 1234.05>
LayerCount: 2
Fore
SplineSet
38 331 m 1,0,-1
 0 439 l 1,1,2
 481 945 481 945 739 1422 c 1,3,4
 860 1436 860 1436 984 1507 c 2,5,-1
 991 1511 l 1,6,7
 946 1231 946 1231 946 838 c 0,8,9
 946 814 946 814 946 788 c 0,10,11
 946 308 946 308 983 128 c 1,12,-1
 991 92 l 1,13,14
 922 84 922 84 869 64 c 0,15,16
 783 32 783 32 739 0 c 1,17,18
 785 144 785 144 786 352 c 1,19,20
 706 363 706 363 564 363 c 0,21,22
 503 363 503 363 427 361 c 0,23,24
 174 354 174 354 38 331 c 1,0,-1
752 1244 m 1,25,26
 465 869 465 869 229 471 c 1,27,28
 297 460 297 460 463 460 c 0,29,30
 477 460 477 460 491 460 c 0,31,32
 691 460 691 460 784 480 c 1,33,34
 783 523 783 523 785 540 c 0,35,36
 783 565 783 565 780 825 c 0,37,38
 778 976 778 976 752 1244 c 1,25,26
EndSplineSet
Validated: 1
EndChar

StartChar: six
Encoding: 54 54 21
Width: 1285
VWidth: 0
GlyphClass: 2
Flags: W
HStem: 0 21G<669.5 733.049> 1491 20G<657.735 739>
VStem: 120 160<601.777 878.711> 1040 125<348.764 543.068>
DStem2: 489 987 328 846 0.921156 -0.389193<-149.105 677.613>
LayerCount: 2
Fore
SplineSet
120 790 m 0,0,1
 120 936 120 936 176 1056 c 0,2,3
 243 1200 243 1200 308 1267 c 0,4,5
 397 1358 397 1358 430 1375 c 2,6,-1
 697 1511 l 1,7,8
 781 1488 781 1488 894 1426 c 0,9,10
 963 1388 963 1388 1090 1271 c 1,11,12
 1121 1239 1121 1239 1147 1205 c 1,13,-1
 948 1107 l 1,14,15
 884 1181 884 1181 746 1270 c 0,16,17
 622 1350 622 1350 443 1363 c 1,18,19
 361 1318 361 1318 318 1147 c 1,20,21
 346 1047 346 1047 489 987 c 2,22,-1
 960 788 l 1,23,24
 1149 706 1149 706 1164 526 c 0,25,26
 1165 514 1165 514 1165 502 c 0,27,28
 1163 395 1163 395 1100 317 c 0,29,30
 1003 196 1003 196 924 143 c 1,31,-1
 702 0 l 1,32,33
 637 18 637 18 520 81 c 0,34,35
 433 128 433 128 330 226 c 1,36,37
 218 340 218 340 172 481 c 1,38,39
 120 634 120 634 120 790 c 0,0,1
280 861 m 0,40,41
 280 796 280 796 286 752 c 0,42,43
 304 621 304 621 380 481 c 1,44,45
 453 352 453 352 601 262 c 0,46,47
 745 175 745 175 911 145 c 1,48,49
 1040 220 1040 220 1040 430 c 0,50,51
 1040 542 1040 542 922 592 c 0,52,53
 358 832 358 832 328 846 c 0,54,55
 303 858 303 858 280 879 c 1,56,57
 280 862 280 862 280 861 c 0,40,41
EndSplineSet
Validated: 1
EndChar

StartChar: seven
Encoding: 55 55 22
Width: 1038
GlyphClass: 2
Flags: W
HStem: 0 21G<69 134.5> 1375 92<239.451 710.001> 1491 20G<116 145 821 938.5>
LayerCount: 2
Fore
SplineSet
566 1375 m 0,0,1
 281 1375 281 1375 52 1259 c 1,2,3
 75 1302 75 1302 99 1389 c 0,4,5
 113 1441 113 1441 119 1511 c 1,6,-1
 145 1503 l 1,7,8
 267 1467 267 1467 659 1467 c 0,9,10
 839 1467 839 1467 1038 1511 c 1,11,12
 604 776 604 776 380 146 c 1,13,-1
 366 90 l 1,14,15
 219 84 219 84 50 0 c 1,16,-1
 69 13 l 1,17,18
 159 105 159 105 483 795 c 0,19,20
 629 1106 629 1106 715 1370 c 1,21,22
 677 1375 677 1375 609 1375 c 0,23,24
 588 1375 588 1375 566 1375 c 0,0,1
EndSplineSet
Validated: 1
EndChar

StartChar: eight
Encoding: 56 56 23
Width: 1235
VWidth: 0
GlyphClass: 2
Flags: W
HStem: 0 21G<533 676.406> 1491 20G<600.488 688.5>
VStem: 122 139<428.562 610.441> 178 124<1030.84 1220.5> 886 152<968.483 1174.89> 986 130<325.202 499.68>
DStem2: 446 964 336 790 0.921156 -0.389193<-152.253 50.1649 60.1269 308.849 340.124 659.697>
LayerCount: 2
Fore
SplineSet
302 1156 m 0,0,1
 302 1018 302 1018 446 964 c 0,2,3
 579 914 579 914 706 864 c 1,4,5
 860 926 860 926 882 1024 c 0,6,7
 886 1042 886 1042 886 1059 c 0,8,9
 884 1118 884 1118 848 1166 c 1,10,11
 820 1206 820 1206 740 1252 c 0,12,13
 575 1346 575 1346 409 1386 c 1,14,-1
 404 1384 l 1,15,16
 302 1309 302 1309 302 1156 c 0,0,1
178 1076 m 0,17,18
 178 1186 178 1186 268 1278 c 0,19,20
 344 1355 344 1355 397 1388 c 1,21,-1
 640 1511 l 1,22,23
 737 1488 737 1488 821 1433 c 0,24,25
 920 1368 920 1368 974 1293 c 1,26,27
 1038 1193 1038 1193 1038 1095 c 0,28,29
 1038 970 1038 970 898 888 c 0,30,31
 840 854 840 854 762 838 c 1,32,33
 983 740 983 740 1041 685 c 0,34,35
 1116 613 1116 613 1116 477 c 0,36,37
 1116 455 1116 455 1114 432 c 0,38,39
 1107 351 1107 351 1020 260 c 128,-1,40
 933 169 933 169 888 143 c 2,41,-1
 642 0 l 1,42,43
 424 103 424 103 376 132 c 0,44,45
 239 216 239 216 184 286 c 1,46,47
 122 368 122 368 122 479 c 0,48,49
 122 482 122 482 122 486 c 1,50,51
 132 606 132 606 234 678 c 0,52,53
 325 742 325 742 413 757 c 1,54,-1
 336 790 l 1,55,56
 178 893 178 893 178 1076 c 0,17,18
986 385 m 0,57,58
 986 515 986 515 807 591 c 2,59,-1
 453 741 l 1,60,61
 292 657 292 657 269 582 c 0,62,63
 261 556 261 556 261 532 c 0,64,65
 262 471 262 471 310 424 c 1,66,67
 423 334 423 334 455 315 c 0,68,69
 640 205 640 205 876 145 c 1,70,71
 986 220 986 220 986 385 c 0,57,58
EndSplineSet
Validated: 1
EndChar

StartChar: nine
Encoding: 57 57 24
Width: 1285
VWidth: 0
GlyphClass: 2
Flags: W
HStem: 0 21G<547.5 626.265> 1491 20G<551.951 612.5>
VStem: 119 125<987.546 1170.08> 1004 160<633.561 906.955>
DStem2: 362 919 324 723 0.919064 -0.394107<-132.199 699.921>
LayerCount: 2
Fore
SplineSet
1164 714 m 0,0,1
 1164 576 1164 576 1108 455 c 0,2,3
 1041 310 1041 310 977 244 c 0,4,5
 891 155 891 155 854 136 c 2,6,-1
 587 0 l 1,7,8
 508 21 508 21 391 85 c 0,9,10
 321 123 321 123 195 240 c 1,11,12
 163 272 163 272 137 306 c 1,13,-1
 336 404 l 1,14,15
 400 330 400 330 538 241 c 0,16,17
 662 161 662 161 842 148 c 1,18,19
 923 193 923 193 967 364 c 1,20,21
 938 464 938 464 795 524 c 2,22,-1
 324 723 l 1,23,24
 136 804 136 804 120 985 c 0,25,26
 119 996 119 996 119 1007 c 0,27,28
 123 1123 123 1123 185 1202 c 0,29,30
 284 1328 284 1328 361 1368 c 1,31,-1
 583 1511 l 1,32,33
 642 1495 642 1495 764 1430 c 0,34,35
 851 1384 851 1384 954 1285 c 1,36,37
 1066 1171 1066 1171 1112 1030 c 1,38,39
 1164 876 1164 876 1164 714 c 0,0,1
1004 659 m 0,40,41
 1004 718 1004 718 998 759 c 0,42,43
 978 894 978 894 904 1030 c 1,44,45
 832 1156 832 1156 683 1248 c 0,46,47
 540 1336 540 1336 373 1366 c 1,48,49
 244 1291 244 1291 244 1087 c 0,50,51
 244 1084 244 1084 244 1081 c 0,52,53
 244 970 244 970 362 919 c 0,54,55
 532 844 532 844 952 666 c 0,56,57
 992 649 992 649 1004 632 c 1,58,59
 1004 657 1004 657 1004 659 c 0,40,41
EndSplineSet
Validated: 1
EndChar

StartChar: colon
Encoding: 58 58 25
Width: 574
GlyphClass: 2
Flags: W
VStem: 169 239<32.4939 234.672 588.494 790.672>
LayerCount: 2
Fore
SplineSet
408 721 m 0,0,1
 408 666 408 666 418 586 c 9,2,3
 346 578 346 578 280 554 c 0,4,5
 193 522 193 522 150 490 c 17,6,7
 169 574 169 574 169 662 c 0,8,9
 169 716 169 716 162 770 c 0,10,-1
 156 791 l 9,11,12
 287 805 287 805 417 880 c 0,13,-1
 424 884 l 9,14,15
 408 826 408 826 408 721 c 0,0,1
408 165 m 0,16,17
 408 110 408 110 418 30 c 9,18,19
 346 22 346 22 280 -2 c 0,20,21
 193 -34 193 -34 150 -66 c 17,22,23
 169 18 169 18 169 106 c 0,24,25
 169 160 169 160 162 214 c 0,26,-1
 156 235 l 9,27,28
 287 249 287 249 417 324 c 0,29,-1
 424 328 l 9,30,31
 408 270 408 270 408 165 c 0,16,17
EndSplineSet
Validated: 1
EndChar

StartChar: semicolon
Encoding: 59 59 26
Width: 656
GlyphClass: 2
Flags: W
HStem: -267 1<0.222168 2.10645>
VStem: 297 239<586.429 788.672>
LayerCount: 2
Fore
SplineSet
536 705 m 0,0,1
 536 662 536 662 546 584 c 9,2,3
 474 576 474 576 408 552 c 0,4,5
 321 520 321 520 278 488 c 17,6,7
 297 572 297 572 297 660 c 0,8,9
 297 714 297 714 290 768 c 0,10,-1
 284 789 l 9,11,12
 415 803 415 803 545 878 c 0,13,-1
 552 882 l 9,14,15
 536 824 536 824 536 705 c 0,0,1
0 -267 m 1,16,17
 67 -240 67 -240 186 7 c 0,18,19
 268 177 268 177 281 280 c 1,20,21
 326 258 326 258 420 240 c 0,22,23
 462 232 462 232 510 232 c 0,24,25
 526 232 526 232 545 233 c 1,26,27
 503 197 503 197 365 -7 c 1,28,29
 291 -154 291 -154 264 -311 c 1,30,-1
 256 -308 l 2,31,32
 147 -267 147 -267 28 -266 c 0,33,34
 7 -266 7 -266 0 -267 c 1,16,17
EndSplineSet
Validated: 1
EndChar

StartChar: less
Encoding: 60 60 27
Width: 1250
GlyphClass: 2
Flags: W
LayerCount: 2
Fore
SplineSet
80 558 m 1,0,1
 84 565 l 2,2,3
 155.036 689.313 155.036 689.313 169 810 c 1,4,-1
 172 810 l 2,5,6
 200 810 200 810 209 814 c 0,7,8
 370 886 370 886 575 997 c 0,9,10
 1002 1227 1002 1227 1099 1309 c 1,11,-1
 1095 1305 l 2,12,13
 1043 1253 1043 1253 1013 1105 c 1,14,-1
 1000 1105 l 2,15,16
 947 1105 947 1105 638 940 c 0,17,18
 383 804 383 804 377 745 c 1,19,20
 429.95 648.971 429.95 648.971 662 544 c 0,21,22
 1034 373 1034 373 1100 364 c 1,23,24
 1069 325 1069 325 1038 234 c 0,25,26
 1017 173 1017 173 1010 112 c 1,27,28
 938 172 938 172 596 376 c 1,29,30
 248 535 248 535 80 558 c 1,0,1
EndSplineSet
Validated: 1
EndChar

StartChar: equal
Encoding: 61 61 28
Width: 1132
GlyphClass: 2
Flags: W
HStem: 477 163<163.316 986.609> 803 163<162.316 985.609>
LayerCount: 2
Fore
SplineSet
81 436 m 9,0,1
 104 479 104 479 128 566 c 0,2,3
 142 617 142 617 148 688 c 25,4,-1
 174 680 l 24,5,6
 330 640 330 640 631 640 c 0,7,8
 833 640 833 640 1052 688 c 1,9,-1
 1049 681 l 0,10,11
 997 558 997 558 987 436 c 17,12,-1
 962 442 l 16,13,14
 756 477 756 477 534 477 c 0,15,16
 518 477 518 477 499 477 c 0,17,18
 282 477 282 477 81 436 c 9,0,1
80 762 m 9,19,20
 103 805 103 805 127 892 c 0,21,22
 141 943 141 943 147 1014 c 25,23,-1
 173 1006 l 24,24,25
 329 966 329 966 630 966 c 0,26,27
 832 966 832 966 1051 1014 c 1,28,-1
 1048 1007 l 0,29,30
 996 884 996 884 986 762 c 17,31,-1
 961 768 l 16,32,33
 755 803 755 803 533 803 c 0,34,35
 517 803 517 803 498 803 c 0,36,37
 281 803 281 803 80 762 c 9,19,20
EndSplineSet
Validated: 1
EndChar

StartChar: greater
Encoding: 62 62 29
Width: 1250
GlyphClass: 2
Flags: W
LayerCount: 2
Fore
SplineSet
1170 863 m 1,0,-1
 1166 856 l 2,1,2
 1094.96 731.687 1094.96 731.687 1081 611 c 1,3,-1
 1078 611 l 2,4,5
 1050 611 1050 611 1041 607 c 0,6,7
 880 535 880 535 675 424 c 0,8,9
 248 194 248 194 151 112 c 1,10,-1
 155 116 l 2,11,12
 207 168 207 168 237 316 c 1,13,-1
 250 316 l 2,14,15
 303 316 303 316 612 481 c 0,16,17
 867 617 867 617 873 676 c 1,18,19
 820.05 772.029 820.05 772.029 588 877 c 0,20,21
 216 1048 216 1048 150 1057 c 1,22,23
 181 1096 181 1096 212 1187 c 0,24,25
 233 1248 233 1248 240 1309 c 1,26,27
 312 1249 312 1249 654 1045 c 1,28,29
 1002 886 1002 886 1170 863 c 1,0,-1
EndSplineSet
Validated: 1
EndChar

StartChar: question
Encoding: 63 63 30
Width: 1240
GlyphClass: 2
Flags: W
HStem: 1491 20G<557.594 702.5>
VStem: 121 154<1066 1198> 427 202<459.719 553.034> 462 239<34.4939 244.556> 935 185<893.027 1084.75>
LayerCount: 2
Fore
SplineSet
701 167 m 0,0,1
 701 112 701 112 711 32 c 9,2,3
 639 24 639 24 573 0 c 0,4,5
 486 -32 486 -32 443 -64 c 17,6,7
 462 20 462 20 462 108 c 0,8,9
 462 162 462 162 455 216 c 0,10,-1
 449 237 l 9,11,12
 580 251 580 251 710 326 c 0,13,-1
 717 330 l 9,14,15
 701 272 701 272 701 167 c 0,0,1
451 306 m 1,16,17
 427 367 427 367 427 421 c 0,18,19
 427 529 427 529 523 608 c 0,20,-1
 659 703 l 1,21,22
 676 713 676 713 822 826 c 0,23,24
 935 913 935 913 935 1008 c 0,25,26
 935 1046 935 1046 916 1086 c 1,27,28
 884 1138 884 1138 780 1196 c 0,29,30
 553 1324 553 1324 358 1366 c 1,31,32
 275 1288 275 1288 275 1198 c 0,33,34
 275 1187 275 1187 276 1176 c 0,35,36
 283 1103 283 1103 378 1060 c 1,37,-1
 182 926 l 1,38,39
 121 993 121 993 121 1066 c 0,40,41
 120 1072 120 1072 121 1079 c 0,42,43
 134 1168 134 1168 215 1251 c 0,44,45
 307 1345 307 1345 346 1368 c 2,46,-1
 592 1511 l 1,47,48
 813 1407 813 1407 858 1379 c 0,49,50
 996 1293 996 1293 1050 1225 c 1,51,52
 1118 1138 1118 1138 1120 1024 c 1,53,-1
 1120 1021 l 0,54,55
 1120 878 1120 878 1008 780 c 0,56,57
 925 708 925 708 771 624 c 1,58,-1
 677 572 l 0,59,60
 629 538 629 538 629 507 c 0,61,62
 628 482 628 482 661 459 c 1,63,-1
 451 306 l 1,16,17
EndSplineSet
Validated: 1
EndChar

StartChar: at
Encoding: 64 64 31
Width: 1241
GlyphClass: 2
Flags: W
HStem: 0 21G<699 745.493 908.5 911> 1110 20G<606.887 667.5>
VStem: 100 121<203.355 609.316> 381 128<331.079 554.9> 928 169<92.5625 736.327>
LayerCount: 2
Fore
SplineSet
681 -384 m 1,0,1
 608 -365 608 -365 501 -306 c 0,2,3
 400 -250 400 -250 311 -161 c 0,4,5
 200 -50 200 -50 154 86 c 1,6,7
 100 250 100 250 100 366 c 0,8,9
 100 369 100 369 100 371 c 0,10,11
 109 514 109 514 162 666 c 0,12,13
 198 769 198 769 288 873 c 0,14,15
 353 949 353 949 411 988 c 1,16,-1
 639 1130 l 1,17,18
 696 1116 696 1116 781 1072 c 0,19,20
 863 1029 863 1029 930 963 c 0,21,22
 1019 875 1019 875 1054 778 c 1,23,24
 1093 682 1093 682 1097 568 c 0,25,26
 1108 261 1108 261 1133 128 c 24,27,-1
 1141 92 l 25,28,29
 1075 84 1075 84 1019 64 c 0,30,31
 933 33 933 33 889 0 c 17,32,33
 928 264 928 264 928 500 c 0,34,35
 928 534 928 534 927 564 c 0,36,37
 923 685 923 685 891 738 c 1,38,39
 824 837 824 837 718 883 c 128,-1,40
 612 929 612 929 413 979 c 1,41,42
 338 888 338 888 273 720 c 0,43,44
 230 610 230 610 224 492 c 0,45,46
 221 435 221 435 221 422 c 0,47,48
 221 418 221 418 221 413 c 0,49,50
 220 396 220 396 225 350 c 0,51,52
 238 233 238 233 327 82 c 1,53,54
 398 -35 398 -35 573 -132 c 0,55,56
 731 -220 731 -220 904 -244 c 1,57,-1
 681 -384 l 1,0,1
721 0 m 1,58,59
 677 19 677 19 577 84 c 0,60,61
 502 133 502 133 432 228 c 1,62,63
 381 329 381 329 381 415 c 0,64,65
 381 416 381 416 381 418 c 1,66,67
 393 539 393 539 471 614 c 0,68,69
 603 740 603 740 800 742 c 1,70,71
 555 629 555 629 517 492 c 0,72,73
 509 463 509 463 509 437 c 0,74,75
 510 390 510 390 535 354 c 1,76,77
 604 267 604 267 651 238 c 0,78,79
 795 149 795 149 890 138 c 1,80,-1
 721 0 l 1,58,59
EndSplineSet
Validated: 1
EndChar

StartChar: A
Encoding: 65 65 32
Width: 1276
GlyphClass: 2
Flags: W
HStem: 0 21G<4 69 1008.5 1046> 497 80<359.922 848> 1491 20G<754 777>
VStem: 509 252<1264.25 1430.44>
LayerCount: 2
Fore
SplineSet
1276 92 m 1,0,1
 1210 84 1210 84 1154 64 c 0,2,3
 1068 33 1068 33 1024 0 c 1,4,5
 993 121 993 121 879 486 c 1,6,7
 773 497 773 497 662 497 c 0,8,9
 630 496 630 496 610 496 c 0,10,11
 437 496 437 496 328 478 c 1,12,-1
 318 476 l 1,13,14
 205 162 205 162 204 101 c 2,15,-1
 204 88 l 1,16,17
 62 59 62 59 4 4 c 2,18,-1
 0 0 l 1,19,20
 138 276 138 276 310 712 c 0,21,22
 468 1112 468 1112 505 1384 c 0,23,24
 509 1413 509 1413 510 1414 c 1,25,-1
 509 1424 l 1,26,27
 633 1438 633 1438 754 1507 c 2,28,-1
 761 1511 l 1,29,30
 793 1212 793 1212 964 753 c 0,31,32
 1149 256 1149 256 1276 92 c 1,0,1
848 586 m 1,33,-1
 805 723 l 2,34,35
 669 1154 669 1154 616 1216 c 1,36,37
 562 1137 562 1137 402 706 c 1,38,-1
 358 588 l 1,39,40
 460 577 460 577 585 577 c 0,41,42
 595 577 595 577 606 577 c 0,43,44
 755 577 755 577 848 586 c 1,33,-1
EndSplineSet
Validated: 1
EndChar

StartChar: C
Encoding: 67 67 33
Width: 1307
VWidth: 0
GlyphClass: 2
Flags: W
HStem: 0 21G<664.5 732.857> 1495 20G<621.951 685.5>
VStem: 120 161<598.777 1003.25>
LayerCount: 2
Fore
SplineSet
1187 483 m 17,0,1
 1182 467 1182 467 1178 459 c 0,2,3
 1118 327 1118 327 1049 258 c 0,4,5
 945 153 945 153 924 140 c 2,6,-1
 701 0 l 1,7,8
 628 19 628 19 521 78 c 0,9,10
 421 133 421 133 331 223 c 0,11,12
 220 334 220 334 174 470 c 1,13,14
 120 621 120 621 120 750 c 0,15,16
 120 753 120 753 120 755 c 0,17,18
 120 900 120 900 182 1050 c 0,19,20
 230 1168 230 1168 308 1257 c 0,21,22
 374 1333 374 1333 431 1372 c 1,23,-1
 653 1515 l 1,24,25
 718 1497 718 1497 834 1434 c 0,26,27
 924 1385 924 1385 1024 1289 c 1,28,29
 1055 1257 1055 1257 1081 1223 c 1,30,-1
 882 1125 l 1,31,32
 814 1210 814 1210 753 1252 c 0,33,34
 628 1337 628 1337 443 1370 c 1,35,-1
 442 1369 l 1,36,37
 356 1319 356 1319 311 1104 c 0,38,39
 281 960 281 960 281 845 c 0,40,41
 281 794 281 794 287 749 c 0,42,43
 304 618 304 618 381 478 c 1,44,45
 452 352 452 352 601 260 c 0,46,47
 744 172 744 172 911 142 c 1,48,-1
 913 143 l 1,49,50
 1005 224 1005 224 1005 400 c 0,51,52
 1005 483 1005 483 985 552 c 9,53,-1
 1187 483 l 17,0,1
EndSplineSet
Validated: 1
EndChar

StartChar: E
Encoding: 69 69 34
Width: 1058
GlyphClass: 2
Flags: W
HStem: 0 21G<171.5 249.5 915 944.5> 42 95<391.873 818.245> 715 97<358 648.011> 1259 201<658.875 872.375> 1491 20G<395 404.5>
VStem: 192 165<214.094 715 812 1283.07>
LayerCount: 2
Fore
SplineSet
520 42 m 0,0,1
 349 42 349 42 150 0 c 1,2,3
 193 292 193 292 193 670 c 0,4,5
 193 725 193 725 192 780 c 0,6,7
 184 1229 184 1229 156 1388 c 2,8,-1
 150 1422 l 1,9,10
 271 1436 271 1436 395 1507 c 2,11,-1
 402 1511 l 1,12,13
 407 1510 407 1510 433 1500 c 0,14,15
 537 1460 537 1460 657 1460 c 0,16,-1
 662 1460 l 0,17,18
 794 1460 794 1460 948 1511 c 1,19,-1
 945 1504 l 1,20,21
 877 1381 877 1381 869 1259 c 1,22,-1
 862 1259 l 1,23,24
 682 1270 682 1270 558 1360 c 1,25,26
 440 1451 440 1451 399 1491 c 1,27,28
 357 1216 357 1216 357 830 c 0,29,30
 357 821 357 821 357 812 c 1,31,32
 631 825 631 825 829 925 c 1,33,34
 803 879 803 879 782 795 c 0,35,36
 768 739 768 739 762 673 c 1,37,-1
 735 681 l 2,38,39
 620 715 620 715 398 715 c 0,40,41
 386 715 386 715 373 715 c 0,42,43
 366 715 366 715 358 715 c 1,44,45
 362 306 362 306 391 145 c 1,46,47
 419 137 419 137 438 137 c 0,48,49
 781 137 781 137 1008 252 c 1,50,51
 985 209 985 209 961 122 c 0,52,53
 948 73 948 73 941 0 c 1,54,-1
 915 8 l 2,55,56
 804 42 804 42 520 42 c 0,0,1
EndSplineSet
Validated: 1
EndChar

StartChar: F
Encoding: 70 70 35
Width: 947
GlyphClass: 2
Flags: W
HStem: 0 21G<171.5 171.5> 715 97<358 647.083> 1259 201<658.875 872.375> 1491 20G<395 404.5>
VStem: 192 165<209.409 715 812 1280.73>
LayerCount: 2
Fore
SplineSet
402 1511 m 1,0,1
 407 1510 407 1510 433 1500 c 0,2,3
 537 1460 537 1460 657 1460 c 0,4,5
 662 1460 l 0,6,7
 794 1460 794 1460 948 1511 c 1,8,-1
 945 1504 l 1,9,10
 877 1381 877 1381 869 1259 c 1,11,-1
 862 1259 l 1,12,13
 682 1270 682 1270 558 1360 c 1,14,15
 426 1461 426 1461 400 1501 c 1,16,17
 357 1223 357 1223 357 830 c 0,18,19
 357 821 357 821 357 812 c 1,20,21
 631 825 631 825 829 925 c 1,22,23
 802 876 802 876 782 795 c 0,24,25
 768 738 768 738 762 673 c 1,26,-1
 735 681 l 2,27,28
 624 715 624 715 373 715 c 0,29,30
 365 715 365 715 358 715 c 1,31,32
 362 284 362 284 394 128 c 1,33,-1
 402 92 l 1,34,35
 334 84 334 84 280 64 c 0,36,37
 193 32 193 32 150 0 c 1,38,39
 193 295 193 295 193 671 c 0,40,41
 193 726 193 726 192 780 c 0,42,43
 184 1223 184 1223 156 1388 c 1,44,-1
 150 1422 l 1,45,46
 271 1436 271 1436 395 1507 c 2,47,-1
 402 1511 l 1,0,1
EndSplineSet
Validated: 1
EndChar

StartChar: G
Encoding: 71 71 36
Width: 1296
VWidth: 0
GlyphClass: 2
Flags: W
HStem: 0 21G<664.5 732.765 900 914.5> 1495 20G<621.951 685>
VStem: 120 161<599.391 1003.25> 938 144<145.212 715.641>
LayerCount: 2
Fore
SplineSet
918 141 m 1,0,1
 938 276 938 276 938 384 c 0,2,3
 938 397 938 397 938 412 c 0,4,5
 938 563 938 563 901 693 c 1,6,-1
 894 716 l 1,7,8
 1014 730 1014 730 1139 801 c 2,9,-1
 1146 805 l 1,10,11
 1082 653 1082 653 1082 441 c 0,12,13
 1082 429 1082 429 1082 416 c 0,14,15
 1082 228 1082 228 1135 117 c 1,16,-1
 1145 92 l 1,17,18
 1077 84 1077 84 1023 64 c 0,19,20
 936 32 936 32 893 0 c 1,21,22
 907 71 907 71 917 136 c 1,23,-1
 701 0 l 1,24,25
 628 19 628 19 521 78 c 0,26,27
 421 133 421 133 331 223 c 0,28,29
 223 331 223 331 174 470 c 0,30,31
 120 624 120 624 120 750 c 0,32,33
 120 753 120 753 120 755 c 0,34,35
 120 900 120 900 182 1050 c 0,36,37
 230 1168 230 1168 308 1257 c 0,38,39
 374 1333 374 1333 431 1372 c 1,40,-1
 653 1515 l 1,41,42
 717 1497 717 1497 834 1434 c 0,43,44
 923 1386 923 1386 1024 1289 c 1,45,46
 1055 1257 1055 1257 1081 1223 c 1,47,-1
 882 1125 l 1,48,49
 814 1210 814 1210 753 1252 c 0,50,51
 628 1337 628 1337 443 1370 c 1,52,-1
 442 1369 l 1,53,54
 356 1319 356 1319 311 1104 c 0,55,56
 281 960 281 960 281 845 c 0,57,58
 281 794 281 794 287 749 c 0,59,60
 304 618 304 618 381 478 c 1,61,62
 450 355 450 355 601 260 c 0,63,64
 741 172 741 172 911 142 c 2,65,-1
 918 141 l 1,0,1
EndSplineSet
Validated: 1
EndChar

StartChar: H
Encoding: 72 72 37
Width: 1311
GlyphClass: 2
Flags: W
HStem: 0 21G<171.5 171.5 930.5 930.5> 730 95<361.003 947.095> 1491 20G<380 395 1138.5 1154>
VStem: 193 165<209.313 717.904 835.287 1279.56> 952 164<286.748 722.065 837.7 1322.21>
LayerCount: 2
Fore
SplineSet
150 0 m 1,0,1
 193 298 193 298 193 672 c 0,2,3
 193 726 193 726 192 780 c 0,4,5
 184 1220 184 1220 156 1388 c 1,6,-1
 150 1422 l 1,7,8
 271 1436 271 1436 395 1507 c 2,9,-1
 402 1511 l 1,10,11
 358 1234 358 1234 357 840 c 1,12,13
 485 825 485 825 626 825 c 0,14,15
 635 825 635 825 644 825 c 0,16,17
 858 825 858 825 950 845 c 1,18,19
 942 1221 942 1221 915 1388 c 1,20,-1
 909 1422 l 1,21,22
 1030 1436 1030 1436 1154 1507 c 2,23,-1
 1161 1511 l 1,24,25
 1116 1228 1116 1228 1116 823 c 0,26,27
 1116 806 1116 806 1116 788 c 0,28,29
 1116 307 1116 307 1153 128 c 1,30,-1
 1161 92 l 1,31,32
 1093 84 1093 84 1039 64 c 0,33,34
 952 32 952 32 909 0 c 1,35,36
 952 303 952 303 952 683 c 0,37,38
 952 699 952 699 952 717 c 1,39,40
 855 730 855 730 719 730 c 0,41,42
 682 730 682 730 648 729 c 0,43,44
 407 722 407 722 358 713 c 1,45,46
 362 284 362 284 394 128 c 1,47,-1
 402 92 l 1,48,49
 334 84 334 84 280 64 c 0,50,51
 193 32 193 32 150 0 c 1,0,1
EndSplineSet
Validated: 1
EndChar

StartChar: I
Encoding: 73 73 38
Width: 552
GlyphClass: 2
Flags: W
HStem: 0 21G<171.5 171.5> 1491 20G<379.5 395>
VStem: 193 164<287.199 1278.78>
LayerCount: 2
Fore
SplineSet
150 0 m 17,0,1
 193 300 193 300 193 672 c 0,2,3
 193 727 193 727 192 780 c 0,4,5
 184 1218 184 1218 156 1388 c 24,6,-1
 150 1422 l 9,7,8
 272 1436 272 1436 395 1507 c 0,9,-1
 402 1511 l 1,10,11
 357 1227 357 1227 357 823 c 0,12,13
 357 806 357 806 357 788 c 0,14,15
 357 308 357 308 394 128 c 24,16,-1
 402 92 l 25,17,18
 334 84 334 84 280 64 c 0,19,20
 193 32 193 32 150 0 c 17,0,1
EndSplineSet
Validated: 1
EndChar

StartChar: L
Encoding: 76 76 39
Width: 958
GlyphClass: 2
Flags: W
HStem: 0 21G<171.5 249.5 915 944> 42 95<391.811 818.245> 1491 20G<379.5 395>
VStem: 193 164<288.145 1279.56>
LayerCount: 2
Fore
SplineSet
520 42 m 0,0,1
 349 42 349 42 150 0 c 1,2,3
 193 298 193 298 193 672 c 0,4,5
 193 726 193 726 192 780 c 0,6,7
 184 1220 184 1220 156 1388 c 1,8,-1
 150 1422 l 1,9,10
 271 1436 271 1436 395 1507 c 2,11,-1
 402 1511 l 1,12,13
 357 1229 357 1229 357 823 c 0,14,15
 357 806 357 806 357 788 c 0,16,17
 357 332 357 332 391 145 c 1,18,19
 417 137 417 137 438 137 c 0,20,21
 781 137 781 137 1008 252 c 1,22,23
 984 207 984 207 961 122 c 0,24,25
 947 70 947 70 941 0 c 1,26,-1
 915 8 l 2,27,28
 804 42 804 42 520 42 c 0,0,1
EndSplineSet
Validated: 1
EndChar

StartChar: N
Encoding: 78 78 40
Width: 1292
GlyphClass: 2
Flags: W
HStem: 0 21G<194 203.5 879 912> 1491 20G<335 394 1128 1128.5>
VStem: 217 97<296.78 1080> 1019 97<292.568 1156.59>
LayerCount: 2
Fore
SplineSet
103 1406 m 2,0,-1
 90 1421 l 1,1,2
 241 1439 241 1439 335 1506 c 2,3,-1
 342 1511 l 1,4,5
 446 1148 446 1148 650 810 c 1,6,7
 812 528 812 528 1007 271 c 1,8,9
 1019 472 1019 472 1019 689 c 0,10,11
 1019 704 1019 704 1019 722 c 0,12,13
 1019 1200 1019 1200 996 1383 c 2,14,-1
 991 1421 l 1,15,16
 1035 1429 1035 1429 1064 1447 c 0,17,18
 1115 1479 1115 1479 1141 1511 c 1,19,20
 1116 1228 1116 1228 1116 842 c 0,21,22
 1117 778 1117 778 1117 730 c 0,23,24
 1117 337 1117 337 1138 126 c 2,25,-1
 1142 92 l 1,26,27
 1076 84 1076 84 1020 64 c 0,28,29
 934 33 934 33 890 0 c 1,30,31
 868 122 868 122 512 746 c 1,32,-1
 317 1080 l 1,33,34
 314 975 314 975 314 853 c 0,35,36
 315 770 315 770 315 727 c 0,37,38
 315 331 315 331 336 123 c 1,39,-1
 340 89 l 1,40,41
 268 75 268 75 194 4 c 2,42,-1
 190 0 l 1,43,44
 217 298 217 298 217 691 c 0,45,46
 217 704 217 704 217 719 c 0,47,48
 217 1052 217 1052 204 1263 c 1,49,50
 139 1365 139 1365 103 1406 c 2,0,-1
EndSplineSet
Validated: 1
EndChar

StartChar: O
Encoding: 79 79 41
Width: 1354
VWidth: 0
GlyphClass: 2
Flags: W
HStem: 0 21G<665.5 732.857> 1495 20G<621.951 684.5>
VStem: 120 161<598.777 1002.46> 1074 160<488.015 912.019>
LayerCount: 2
Fore
SplineSet
443 1370 m 1,0,-1
 442 1369 l 1,1,2
 358 1320 358 1320 311 1104 c 0,3,4
 281 965 281 965 281 848 c 0,5,6
 281 796 281 796 287 749 c 0,7,8
 304 618 304 618 381 478 c 1,9,10
 452 352 452 352 601 260 c 0,11,12
 744 172 744 172 911 142 c 1,13,-1
 913 143 l 1,14,15
 1006 195 1006 195 1049 423 c 0,16,17
 1074 554 1074 554 1074 662 c 0,18,19
 1074 714 1074 714 1068 763 c 0,20,21
 1053 889 1053 889 974 1034 c 1,22,23
 903 1163 903 1163 760 1247 c 0,24,25
 616 1331 616 1331 443 1370 c 1,0,-1
701 0 m 1,26,27
 630 19 630 19 521 78 c 0,28,29
 419 134 419 134 331 223 c 0,30,31
 219 336 219 336 174 470 c 1,32,33
 120 621 120 621 120 750 c 0,34,35
 120 753 120 753 120 755 c 0,36,37
 120 897 120 897 182 1050 c 0,38,39
 227 1163 227 1163 308 1257 c 0,40,41
 372 1332 372 1332 431 1372 c 1,42,-1
 653 1515 l 1,43,44
 716 1498 716 1498 834 1434 c 0,45,46
 923 1386 923 1386 1024 1289 c 1,47,48
 1137 1175 1137 1175 1182 1034 c 1,49,50
 1233 885 1233 885 1234 757 c 0,51,52
 1234 751 l 0,53,54
 1234 590 1234 590 1178 459 c 0,55,56
 1124 333 1124 333 1049 258 c 0,57,58
 945 154 945 154 924 140 c 2,59,-1
 701 0 l 1,26,27
EndSplineSet
Validated: 1
EndChar

StartChar: T
Encoding: 84 84 42
Width: 1003
GlyphClass: 2
Flags: W
HStem: 0 21G<392.5 393> 1371 95<139.809 385.265 607.745 850.686> 1491 20G<14 43 950.5 1050>
VStem: 414 164<287.199 1284.96>
LayerCount: 2
Fore
SplineSet
371 0 m 1,0,1
 414 295 414 295 414 671 c 0,2,3
 414 726 414 726 413 780 c 0,4,5
 405 1202 405 1202 380 1371 c 1,6,7
 137 1354 137 1354 -50 1259 c 1,8,9
 -25 1306 -25 1306 -3 1389 c 0,10,11
 11 1442 11 1442 17 1511 c 1,12,-1
 43 1503 l 1,13,14
 163 1466 163 1466 573 1466 c 0,15,16
 848 1466 848 1466 1053 1511 c 1,17,-1
 1050 1504 l 2,18,19
 998 1383 998 1383 988 1259 c 1,20,-1
 967 1273 l 2,21,22
 847 1353 847 1353 613 1370 c 1,23,24
 578 1113 578 1113 578 805 c 0,25,26
 578 797 578 797 578 788 c 0,27,28
 578 308 578 308 615 128 c 1,29,-1
 623 92 l 1,30,31
 547 84 547 84 498 64 c 0,32,33
 415 31 415 31 371 0 c 1,0,1
EndSplineSet
Validated: 1
EndChar

StartChar: V
Encoding: 86 86 43
Width: 1276
GlyphClass: 2
Flags: W
HStem: 0 21G<498.5 522> 1491 20G<232.5 267 1213.5 1272>
VStem: 515 252<82.5037 250.781>
LayerCount: 2
Fore
SplineSet
767 89 m 1,0,1
 646 75 646 75 522 4 c 2,2,-1
 515 0 l 1,3,4
 482 307 482 307 312 760 c 1,5,6
 129 1255 129 1255 0 1421 c 1,7,8
 61 1428 61 1428 122 1449 c 0,9,10
 213 1480 213 1480 252 1511 c 1,11,12
 282 1389 282 1389 471 790 c 0,13,14
 607 359 607 359 660 297 c 1,15,16
 715 376 715 376 874 807 c 0,17,18
 1071 1341 1071 1341 1072 1412 c 2,19,-1
 1072 1425 l 1,20,21
 1217 1454 1217 1454 1272 1507 c 2,22,-1
 1276 1511 l 1,23,24
 1151 1270 1151 1270 966 801 c 0,25,26
 809 403 809 403 771 129 c 0,27,28
 767 100 767 100 767 92 c 2,29,-1
 767 89 l 1,0,1
EndSplineSet
Validated: 1
EndChar

StartChar: W
Encoding: 87 87 44
Width: 1776
GlyphClass: 2
Flags: W
HStem: 0 21G<498.477 521.953 1002.5 1022> 1491 20G<233 268 733 768 1204 1271.84 1712.19 1771.83>
VStem: 514.953 251<81.755 248.438> 1015 251<81.7571 250.789>
LayerCount: 2
Fore
SplineSet
0 1420.55 m 1,0,1
 67 1429 67 1429 121.953 1449 c 0,2,3
 214 1481 214 1481 252 1511 c 1,4,5
 284 1379 284 1379 470.953 790 c 0,6,7
 607 359 607 359 659.953 297 c 1,8,9
 707 366 707 366 833.907 700.26 c 1,10,-1
 812 760 l 1,11,12
 626 1258 626 1258 500.047 1420.55 c 1,13,14
 561 1428 561 1428 622 1449 c 0,15,16
 714 1481 714 1481 752 1511 c 1,17,18
 784 1376 784 1376 923.413 941.384 c 1,19,20
 1070.52 1340.41 1070.52 1340.41 1071.73 1412 c 2,21,-1
 1071.95 1425 l 1,22,23
 1216.64 1453.93 1216.64 1453.93 1271.84 1507 c 2,24,-1
 1276 1511 l 1,25,26
 1132 1233 1132 1233 966.75 803.458 c 1,27,-1
 971 790 l 2,28,29
 1107 359 1107 359 1160 297 c 1,30,31
 1217 380 1217 380 1374 807 c 0,32,33
 1570.5 1340.36 1570.5 1340.36 1571.77 1412 c 2,34,-1
 1572 1425 l 1,35,36
 1716.47 1453.89 1716.47 1453.89 1771.83 1507 c 2,37,-1
 1776 1511 l 1,38,39
 1648.37 1264.26 1648.37 1264.26 1465.83 801 c 0,40,41
 1309 403 1309 403 1271.06 129 c 0,42,43
 1267 100 1267 100 1266 99 c 1,44,-1
 1267 89 l 1,45,46
 1146.31 75.0361 1146.31 75.0361 1022 4 c 2,47,-1
 1015 0 l 1,48,49
 990 236 990 236 880.259 566.466 c 1,50,51
 797 318 797 318 771.016 129 c 0,52,53
 767 100 767 100 765.953 99 c 1,54,-1
 766.953 89 l 1,55,56
 646.255 75.0293 646.255 75.0293 521.953 4 c 2,57,-1
 514.953 0 l 1,58,59
 482 302 482 302 311.953 760 c 0,60,61
 126 1258 126 1258 0 1420.55 c 1,0,1
EndSplineSet
Validated: 1
EndChar

StartChar: bracketleft
Encoding: 91 91 45
Width: 834
GlyphClass: 2
Flags: W
HStem: -306 95<411.904 639.298> 1495 207<598.804 707.078>
VStem: 213 164<235.826 1230.99>
LayerCount: 2
Fore
SplineSet
170 -348 m 1,0,1
 213 -50 213 -50 213 623 c 0,2,3
 213 715 213 715 212 731 c 1,4,5
 212 1230 212 1230 178 1622 c 1,6,-1
 172 1656 l 1,7,8
 293 1670 293 1670 417 1741 c 2,9,-1
 424 1745 l 1,10,11
 498 1702 498 1702 587 1702 c 0,12,13
 679 1703 679 1703 784 1747 c 1,14,-1
 781 1740 l 1,15,16
 713 1617 713 1617 705 1495 c 1,17,-1
 698 1495 l 1,18,19
 647 1499 647 1499 560 1569 c 1,20,21
 447 1662 447 1662 421 1725 c 1,22,23
 377 1439 377 1439 377 774 c 2,24,-1
 377 739 l 2,25,26
 377 -16 377 -16 411 -203 c 1,27,28
 440 -212 440 -212 458 -211 c 0,29,30
 608 -207 608 -207 767 -92 c 1,31,32
 743 -137 743 -137 720 -222 c 0,33,34
 706 -274 706 -274 700 -344 c 1,35,-1
 674 -336 l 2,36,37
 576 -306 576 -306 449 -306 c 0,38,39
 369 -306 369 -306 170 -348 c 1,0,1
EndSplineSet
Validated: 1
EndChar

StartChar: backslash
Encoding: 92 92 46
Width: 1118
GlyphClass: 2
Flags: W
LayerCount: 2
Fore
SplineSet
1118 -127 m 1,0,1
 997.313 -140.964 997.313 -140.964 873 -212 c 2,2,-1
 866 -216 l 1,3,4
 699 213 699 213 438 741 c 1,5,6
 222 1200 222 1200 0 1572 c 1,7,8
 67 1580 67 1580 121.953 1600.45 c 0,9,10
 209 1632 209 1632 251.953 1664.45 c 1,11,12
 375.69 1258.68 375.69 1258.68 594 816 c 0,13,14
 810 378 810 378 1118 -127 c 1,0,1
EndSplineSet
Validated: 1
EndChar

StartChar: bracketright
Encoding: 93 93 47
Width: 834
GlyphClass: 2
Flags: W
HStem: -303 207<126.922 235.196> 1610 95<194.702 422.096>
VStem: 457 164<168.011 1163.17>
LayerCount: 2
Fore
SplineSet
134 1743 m 1,0,-1
 160 1735 l 2,1,2
 258 1705 258 1705 385 1705 c 0,3,4
 465 1705 465 1705 664 1747 c 1,5,6
 621 1449 621 1449 621 776 c 0,7,8
 621 684 621 684 622 668 c 1,9,10
 622 169 622 169 656 -223 c 1,11,-1
 662 -257 l 1,12,13
 541 -271 541 -271 417 -342 c 2,14,-1
 410 -346 l 1,15,16
 336 -303 336 -303 247 -303 c 0,17,18
 155 -304 155 -304 50 -348 c 1,19,-1
 53 -341 l 1,20,21
 121 -218 121 -218 129 -96 c 1,22,-1
 136 -96 l 1,23,24
 187 -100 187 -100 274 -170 c 1,25,26
 387 -263 387 -263 413 -326 c 1,27,28
 457 -40 457 -40 457 625 c 2,29,-1
 457 660 l 2,30,31
 457 1415 457 1415 423 1602 c 1,32,33
 394 1611 394 1611 376 1610 c 0,34,35
 226 1606 226 1606 67 1491 c 1,36,37
 91 1536 91 1536 114 1621 c 0,38,39
 128 1673 128 1673 134 1743 c 1,0,-1
EndSplineSet
Validated: 1
EndChar

StartChar: asciicircum
Encoding: 94 94 48
Width: 1229
GlyphClass: 2
Flags: W
HStem: 866 645
LayerCount: 2
Fore
SplineSet
712 1511 m 1,0,1
 712 1510 l 0,2,3
 712 1449 712 1449 860 1226 c 1,4,5
 994 1046 994 1046 1149 960 c 1,6,7
 1085 952 1085 952 1027 932 c 0,8,9
 938 902 938 902 897 870 c 1,10,11
 862 974 862 974 696 1170 c 0,12,13
 589 1297 589 1297 566 1302 c 1,14,15
 403 1163 403 1163 290 976 c 0,16,-1
 284 962 l 2,17,-1
 284 948 l 1,18,19
 136 918 136 918 84 866 c 2,20,-1
 80 862 l 1,21,22
 99 892 99 892 104 898 c 0,23,24
 253 1065 253 1065 336 1174 c 0,25,26
 460 1337 460 1337 460 1419 c 2,27,-1
 460 1422 l 1,28,29
 581 1436 581 1436 706 1507 c 2,30,-1
 712 1511 l 1,0,1
EndSplineSet
Validated: 1
EndChar

StartChar: underscore
Encoding: 95 95 49
Width: 1131
GlyphClass: 2
Flags: W
HStem: 0 21G<91.5 180.5 961 991> 41 163<162.316 985.609>
LayerCount: 2
Fore
SplineSet
80 0 m 9,0,1
 103 43 103 43 127 130 c 0,2,3
 141 181 141 181 147 252 c 25,4,-1
 173 244 l 24,5,6
 329 204 329 204 630 204 c 0,7,8
 832 204 832 204 1051 252 c 1,9,-1
 1048 245 l 0,10,11
 996 122 996 122 986 0 c 17,12,-1
 961 6 l 16,13,14
 755 41 755 41 533 41 c 0,15,16
 516 41 516 41 498 41 c 0,17,18
 281 41 281 41 80 0 c 9,0,1
EndSplineSet
Validated: 1
EndChar

StartChar: grave
Encoding: 96 96 50
Width: 770
GlyphClass: 2
Flags: W
HStem: 1128 384
VStem: 156 464
LayerCount: 2
Fore
SplineSet
620 1221 m 9,0,1
 548 1209 548 1209 495 1178 c 0,2,3
 410 1129 410 1129 406 1128 c 25,4,5
 406 1129 406 1129 401 1145 c 0,6,7
 384 1199 384 1199 341 1264 c 0,8,9
 326 1287 326 1287 315 1297 c 0,10,11
 267 1342 267 1342 217 1375 c 0,12,13
 159 1413 159 1413 156 1415 c 0,14,15
 150 1418 l 1,16,-1
 158 1419 l 0,17,18
 285 1455 285 1455 362 1512 c 17,19,-1
 367 1501 l 24,20,21
 405 1409 405 1409 423 1384 c 0,22,23
 446 1352 446 1352 455 1342 c 0,24,25
 492 1302 492 1302 544 1264 c 0,26,27
 581 1237 581 1237 620 1221 c 9,0,1
EndSplineSet
Validated: 1
EndChar

StartChar: a
Encoding: 97 97 51
Width: 1088
GlyphClass: 2
Flags: W
HStem: 0 21G<496.5 555.435 755 757.5> 1110 20G<453.887 514.5>
VStem: 100 160<343.352 542.532> 774 169<92.5625 736.112>
LayerCount: 2
Fore
SplineSet
123 840 m 17,0,1
 149 900 149 900 211 950 c 0,2,-1
 258 988 l 2,3,-1
 486 1130 l 1,4,5
 543 1115 543 1115 627 1072 c 0,6,7
 707 1031 707 1031 777 963 c 0,8,9
 865 877 865 877 901 778 c 1,10,11
 940 682 940 682 943 568 c 0,12,13
 950 284 950 284 980 128 c 24,14,-1
 988 92 l 25,15,16
 920 84 920 84 866 64 c 0,17,18
 779 32 779 32 736 0 c 17,19,20
 774 270 774 270 774 537 c 0,21,22
 774 550 774 550 774 564 c 0,23,24
 774 678 774 678 738 738 c 1,25,26
 675 831 675 831 564 883 c 0,27,28
 464 930 464 930 270 974 c 1,29,-1
 268 973 l 1,30,31
 252 948 252 948 252 886 c 0,32,33
 252 847 252 847 265 784 c 9,34,-1
 123 840 l 17,0,1
525 0 m 1,35,36
 468 20 468 20 344 84 c 0,37,38
 251 132 251 132 164 228 c 1,39,40
 100 328 100 328 100 413 c 0,41,42
 100 415 100 415 100 418 c 1,43,44
 115 539 115 539 212 614 c 0,45,46
 376 740 376 740 623 742 c 1,47,48
 318 630 318 630 270 492 c 0,49,50
 260 463 260 463 260 436 c 0,51,52
 260 390 260 390 292 354 c 1,53,54
 378 267 378 267 437 238 c 0,55,56
 618 149 618 149 735 138 c 1,57,-1
 525 0 l 1,35,36
EndSplineSet
Validated: 1
EndChar

StartChar: b
Encoding: 98 98 52
Width: 1173
GlyphClass: 2
Flags: W
HStem: 0 21G<622 685.113> 1109 20G<585.496 640.5> 1491 20G<380.5 382>
VStem: 193 161<395.947 1418.44> 951 123<338.022 687.25>
LayerCount: 2
Fore
SplineSet
862 147 m 1,0,1
 918 243 918 243 935 336 c 0,2,3
 951 424 951 424 951 498 c 0,4,5
 951 533 951 533 943 574 c 0,6,7
 923 676 923 676 869 753 c 1,8,9
 812 841 812 841 701 894 c 0,10,11
 592 946 592 946 404 990 c 1,12,-1
 616 1129 l 1,13,14
 665 1116 665 1116 759 1068 c 0,15,16
 829 1032 829 1032 909 960 c 1,17,18
 997 874 997 874 1033 769 c 1,19,20
 1074 657 1074 657 1074 561 c 2,21,-1
 1074 557 l 2,22,23
 1074 448 1074 448 1030 338 c 0,24,25
 983 220 983 220 916 172 c 1,26,-1
 881 142 l 1,27,-1
 653 0 l 1,28,29
 591 16 591 16 511 58 c 0,30,31
 418 108 418 108 362 167 c 0,32,33
 267 268 267 268 227 342 c 1,34,35
 193 416 193 416 193 516 c 0,36,37
 193 541 193 541 195 562 c 0,38,39
 204 657 204 657 204 867 c 0,40,41
 204 923 204 923 203 968 c 0,42,43
 198 1204 198 1204 158 1383 c 2,44,-1
 150 1419 l 1,45,46
 218 1427 218 1427 272 1447 c 0,47,48
 359 1479 359 1479 402 1511 c 1,49,50
 362 1293 362 1293 357 962 c 0,51,52
 354 753 354 753 354 647 c 0,53,54
 355 587 355 587 355 568 c 0,55,56
 355 452 355 452 401 392 c 1,57,58
 454 309 454 309 579 248 c 0,59,60
 693 192 693 192 862 147 c 1,0,1
EndSplineSet
Validated: 1
EndChar

StartChar: c
Encoding: 99 99 53
Width: 1020
GlyphClass: 2
Flags: W
HStem: -4 21G<528 590.113> 1111 20G<489.496 544.5>
VStem: 100 127<449.219 771.073>
LayerCount: 2
Fore
SplineSet
558 -4 m 1,0,1
 498 11 498 11 416 54 c 0,2,3
 335 97 335 97 266 163 c 0,4,5
 178 248 178 248 143 348 c 1,6,7
 100 452 100 452 100 558 c 0,8,-1
 100 562 l 0,9,10
 113 701 113 701 149 783 c 0,11,12
 187 870 187 870 248 938 c 0,13,14
 274 967 274 967 308 992 c 1,15,-1
 520 1131 l 1,16,17
 569 1118 569 1118 663 1070 c 0,18,19
 733 1034 733 1034 812 962 c 1,20,21
 836 940 836 940 877 883 c 1,22,-1
 716 774 l 1,23,24
 667 852 667 852 604 896 c 0,25,26
 532 946 532 946 314 984 c 1,27,-1
 313 983 l 1,28,29
 284 929 284 929 251 802 c 0,30,31
 227 711 227 711 227 632 c 0,32,33
 227 600 227 600 232 567 c 0,34,35
 245 480 245 480 306 388 c 1,36,37
 369 293 369 293 479 243 c 0,38,39
 582 196 582 196 774 152 c 1,40,-1
 775 153 l 1,41,42
 791 178 791 178 791 240 c 0,43,44
 791 279 791 279 778 342 c 9,45,-1
 920 286 l 17,46,47
 893 225 893 225 832 176 c 0,48,49
 786 139 786 139 786 138 c 2,50,-1
 558 -4 l 1,0,1
EndSplineSet
Validated: 1
EndChar

StartChar: d
Encoding: 100 100 54
Width: 1142
GlyphClass: 2
Flags: W
HStem: 0 21G<528.5 590 745.5 748> 1110 20G<488.358 549> 1491 20G<971.5 986>
VStem: 100 127<452.789 775.358> 785 165<229.625 765.887 996 1336.55>
LayerCount: 2
Fore
SplineSet
782 683 m 1,0,1
 732 818 732 818 604 900 c 0,2,3
 523 952 523 952 314 988 c 1,4,-1
 313 987 l 1,5,6
 285 934 285 934 251 806 c 0,7,8
 227 716 227 716 227 636 c 0,9,10
 227 604 227 604 232 571 c 0,11,12
 245 486 245 486 306 392 c 0,13,14
 366 299 366 299 479 247 c 0,15,16
 578 201 578 201 761 159 c 1,17,18
 783 365 783 365 785 622 c 1,19,20
 784 653 784 653 782 683 c 1,0,1
993 1511 m 1,21,22
 950 1211 950 1211 950 839 c 0,23,24
 950 802 950 802 951 731 c 0,25,26
 957 306 957 306 987 123 c 1,27,-1
 993 89 l 1,28,29
 872 75 872 75 748 4 c 2,30,-1
 741 0 l 1,31,32
 750 60 750 60 758 125 c 1,33,-1
 558 0 l 1,34,35
 499 15 499 15 416 58 c 0,36,37
 322 107 322 107 266 167 c 0,38,39
 186 253 186 253 143 352 c 1,40,41
 100 442 100 442 100 562 c 0,42,43
 100 566 100 566 100 566 c 0,44,45
 105 682 105 682 149 787 c 0,46,47
 180 861 180 861 248 942 c 0,48,49
 269 967 269 967 308 996 c 1,50,-1
 520 1130 l 1,51,52
 578 1119 578 1119 663 1074 c 0,53,54
 718 1045 718 1045 778 996 c 1,55,56
 770 1186 770 1186 747 1388 c 1,57,-1
 743 1407 l 1,58,-1
 741 1419 l 1,59,-1
 741 1422 l 1,60,61
 861 1436 861 1436 986 1507 c 2,62,-1
 993 1511 l 1,21,22
EndSplineSet
Validated: 1
EndChar

StartChar: e
Encoding: 101 101 55
Width: 1043
GlyphClass: 2
Flags: W
HStem: -4 21G<528.5 590.113> 1110 20G<487.565 544.5>
VStem: 100 127<448.605 772.01> 799 144<590.368 785.695>
LayerCount: 2
Fore
SplineSet
558 -4 m 1,0,1
 499 10 499 10 416 54.5 c 128,-1,2
 333 99 333 99 266 163 c 0,3,4
 178 248 178 248 143 348 c 1,5,6
 109 431 109 431 100 558 c 0,7,-1
 100 562 l 0,8,9
 100 669 100 669 149 783 c 0,10,11
 186 870 186 870 248 938 c 0,12,13
 274 966 274 966 308 992 c 1,14,-1
 518 1130 l 1,15,16
 571 1112 571 1112 699 1046 c 0,17,18
 792 998 792 998 879 902 c 1,19,20
 943 802 943 802 943 717 c 0,21,22
 943 715 943 715 943 712 c 1,23,24
 928 590 928 590 831 516 c 0,25,26
 666 390 666 390 420 388 c 1,27,28
 730 494 730 494 787 633 c 0,29,30
 799 662 799 662 799 690 c 0,31,32
 799 691 799 691 799 692 c 128,-1,33
 799 693 799 693 799 694 c 0,34,35
 799 736 799 736 764 776 c 1,36,37
 709 841 709 841 606 892 c 0,38,39
 430 979 430 979 320 990 c 1,40,41
 282 928 282 928 251 802 c 0,42,43
 227 704 227 704 227 632 c 0,44,45
 227 598 227 598 232 567 c 0,46,47
 246 478 246 478 306 388 c 1,48,49
 368 296 368 296 479 243 c 0,50,51
 575 197 575 197 774 152 c 1,52,-1
 775 153 l 1,53,54
 791 178 791 178 791 240 c 0,55,56
 791 279 791 279 778 342 c 9,57,-1
 920 286 l 17,58,59
 893 225 893 225 832 176 c 0,60,61
 786 139 786 139 786 138 c 2,62,-1
 558 -4 l 1,0,1
EndSplineSet
Validated: 1
EndChar

StartChar: f
Encoding: 102 102 56
Width: 936
GlyphClass: 2
Flags: W
HStem: 0 21G<157 173> 763 96<362 715.75> 1490 20G<517.5 573>
VStem: 172 190<870.775 1066.02> 196 165<209.555 757>
LayerCount: 2
Fore
SplineSet
150 0 m 1,0,1
 196 285 196 285 196 585 c 0,2,3
 196 651 196 651 194 705 c 0,4,5
 193 732 193 732 193 757 c 1,6,7
 120 751 120 751 55 739 c 1,8,9
 71 766 71 766 85 815 c 0,10,11
 94 847 94 847 98 886 c 1,12,-1
 114 881 l 2,13,14
 136 874 136 874 186 869 c 1,15,16
 180 926 180 926 172 958 c 1,17,18
 172 963 172 963 211 1053 c 0,19,20
 258 1161 258 1161 334 1260 c 0,21,22
 464 1429 464 1429 571 1510 c 1,23,24
 575 1508 575 1508 587 1505 c 0,25,26
 645 1488 645 1488 713 1452 c 0,27,28
 790 1411 790 1411 862 1343 c 0,29,30
 949 1261 949 1261 986 1158 c 1,31,-1
 805 1084 l 1,32,33
 740 1208 740 1208 650 1263 c 0,34,35
 537 1331 537 1331 441 1342 c 1,36,37
 408 1267 408 1267 382 1107 c 0,38,39
 365 1001 365 1001 362 860 c 1,40,41
 423 859 423 859 483 859 c 0,42,43
 623 859 623 859 757 886 c 1,44,-1
 755 881 l 2,45,46
 721 796 721 796 716 739 c 1,47,-1
 700 742 l 1,48,49
 634 756 634 756 417 763 c 0,50,51
 385 764 385 764 361 764 c 1,52,53
 361 750 361 750 361 736 c 2,54,-1
 361 711 l 2,55,56
 361 433 361 433 396 123 c 1,57,-1
 402 89 l 1,58,59
 281 75 281 75 157 4 c 2,60,-1
 150 0 l 1,0,1
EndSplineSet
Validated: 1
EndChar

StartChar: g
Encoding: 103 103 57
Width: 1153
GlyphClass: 2
Flags: W
HStem: -375 21G<444 522.049> 0 21G<534.5 588.504> 1109 20G<488.887 555.5>
VStem: 100 123<441.75 790.978> 817 187<56.4194 684.993> 820 159<160.062 733.195>
LayerCount: 2
Fore
SplineSet
1003 157 m 16,0,1
 977 92 977 92 973 83 c 0,2,3
 935 -3 935 -3 836 -117 c 0,4,5
 770 -193 770 -193 713 -232 c 1,6,-1
 491 -375 l 1,7,8
 397 -339 397 -339 384 -332 c 0,9,10
 330 -303 330 -303 249 -228 c 1,11,12
 217 -196 217 -196 191 -162 c 1,13,-1
 372 -72 l 1,14,15
 373 -72 373 -72 460 -154 c 0,16,17
 541 -230 541 -230 679 -230 c 0,18,19
 689 -230 689 -230 700 -230 c 1,20,-1
 702 -229 l 1,21,22
 766 -178 766 -178 802 29 c 0,23,24
 816 111 816 111 817 167 c 0,25,26
 820 377 820 377 820 451 c 0,27,28
 820 468 820 468 820 480 c 0,29,30
 819 541 819 541 819 561 c 0,31,32
 819 677 819 677 773 737 c 1,33,34
 709 832 709 832 600 882 c 0,35,36
 496 930 496 930 312 982 c 1,37,38
 256 886 256 886 239 793 c 0,39,40
 223 705 223 705 223 631 c 0,41,42
 223 596 223 596 231 555 c 0,43,44
 251 453 251 453 305 375 c 1,45,46
 362 289 362 289 473 235 c 0,47,48
 581 183 581 183 770 139 c 1,49,-1
 558 0 l 1,50,51
 511 12 511 12 415 61 c 0,52,53
 346 96 346 96 265 169 c 1,54,55
 177 255 177 255 141 360 c 1,56,57
 100 472 100 472 100 568 c 2,58,-1
 100 572 l 2,59,60
 100 681 100 681 144 791 c 0,61,62
 191 909 191 909 258 957 c 1,63,-1
 293 987 l 1,64,-1
 521 1129 l 1,65,66
 590 1111 590 1111 663 1070 c 0,67,68
 728 1033 728 1033 812 962 c 0,69,70
 940 854 940 854 976 780 c 1,71,72
 978 575 978 575 979 567 c 0,73,74
 986 304 986 304 1003 164 c 0,75,76
 1004 162 1004 162 1004 160 c 25,77,78
 1004 159 1004 159 1003 157 c 16,0,1
EndSplineSet
Validated: 1
EndChar

StartChar: h
Encoding: 104 104 58
Width: 1180
GlyphClass: 2
Flags: W
HStem: 0 21G<171.5 171.5 847.5 849.5> 1110 20G<545.794 606.5> 1491 20G<384.5 395>
VStem: 193 164<287.199 973 994 1279.17> 867 168<92.5625 736.143>
LayerCount: 2
Fore
SplineSet
150 0 m 1,0,1
 193 300 193 300 193 672 c 0,2,3
 193 726 193 726 192 780 c 0,4,5
 184 1219 184 1219 156 1388 c 1,6,-1
 150 1422 l 1,7,8
 270 1436 270 1436 395 1507 c 2,9,-1
 402 1511 l 1,10,11
 367 1289 367 1289 359 994 c 1,12,-1
 578 1130 l 1,13,14
 635 1115 635 1115 719 1072 c 0,15,16
 797 1031 797 1031 869 963 c 0,17,18
 957 879 957 879 993 778 c 1,19,20
 1032 682 1032 682 1035 568 c 0,21,22
 1044 277 1044 277 1072 128 c 1,23,-1
 1080 92 l 1,24,25
 1013 84 1013 84 958 64 c 0,26,27
 871 32 871 32 828 0 c 1,28,29
 867 262 867 262 867 507 c 0,30,31
 866 539 866 539 866 564 c 0,32,33
 866 679 866 679 830 738 c 1,34,35
 770 826 770 826 656 883 c 0,36,37
 556 933 556 933 360 973 c 1,38,-1
 359 973 l 1,39,40
 357 900 357 900 357 823 c 2,41,-1
 357 788 l 2,42,43
 357 308 357 308 394 128 c 1,44,-1
 402 92 l 1,45,46
 334 84 334 84 280 64 c 0,47,48
 193 32 193 32 150 0 c 1,0,1
EndSplineSet
Validated: 1
EndChar

StartChar: i
Encoding: 105 105 59
Width: 574
GlyphClass: 2
Flags: W
HStem: 0 21G<186 188.5> 1110 20G<394 412>
VStem: 169 239<1282.49 1484.67> 205 164<114.5 1040.75>
LayerCount: 2
Fore
SplineSet
150 1184 m 17,0,1
 169 1268 169 1268 169 1356 c 0,2,3
 169 1410 169 1410 162 1464 c 0,4,-1
 156 1485 l 9,5,6
 287 1499 287 1499 417 1574 c 0,7,-1
 424 1578 l 9,8,9
 408 1520 408 1520 408 1415 c 0,10,11
 408 1360 408 1360 418 1280 c 9,12,13
 346 1272 346 1272 280 1248 c 0,14,15
 193 1216 193 1216 150 1184 c 17,0,1
167 0 m 1,16,17
 205 300 205 300 205 498 c 0,18,19
 205 597 205 597 204 606 c 0,20,21
 202 839 202 839 172 1025 c 1,22,-1
 167 1041 l 1,23,24
 288 1055 288 1055 412 1126 c 2,25,-1
 419 1130 l 1,26,27
 369 959 369 959 369 649 c 2,28,-1
 369 614 l 2,29,30
 369 333 369 333 411 128 c 1,31,-1
 419 92 l 1,32,33
 351 84 351 84 297 64 c 0,34,35
 210 32 210 32 167 0 c 1,16,17
EndSplineSet
Validated: 1
EndChar

StartChar: j
Encoding: 106 106 60
Width: 574
GlyphClass: 2
Flags: W
HStem: 1110 20G<395 411>
VStem: 169 239<427.695 543.094 1282.49 1484.67> 207 165<174.215 920.445>
LayerCount: 2
Fore
SplineSet
150 1184 m 17,0,1
 169 1268 169 1268 169 1356 c 0,2,3
 169 1410 169 1410 162 1464 c 0,4,-1
 156 1485 l 9,5,6
 287 1499 287 1499 417 1574 c 0,7,-1
 424 1578 l 9,8,9
 408 1520 408 1520 408 1415 c 0,10,11
 408 1360 408 1360 418 1280 c 9,12,13
 346 1272 346 1272 280 1248 c 0,14,15
 193 1216 193 1216 150 1184 c 17,0,1
-12 -369 m 17,16,17
 124 -187 124 -187 186 23 c 0,18,19
 207 94 207 94 207 394 c 0,20,21
 207 406 207 406 207 419 c 0,22,23
 207 697 207 697 172 1007 c 1,24,-1
 166 1041 l 1,25,26
 287 1055 287 1055 411 1126 c 2,27,-1
 418 1130 l 1,28,29
 372 845 372 845 372 545 c 0,30,31
 372 484 372 484 374 425 c 0,32,33
 378 242 378 242 396 172 c 1,34,35
 396 167 396 167 357 77 c 0,36,37
 315 -19 315 -19 234 -130 c 0,38,39
 105 -306 105 -306 -1 -372 c 9,40,-1
 -12 -369 l 17,16,17
EndSplineSet
Validated: 1
EndChar

StartChar: k
Encoding: 107 107 61
Width: 1045
GlyphClass: 2
Flags: W
HStem: 0 21G<171.5 171.5 720.5 800> 1110 20G<816 840> 1491 20G<379.5 395>
VStem: 192 165<174.445 494.152 617 1279.17>
LayerCount: 2
Fore
SplineSet
150 0 m 1,0,1
 193 300 193 300 193 672 c 0,2,3
 193 726 193 726 192 780 c 0,4,5
 184 1219 184 1219 156 1388 c 1,6,-1
 150 1422 l 1,7,8
 270 1436 270 1436 395 1507 c 2,9,-1
 402 1511 l 1,10,11
 357 1227 357 1227 357 823 c 2,12,-1
 357 788 l 2,13,14
 357 697 357 697 358 617 c 1,15,16
 430 681 430 681 621 885 c 0,17,18
 747 1019 747 1019 816 1116 c 1,19,-1
 826 1130 l 1,20,21
 854 1103 854 1103 882 1084 c 0,22,23
 925 1055 925 1055 953 1045 c 1,24,25
 855 975 855 975 686 814 c 1,26,-1
 586 715 l 1,27,28
 719 397 719 397 1045 85 c 1,29,30
 924 71 924 71 800 0 c 2,31,-1
 793 -4 l 1,32,33
 648 359 648 359 467 584 c 1,34,35
 392 492 392 492 364 428 c 1,36,37
 373 230 373 230 394 128 c 1,38,-1
 402 92 l 1,39,40
 334 84 334 84 280 64 c 0,41,42
 193 32 193 32 150 0 c 1,0,1
EndSplineSet
Validated: 1
EndChar

StartChar: l
Encoding: 108 108 62
Width: 552
GlyphClass: 2
Flags: W
HStem: 0 21G<171.5 171.5> 1491 20G<379.5 395>
VStem: 193 164<287.199 1278.78>
LayerCount: 2
Fore
SplineSet
150 0 m 17,0,1
 193 300 193 300 193 672 c 0,2,3
 193 727 193 727 192 780 c 0,4,5
 184 1218 184 1218 156 1388 c 24,6,-1
 150 1422 l 9,7,8
 272 1436 272 1436 395 1507 c 0,9,-1
 402 1511 l 1,10,11
 357 1227 357 1227 357 823 c 0,12,13
 357 806 357 806 357 788 c 0,14,15
 357 308 357 308 394 128 c 24,16,-1
 402 92 l 25,17,18
 334 84 334 84 280 64 c 0,19,20
 193 32 193 32 150 0 c 17,0,1
EndSplineSet
Validated: 1
EndChar

StartChar: m
Encoding: 109 109 63
Width: 1858
GlyphClass: 2
Flags: W
HStem: 0 21G<169 171.5 847.5 849.5 1525.5 1527.5> 1110 20G<392 395 545.794 606.5 1209.65 1284.5>
VStem: 188 164<114.5 973> 867 168<92.5625 736.143> 1545 168<92.5625 736.143>
LayerCount: 2
Fore
SplineSet
150 0 m 1,0,1
 188 300 188 300 188 498 c 0,2,3
 188 597 188 597 187 606 c 0,4,5
 185 839 185 839 155 1025 c 1,6,-1
 150 1041 l 1,7,8
 271 1055 271 1055 395 1126 c 2,9,-1
 402 1130 l 1,10,11
 382 1071 382 1071 359 994 c 1,12,-1
 578 1130 l 1,13,14
 635 1115 635 1115 719 1072 c 0,15,16
 798 1031 798 1031 869 963 c 1,17,-1
 1256 1130 l 1,18,19
 1313 1115 1313 1115 1397 1072 c 0,20,21
 1475 1031 1475 1031 1547 963 c 0,22,23
 1635 879 1635 879 1671 778 c 1,24,25
 1710 682 1710 682 1713 568 c 0,26,27
 1722 277 1722 277 1750 128 c 1,28,-1
 1758 92 l 1,29,30
 1691 84 1691 84 1636 64 c 0,31,32
 1549 32 1549 32 1506 0 c 1,33,34
 1545 262 1545 262 1545 507 c 0,35,36
 1544 539 1544 539 1544 564 c 0,37,38
 1544 679 1544 679 1508 738 c 1,39,40
 1447 829 1447 829 1334 883 c 0,41,42
 1154 969 1154 969 1014 969 c 0,43,44
 944 969 944 969 884 948 c 1,45,46
 960 869 960 869 993 778 c 1,47,48
 1032 682 1032 682 1035 568 c 0,49,50
 1044 277 1044 277 1072 128 c 1,51,-1
 1080 92 l 1,52,53
 1013 84 1013 84 958 64 c 0,54,55
 871 32 871 32 828 0 c 1,56,57
 867 262 867 262 867 507 c 0,58,59
 866 539 866 539 866 564 c 0,60,61
 866 679 866 679 830 738 c 1,62,63
 770 826 770 826 656 883 c 0,64,65
 556 933 556 933 360 973 c 1,66,-1
 359 973 l 1,67,68
 352 900 352 900 352 649 c 2,69,-1
 352 614 l 2,70,71
 352 333 352 333 394 128 c 1,72,-1
 402 92 l 1,73,74
 334 84 334 84 280 64 c 0,75,76
 193 32 193 32 150 0 c 1,0,1
EndSplineSet
Validated: 1
EndChar

StartChar: n
Encoding: 110 110 64
Width: 1180
GlyphClass: 2
Flags: W
HStem: 0 21G<169 171.5 847.5 849.5> 1110 20G<392 395 545.794 606.5>
VStem: 188 164<114.5 973> 867 168<92.5625 736.143>
LayerCount: 2
Fore
SplineSet
150 0 m 1,0,1
 188 300 188 300 188 498 c 0,2,3
 188 597 188 597 187 606 c 0,4,5
 185 839 185 839 155 1025 c 1,6,-1
 150 1041 l 1,7,8
 271 1055 271 1055 395 1126 c 2,9,-1
 402 1130 l 1,10,11
 382 1071 382 1071 359 994 c 1,12,-1
 578 1130 l 1,13,14
 635 1115 635 1115 719 1072 c 0,15,16
 797 1031 797 1031 869 963 c 0,17,18
 957 879 957 879 993 778 c 1,19,20
 1032 682 1032 682 1035 568 c 0,21,22
 1044 277 1044 277 1072 128 c 1,23,-1
 1080 92 l 1,24,25
 1013 84 1013 84 958 64 c 0,26,27
 871 32 871 32 828 0 c 1,28,29
 867 262 867 262 867 507 c 0,30,31
 866 539 866 539 866 564 c 0,32,33
 866 679 866 679 830 738 c 1,34,35
 770 826 770 826 656 883 c 0,36,37
 556 933 556 933 360 973 c 1,38,-1
 359 973 l 1,39,40
 352 900 352 900 352 649 c 2,41,-1
 352 614 l 2,42,43
 352 333 352 333 394 128 c 1,44,-1
 402 92 l 1,45,46
 334 84 334 84 280 64 c 0,47,48
 193 32 193 32 150 0 c 1,0,1
EndSplineSet
Validated: 1
EndChar

StartChar: o
Encoding: 111 111 65
Width: 1077
GlyphClass: 2
Flags: W
HStem: -4 21G<528 590.113> 1111 20G<489.496 544.5>
VStem: 100 127<448.22 771.073> 852 126<342.088 692.566>
LayerCount: 2
Fore
SplineSet
314 984 m 1,0,-1
 313 983 l 1,1,2
 284 929 284 929 251 802 c 0,3,4
 227 711 227 711 227 632 c 0,5,6
 227 601 227 601 232 567 c 0,7,8
 245 479 245 479 306 388 c 1,9,10
 369 293 369 293 479 243 c 0,11,12
 582 196 582 196 774 152 c 1,13,-1
 775 153 l 1,14,15
 799 207 799 207 832 351 c 0,16,17
 852 438 852 438 852 509 c 0,18,19
 852 547 852 547 847 576 c 0,20,21
 832 664 832 664 773 755 c 1,22,23
 725 829 725 829 600 899 c 0,24,25
 502 954 502 954 314 984 c 1,0,-1
558 -4 m 1,26,27
 498 11 498 11 416 54 c 0,28,29
 335 97 335 97 266 163 c 0,30,31
 178 248 178 248 143 348 c 1,32,33
 100 450 100 450 100 558 c 0,34,35
 100 561 100 561 100 562 c 0,36,37
 100 669 100 669 149 783 c 0,38,39
 188 874 188 874 248 938 c 0,40,41
 276 968 276 968 308 992 c 1,42,-1
 520 1131 l 1,43,44
 569 1118 569 1118 663 1070 c 0,45,46
 733 1034 733 1034 812 962 c 1,47,48
 901 876 901 876 937 771 c 1,49,50
 977 659 977 659 978 563 c 0,51,-1
 978 559 l 0,52,53
 978 421 978 421 934 340 c 0,54,55
 866 215 866 215 820 174 c 0,56,57
 795 152 795 152 786 138 c 2,58,-1
 558 -4 l 1,26,27
EndSplineSet
Validated: 1
EndChar

StartChar: p
Encoding: 112 112 66
Width: 1142
GlyphClass: 2
Flags: W
HStem: -381 21G<157 171.5> 0 21G<594 654.642> 1110 20G<395 397.5 552.742 614.5>
VStem: 193 172<-216.545 134 447 905.625> 916 127<354.927 677.211>
LayerCount: 2
Fore
SplineSet
361 447 m 1,0,1
 412 310 412 310 539 230 c 0,2,3
 620 178 620 178 829 142 c 1,4,-1
 830 143 l 1,5,6
 859 197 859 197 892 324 c 0,7,8
 916 415 916 415 916 494 c 0,9,10
 916 527 916 527 911 559 c 0,11,12
 897 647 897 647 837 738 c 0,13,14
 776 831 776 831 664 883 c 0,15,16
 566 929 566 929 381 971 c 1,17,18
 360 765 360 765 357 508 c 1,19,20
 359 477 359 477 361 447 c 1,0,1
150 -381 m 1,21,22
 193 -81 193 -81 193 291 c 0,23,24
 193 345 193 345 192 399 c 0,25,26
 184 838 184 838 156 1007 c 1,27,-1
 150 1041 l 1,28,29
 270 1055 270 1055 395 1126 c 2,30,-1
 402 1130 l 1,31,32
 393 1070 393 1070 385 1006 c 1,33,-1
 585 1130 l 1,34,35
 644 1115 644 1115 727 1072 c 0,36,37
 819 1024 819 1024 876 963 c 0,38,39
 957 876 957 876 1000 778 c 1,40,41
 1043 688 1043 688 1043 568 c 0,42,43
 1043 564 1043 564 1043 564 c 0,44,45
 1028 424 1028 424 994 343 c 0,46,47
 969 280 969 280 895 188 c 0,48,49
 876 165 876 165 835 134 c 1,50,-1
 623 0 l 1,51,52
 565 11 565 11 480 56 c 0,53,54
 425 85 425 85 365 134 c 1,55,56
 373 -56 373 -56 396 -258 c 1,57,-1
 399 -277 l 1,58,-1
 402 -289 l 1,59,-1
 402 -292 l 1,60,61
 281 -306 281 -306 157 -377 c 2,62,-1
 150 -381 l 1,21,22
EndSplineSet
Validated: 1
EndChar

StartChar: q
Encoding: 113 113 67
Width: 1173
GlyphClass: 2
Flags: W
HStem: -382 21G<792 800> 0 21G<534.5 588.504> 1109 20G<488.887 549>
VStem: 100 123<441.75 790.978> 820 151<-108.776 733.195>
LayerCount: 2
Fore
SplineSet
772 -382 m 1,0,1
 812 -162 812 -162 817 167 c 0,2,3
 820 353 820 353 820 430 c 0,4,5
 820 447 820 447 820 462 c 0,6,7
 819 532 819 532 819 561 c 0,8,9
 819 677 819 677 773 737 c 1,10,11
 709 832 709 832 600 882 c 0,12,13
 498 929 498 929 312 982 c 1,14,15
 256 885 256 885 239 793 c 0,16,17
 223 706 223 706 223 631 c 0,18,19
 223 596 223 596 231 555 c 0,20,21
 251 453 251 453 305 375 c 1,22,23
 361 289 361 289 473 235 c 0,24,25
 580 183 580 183 770 139 c 1,26,-1
 558 0 l 1,27,28
 511 12 511 12 415 61 c 0,29,30
 346 96 346 96 265 169 c 1,31,32
 177 255 177 255 141 360 c 1,33,34
 100 472 100 472 100 568 c 2,35,-1
 100 572 l 2,36,37
 100 681 100 681 144 791 c 0,38,39
 191 909 191 909 258 957 c 1,40,-1
 293 987 l 1,41,-1
 521 1129 l 1,42,43
 577 1115 577 1115 663 1070 c 0,44,45
 757 1021 757 1021 812 962 c 1,46,47
 904 867 904 867 947 787 c 1,48,49
 981 714 981 714 981 613 c 0,50,51
 981 590 981 590 979 567 c 0,52,53
 971 475 971 475 971 243 c 0,54,55
 971 210 971 210 971 161 c 0,56,57
 971 14 971 14 992 -116 c 1,58,59
 1076 -92 1076 -92 1174 -11 c 1,60,61
 1186 -63 1186 -63 1233 -144 c 0,62,63
 1262 -194 1262 -194 1308 -244 c 1,64,65
 1300 -242 1300 -242 1282 -242 c 0,66,67
 1245 -242 1245 -242 1065 -267 c 1,68,69
 1002 -278 1002 -278 897 -317 c 24,70,71
 828 -343 828 -343 772 -382 c 1,0,1
EndSplineSet
Validated: 1
EndChar

StartChar: r
Encoding: 114 114 68
Width: 943
GlyphClass: 2
Flags: W
HStem: 0 21G<169 171> 1110 20G<392 395 545.794 606.5>
VStem: 188 164<114.5 973>
LayerCount: 2
Fore
SplineSet
150 0 m 1,0,1
 188 300 188 300 188 498 c 0,2,3
 188 596 188 596 187 606 c 0,4,5
 185 839 185 839 155 1025 c 1,6,-1
 150 1041 l 1,7,8
 271 1055 271 1055 395 1126 c 2,9,-1
 402 1130 l 1,10,11
 382 1071 382 1071 359 994 c 1,12,-1
 578 1130 l 1,13,14
 635 1115 635 1115 720 1072 c 0,15,16
 797 1032 797 1032 869 963 c 0,17,18
 957 878 957 878 993 778 c 9,19,-1
 812 704 l 17,20,21
 746 824 746 824 657 883 c 0,22,23
 516 976 516 976 402 976 c 0,24,25
 381 976 381 976 360 973 c 1,26,-1
 359 973 l 1,27,28
 352 900 352 900 352 649 c 2,29,-1
 352 614 l 2,30,31
 352 333 352 333 394 128 c 1,32,-1
 402 92 l 1,33,34
 336 84 336 84 276 62 c 0,35,36
 192 30 192 30 150 0 c 1,0,1
EndSplineSet
Validated: 1
EndChar

StartChar: s
Encoding: 115 115 69
Width: 1008
GlyphClass: 2
Flags: W
HStem: 1111 20G<442.496 523>
VStem: 102 111<755.237 876.76> 779 129<274.446 417.239>
LayerCount: 2
Fore
SplineSet
515 -6 m 1,0,-1
 511 -4 l 0,1,2
 502 0 502 0 369 54 c 0,3,4
 255 101 255 101 168 180 c 0,5,6
 123 221 123 221 100 258 c 1,7,-1
 279 370 l 1,8,9
 283 316 283 316 432 243 c 0,10,11
 526 197 526 197 727 152 c 1,12,-1
 728 153 l 1,13,14
 779 240 779 240 779 317 c 0,15,16
 779 327 779 327 778 336 c 0,17,18
 768 424 768 424 659 454 c 0,19,-1
 634 461 l 0,20,21
 587 469 587 469 513 478 c 1,22,23
 239 514 239 514 142 627 c 0,24,25
 107 668 107 668 102 745 c 0,26,27
 102 750 102 750 102 759 c 0,28,29
 106 795 106 795 129 846 c 0,30,31
 147 887 147 887 201 938 c 0,32,33
 251 985 251 985 261 992 c 1,34,-1
 473 1131 l 1,35,36
 573 1090 573 1090 616 1070 c 0,37,38
 752 1006 752 1006 832 913 c 1,39,-1
 657 807 l 1,40,41
 621 850 621 850 557 896 c 0,42,43
 491 943 491 943 267 984 c 1,44,-1
 266 983 l 1,45,46
 229 943 229 943 216 875 c 0,47,48
 213 859 213 859 213 838 c 0,49,50
 213 803 213 803 237 775 c 0,51,52
 281 723 281 723 369 704 c 0,53,54
 447 687 447 687 530 676 c 1,55,56
 832 644 832 644 888 506 c 0,57,-1
 892 498 l 0,58,59
 908 457 908 457 908 407 c 0,60,61
 908 366 908 366 887 316 c 0,62,63
 863 259 863 259 778 174 c 0,64,65
 766 162 766 162 733 140 c 2,66,-1
 515 -6 l 1,0,-1
EndSplineSet
Validated: 1
EndChar

StartChar: t
Encoding: 116 116 70
Width: 602
GlyphClass: 2
Flags: W
HStem: 0 21G<194.5 196.5> 1008 98<-6.75 206 388 610.75> 1110 20G<-9 9 596 650> 1491 20G<412.5 420>
VStem: 218 164<287.199 1006 1106 1421.47>
LayerCount: 2
Fore
SplineSet
175 0 m 1,0,1
 218 300 218 300 218 672 c 0,2,3
 218 736 218 736 217 780 c 0,4,5
 213 954 213 954 211 1008 c 1,6,7
 68 1004 68 1004 -50 983 c 1,8,9
 -34 1010 -34 1010 -20 1059 c 0,10,11
 -11 1091 -11 1091 -7 1130 c 1,12,-1
 9 1125 l 1,13,14
 67 1110 67 1110 206 1106 c 1,15,16
 197 1291 197 1291 181 1388 c 1,17,-1
 175 1422 l 1,18,19
 296 1436 296 1436 420 1507 c 2,20,-1
 427 1511 l 1,21,22
 398 1332 398 1332 388 1104 c 1,23,24
 540 1108 540 1108 652 1130 c 1,25,-1
 650 1126 l 2,26,27
 618 1061 618 1061 611 983 c 1,28,-1
 595 987 l 1,29,30
 527 1001 527 1001 384 1006 c 1,31,32
 382 918 382 918 382 823 c 2,33,-1
 382 788 l 2,34,35
 382 308 382 308 419 128 c 1,36,-1
 427 92 l 1,37,38
 365 84 365 84 301 61 c 0,39,40
 214 29 214 29 175 0 c 1,0,1
EndSplineSet
Validated: 1
EndChar

StartChar: u
Encoding: 117 117 71
Width: 1180
GlyphClass: 2
Flags: W
HStem: 0 21G<573.5 634.206 785 788> 1110 20G<330.5 332.5 1008.5 1011>
VStem: 145 168<393.857 1037.44> 828 164<157 1015.5>
LayerCount: 2
Fore
SplineSet
100 1038 m 1,0,1
 167 1046 167 1046 222 1066 c 0,2,3
 309 1098 309 1098 352 1130 c 1,4,5
 313 868 313 868 313 623 c 0,6,7
 314 591 314 591 314 566 c 0,8,9
 314 451 314 451 350 392 c 1,10,11
 410 304 410 304 524 247 c 0,12,13
 624 197 624 197 820 157 c 1,14,-1
 821 157 l 1,15,16
 828 230 828 230 828 481 c 2,17,-1
 828 516 l 2,18,19
 828 797 828 797 786 1002 c 1,20,-1
 778 1038 l 1,21,22
 846 1046 846 1046 900 1066 c 0,23,24
 987 1098 987 1098 1030 1130 c 1,25,26
 992 830 992 830 992 632 c 0,27,28
 992 533 992 533 993 524 c 0,29,30
 995 291 995 291 1025 105 c 1,31,-1
 1030 89 l 1,32,33
 909 75 909 75 785 4 c 2,34,-1
 778 0 l 1,35,36
 798 59 798 59 821 136 c 1,37,-1
 602 0 l 1,38,39
 545 15 545 15 461 58 c 0,40,41
 383 99 383 99 311 167 c 0,42,43
 223 251 223 251 187 352 c 1,44,45
 148 448 148 448 145 562 c 0,46,47
 136 853 136 853 108 1002 c 1,48,-1
 100 1038 l 1,0,1
EndSplineSet
Validated: 1
EndChar

StartChar: v
Encoding: 118 118 72
Width: 1013
GlyphClass: 2
Flags: W
HStem: 0 21G<372.5 402> 1110 20G<187.5 214.5 929 1010>
VStem: 396 218<81.1367 223.396>
DStem2: 786 560 618 129 0.368182 0.929754<-457.792 -400.026>
LayerCount: 2
Fore
SplineSet
396 0 m 1,0,1
 349 318 349 318 226 596 c 1,2,3
 104 872 104 872 0 1040 c 1,4,5
 49 1047 49 1047 99 1068 c 0,6,7
 171 1098 171 1098 204 1130 c 1,8,9
 225 983 225 983 374 640 c 0,10,11
 524 294 524 294 558 282 c 1,12,13
 627 349 627 349 724 584 c 0,14,15
 848 884 848 884 848 1030 c 2,16,-1
 848 1043 l 1,17,18
 968 1073 968 1073 1010 1125 c 2,19,-1
 1014 1129 l 1,20,21
 844 700 844 700 786 560 c 0,22,23
 667 273 667 273 618 129 c 0,24,25
 614 117 614 117 614 92 c 2,26,-1
 614 89 l 1,27,28
 500 73 500 73 402 4 c 2,29,-1
 396 0 l 1,0,1
EndSplineSet
Validated: 1
EndChar

StartChar: w
Encoding: 119 119 73
Width: 1858
GlyphClass: 2
Flags: W
HStem: 0 21G<573.5 648.347 1251.5 1312.21 1463 1466> 1110 20G<330.5 332.5 1008.5 1010.5 1686.5 1689>
VStem: 145 168<393.857 1037.44> 823 168<393.857 1037.44> 1506 164<157 1015.5>
LayerCount: 2
Fore
SplineSet
100 1038 m 1,0,1
 167 1046 167 1046 222 1066 c 0,2,3
 309 1098 309 1098 352 1130 c 1,4,5
 313 868 313 868 313 623 c 0,6,7
 314 591 314 591 314 566 c 0,8,9
 314 451 314 451 350 392 c 1,10,11
 411 301 411 301 524 247 c 0,12,13
 704 161 704 161 844 161 c 0,14,15
 914 161 914 161 974 182 c 1,16,17
 898 261 898 261 865 352 c 1,18,19
 826 448 826 448 823 562 c 0,20,21
 814 853 814 853 786 1002 c 1,22,-1
 778 1038 l 1,23,24
 845 1046 845 1046 900 1066 c 0,25,26
 987 1098 987 1098 1030 1130 c 1,27,28
 991 868 991 868 991 623 c 0,29,30
 992 591 992 591 992 566 c 0,31,32
 992 451 992 451 1028 392 c 1,33,34
 1088 304 1088 304 1202 247 c 0,35,36
 1302 197 1302 197 1498 157 c 1,37,-1
 1499 157 l 1,38,39
 1506 230 1506 230 1506 481 c 2,40,-1
 1506 516 l 2,41,42
 1506 797 1506 797 1464 1002 c 1,43,-1
 1456 1038 l 1,44,45
 1524 1046 1524 1046 1578 1066 c 0,46,47
 1665 1098 1665 1098 1708 1130 c 1,48,49
 1670 830 1670 830 1670 632 c 0,50,51
 1670 533 1670 533 1671 524 c 0,52,53
 1673 291 1673 291 1703 105 c 1,54,-1
 1708 89 l 1,55,56
 1587 75 1587 75 1463 4 c 2,57,-1
 1456 0 l 1,58,59
 1476 59 1476 59 1499 136 c 1,60,-1
 1280 0 l 1,61,62
 1223 15 1223 15 1139 58 c 0,63,64
 1060 99 1060 99 989 167 c 1,65,-1
 602 0 l 1,66,67
 545 15 545 15 461 58 c 0,68,69
 383 99 383 99 311 167 c 0,70,71
 223 251 223 251 187 352 c 1,72,73
 148 448 148 448 145 562 c 0,74,75
 136 853 136 853 108 1002 c 1,76,-1
 100 1038 l 1,0,1
EndSplineSet
Validated: 1
EndChar

StartChar: x
Encoding: 120 120 74
Width: 957
GlyphClass: 2
Flags: W
HStem: 0 21G<109.5 146 706.5 766> 1110 20G<221 256.154 752 775.5>
DStem2: 564 579 424 483 0.556953 -0.830544<-69.5513 -63.074 1.7588 503.869>
LayerCount: 2
Fore
SplineSet
5 1041 m 1,0,1
 47 1045 47 1045 138 1077 c 0,2,3
 192 1096 192 1096 250 1130 c 1,4,-1
 258 1104 l 1,5,6
 295 975 295 975 480 700 c 1,7,8
 734 1073 734 1073 752 1114 c 1,9,-1
 759 1130 l 1,10,11
 792 1108 792 1108 822 1094 c 0,12,13
 869 1073 869 1073 899 1069 c 1,14,15
 776 949 776 949 531 626 c 1,16,-1
 564 579 l 1,17,18
 856 169 856 169 958 91 c 1,19,-1
 950 90 l 2,20,21
 818 61 818 61 714 0 c 1,22,-1
 705 24 l 1,23,24
 669 110 669 110 435 466 c 2,25,-1
 424 483 l 1,26,27
 167 131 167 131 146 14 c 1,28,-1
 139 0 l 1,29,30
 80 40 80 40 4 61 c 2,31,-1
 0 63 l 1,32,33
 87 129 87 129 378 551 c 1,34,35
 165 867 165 867 5 1041 c 1,0,1
EndSplineSet
Validated: 1
EndChar

StartChar: y
Encoding: 121 121 75
Width: 1180
GlyphClass: 2
Flags: W
HStem: -381 21G<785 795.5> 0 21G<573.5 634.206> 1110 20G<330.5 332.5 1008.5 1008.5>
VStem: 145 168<393.857 1037.44> 823 164<-149.168 136 157 842.801>
LayerCount: 2
Fore
SplineSet
100 1038 m 1,0,1
 167 1046 167 1046 222 1066 c 0,2,3
 309 1098 309 1098 352 1130 c 1,4,5
 313 868 313 868 313 623 c 0,6,7
 314 591 314 591 314 566 c 0,8,9
 314 451 314 451 350 392 c 1,10,11
 410 304 410 304 524 247 c 0,12,13
 624 197 624 197 820 157 c 1,14,-1
 821 157 l 1,15,16
 823 230 823 230 823 307 c 2,17,-1
 823 342 l 2,18,19
 823 822 823 822 786 1002 c 1,20,-1
 778 1038 l 1,21,22
 846 1046 846 1046 900 1066 c 0,23,24
 987 1098 987 1098 1030 1130 c 1,25,26
 987 830 987 830 987 458 c 0,27,28
 987 404 987 404 988 350 c 0,29,30
 996 -89 996 -89 1024 -258 c 1,31,-1
 1030 -292 l 1,32,33
 910 -306 910 -306 785 -377 c 2,34,-1
 778 -381 l 1,35,36
 813 -159 813 -159 821 136 c 1,37,-1
 602 0 l 1,38,39
 545 15 545 15 461 58 c 0,40,41
 383 99 383 99 311 167 c 0,42,43
 223 251 223 251 187 352 c 1,44,45
 148 448 148 448 145 562 c 0,46,47
 136 853 136 853 108 1002 c 1,48,-1
 100 1038 l 1,0,1
EndSplineSet
Validated: 1
EndChar

StartChar: z
Encoding: 122 122 76
Width: 967
GlyphClass: 2
Flags: W
HStem: 0 21G<61 153.5 824 853> 45 91<370.161 741.792> 994 92<244.75 581.301> 1110 20G<149 178 798.5 805.5>
LayerCount: 2
Fore
SplineSet
50 0 m 1,0,-1
 61 13 l 1,1,2
 252 259 252 259 398 552 c 0,3,4
 586 930 586 930 586 981 c 0,5,6
 586 988 586 988 583 989 c 1,7,8
 529 994 529 994 428 994 c 0,9,10
 426 994 426 994 424 994 c 0,11,12
 274 979 274 979 85 878 c 1,13,14
 108 921 108 921 132 1008 c 0,15,16
 146 1059 146 1059 152 1130 c 1,17,-1
 178 1122 l 1,18,19
 298 1086 298 1086 526 1086 c 0,20,21
 705 1086 705 1086 906 1130 c 1,22,23
 691 852 691 852 376 160 c 1,24,-1
 370 138 l 1,25,26
 391 137 391 137 433 137 c 0,27,28
 459 137 459 137 477 136 c 0,29,30
 690 136 690 136 917 252 c 1,31,32
 894 209 894 209 870 122 c 0,33,34
 856 71 856 71 850 0 c 1,35,-1
 824 8 l 1,36,37
 695 45 695 45 397 45 c 0,38,39
 257 45 257 45 50 0 c 1,0,-1
EndSplineSet
Validated: 1
EndChar

StartChar: braceleft
Encoding: 123 123 77
Width: 853
GlyphClass: 2
Flags: W
VStem: 240 119<444.469 601 790 1115.25>
LayerCount: 2
Fore
SplineSet
6 569 m 1,0,1
 27 607 27 607 52 699 c 0,2,3
 67 753 67 753 73 821 c 1,4,-1
 99 813 l 1,5,6
 150 798 150 798 240 790 c 1,7,8
 248 945 248 945 285 1117 c 0,9,10
 322 1287 322 1287 379 1408 c 0,11,12
 405 1463 405 1463 436 1510 c 1,13,-1
 639 1771 l 1,14,15
 686 1733 686 1733 714 1701 c 0,16,17
 773 1632 773 1632 786 1590 c 1,18,19
 807 1557 807 1557 807 1533 c 1,20,-1
 675 1359 l 1,21,22
 651 1471 651 1471 604 1543 c 0,23,24
 574 1589 574 1589 535 1590 c 0,25,26
 528 1590 528 1590 520 1588 c 1,27,-1
 519 1587 l 1,28,29
 426 1522 426 1522 382 1153 c 0,30,31
 364 1001 364 1001 358 865 c 0,32,33
 356 820 356 820 356 777 c 0,34,35
 357 718 357 718 359 674 c 0,36,37
 364 575 364 575 423 372 c 1,38,39
 482 195 482 195 546 90 c 0,40,41
 654 -87 654 -87 768 -186 c 1,42,-1
 770 -185 l 1,43,44
 811 -116 811 -116 813 -47 c 0,45,46
 813 -31 813 -31 810 -15 c 1,47,-1
 903 -84 l 1,48,49
 881 -112 881 -112 858 -135 c 0,50,51
 822 -171 822 -171 801 -198 c 2,52,-1
 675 -360 l 1,53,54
 624 -334 624 -334 540 -250 c 0,55,56
 472 -182 472 -182 397 -46 c 0,57,58
 306 119 306 119 273 318 c 1,59,60
 247 462 247 462 240 601 c 1,61,62
 116 590 116 590 6 569 c 1,0,1
EndSplineSet
Validated: 1
EndChar

StartChar: bar
Encoding: 124 124 78
Width: 592
GlyphClass: 2
Flags: W
VStem: 214 164<277.488 1271.84>
LayerCount: 2
Fore
SplineSet
170 -231 m 17,0,1
 214 69 214 69 214 664 c 0,2,3
 214 719 214 719 213 772 c 0,4,5
 204 1210 204 1210 176 1526 c 24,6,-1
 170 1560 l 9,7,8
 292 1574 292 1574 415 1645 c 0,9,-1
 422 1649 l 1,10,11
 378 1365 378 1365 378 815 c 0,12,13
 378 798 378 798 378 780 c 0,14,15
 378 72 378 72 414 -103 c 24,16,-1
 422 -139 l 25,17,18
 354 -147 354 -147 300 -167 c 0,19,20
 213 -199 213 -199 170 -231 c 17,0,1
EndSplineSet
Validated: 1
EndChar

StartChar: braceright
Encoding: 125 125 79
Width: 853
GlyphClass: 2
Flags: W
VStem: 495 118<295.75 621 810 963.527>
LayerCount: 2
Fore
SplineSet
847 842 m 1,0,1
 826 804 826 804 801 712 c 0,2,3
 786 658 786 658 780 590 c 1,4,-1
 754 598 l 1,5,6
 703 613 703 613 613 621 c 1,7,8
 605 466 605 466 568 294 c 0,9,10
 531 124 531 124 474 3 c 0,11,12
 448 -52 448 -52 417 -99 c 1,13,-1
 214 -360 l 1,14,15
 167 -322 167 -322 139 -290 c 0,16,17
 80 -221 80 -221 67 -179 c 1,18,19
 46 -146 46 -146 46 -122 c 1,20,-1
 178 52 l 1,21,22
 202 -60 202 -60 249 -132 c 0,23,24
 279 -178 279 -178 318 -179 c 0,25,26
 325 -179 325 -179 333 -177 c 1,27,-1
 334 -176 l 1,28,29
 427 -111 427 -111 471 258 c 0,30,31
 489 410 489 410 495 546 c 0,32,33
 497 591 497 591 497 634 c 0,34,35
 496 693 496 693 494 737 c 0,36,37
 489 836 489 836 430 1039 c 1,38,39
 371 1216 371 1216 307 1321 c 0,40,41
 199 1498 199 1498 85 1597 c 1,42,-1
 83 1596 l 1,43,44
 42 1527 42 1527 40 1458 c 0,45,46
 40 1442 40 1442 43 1426 c 1,47,-1
 -50 1495 l 1,48,49
 -28 1523 -28 1523 -5 1546 c 0,50,51
 31 1582 31 1582 52 1609 c 2,52,-1
 178 1771 l 1,53,54
 229 1745 229 1745 313 1661 c 0,55,56
 381 1593 381 1593 456 1457 c 0,57,58
 547 1292 547 1292 580 1093 c 1,59,60
 606 949 606 949 613 810 c 1,61,62
 737 821 737 821 847 842 c 1,0,1
EndSplineSet
Validated: 1
EndChar

StartChar: asciitilde
Encoding: 126 126 80
Width: 1116
GlyphClass: 2
Flags: W
HStem: 692 6<461 671>
LayerCount: 2
Fore
SplineSet
90 534 m 1,0,-1
 92 541 l 1,1,2
 187 664 187 664 187 783 c 0,3,4
 187 793 187 793 186 802 c 1,5,-1
 193 803 l 1,6,7
 262 860 262 860 333 860 c 0,8,9
 429 859 429 859 528 757 c 0,10,11
 585 698 585 698 671 698 c 0,12,13
 811 699 811 699 1026 856 c 1,14,-1
 1024 849 l 1,15,16
 941 728 941 728 941 614 c 0,17,18
 941 603 941 603 942 592 c 1,19,-1
 935 591 l 1,20,21
 865 529 865 529 789 529 c 0,22,23
 697 529 697 529 600 636 c 0,24,25
 549 692 549 692 461 692 c 0,26,27
 322 692 322 692 90 534 c 1,0,-1
EndSplineSet
Validated: 1
EndChar

StartChar: exclamdown
Encoding: 161 161 82
Width: 600
GlyphClass: 2
Flags: W
HStem: 0 21G<181 194>
VStem: 189 239<1281.49 1483.67> 214 164<116.068 1117.06>
LayerCount: 2
Fore
SplineSet
428 1414 m 0,0,1
 428 1359 428 1359 438 1279 c 9,2,3
 366 1271 366 1271 300 1247 c 0,4,5
 213 1215 213 1215 170 1183 c 17,6,7
 189 1267 189 1267 189 1355 c 0,8,9
 189 1409 189 1409 182 1463 c 0,10,-1
 176 1484 l 9,11,12
 307 1498 307 1498 437 1573 c 0,13,-1
 444 1577 l 9,14,15
 428 1519 428 1519 428 1414 c 0,0,1
426 1218 m 17,16,17
 377 909 377 909 377 672 c 0,18,19
 377 643 377 643 378 620 c 0,20,21
 396 202 396 202 421 110 c 0,22,-1
 426 89 l 9,23,24
 304 75 304 75 181 4 c 0,25,-1
 174 0 l 1,26,27
 214 289 214 289 214 544 c 0,28,29
 214 580 214 580 213 612 c 0,30,31
 204 884 204 884 178 1104 c 24,32,-1
 174 1126 l 25,33,34
 242 1134 242 1134 296 1154 c 0,35,36
 383 1186 383 1186 426 1218 c 17,16,17
EndSplineSet
Validated: 1
EndChar

StartChar: sterling
Encoding: 163 163 83
Width: 1058
GlyphClass: 2
Flags: W
HStem: -4 21G<150 166 915 944> 42 95<391.811 818.245> 594 95<355 701.75>
VStem: 187 167<167.058 589 699 955.861>
LayerCount: 2
Fore
SplineSet
143 -4 m 1,0,1
 189 281 189 281 189 581 c 0,2,3
 189 584 189 584 189 585 c 0,4,5
 189 587 189 587 189 589 c 1,6,7
 111 582 111 582 41 570 c 1,8,9
 56 596 56 596 71 646 c 0,10,11
 80 677 80 677 84 717 c 1,12,-1
 101 712 l 2,13,14
 128 704 128 704 187 699 c 1,15,-1
 187 701 l 2,16,17
 187 859 187 859 174 959 c 1,18,19
 183 1005 183 1005 204 1049 c 0,20,21
 250 1145 250 1145 341 1249 c 0,22,23
 409 1326 409 1326 464 1364 c 1,24,-1
 686 1507 l 1,25,26
 706 1494 706 1494 758 1464 c 1,27,28
 820 1426 820 1426 891 1355 c 0,29,30
 923 1323 923 1323 949 1289 c 1,31,-1
 750 1191 l 1,32,33
 714 1263 714 1263 653.5 1309.5 c 128,-1,34
 593 1356 593 1356 477 1362 c 1,35,-1
 475 1361 l 1,36,37
 417 1313 417 1313 375 1103 c 0,38,39
 354 998 354 998 354 732 c 2,40,-1
 354 707 l 2,41,42
 354 699 354 699 354 691 c 1,43,44
 355 689 355 689 401 689 c 0,45,46
 443 689 443 689 482 690 c 0,47,48
 629 694 629 694 743 717 c 1,49,-1
 741 712 l 2,50,51
 707 627 707 627 702 570 c 1,52,-1
 686 573 l 1,53,54
 626 586 626 586 404 594 c 0,55,56
 377 595 377 595 355 595 c 1,57,58
 361 386 361 386 384 160 c 1,59,-1
 391 145 l 1,60,61
 417 137 417 137 438 137 c 0,62,63
 781 137 781 137 1008 252 c 1,64,65
 984 207 984 207 961 122 c 0,66,67
 947 70 947 70 941 0 c 1,68,-1
 915 8 l 2,69,70
 804 42 804 42 520 42 c 0,71,72
 349 42 349 42 150 0 c 1,73,-1
 143 -4 l 1,0,1
EndSplineSet
Validated: 1
EndChar

StartChar: currency
Encoding: 164 164 84
Width: 1563
GlyphClass: 2
Flags: W
VStem: 334 115<676.871 932.827> 1110 113<580.938 842.613>
LayerCount: 2
Fore
SplineSet
798 302 m 1,0,1
 734 314 734 314 654 349 c 0,2,3
 601 372 601 372 552 403 c 1,4,5
 426 277 426 277 382 192 c 1,6,7
 342 234 342 234 265 278 c 0,8,9
 216 306 216 306 150 327 c 1,10,11
 202 346 202 346 401 490 c 1,12,-1
 424 513 l 1,13,14
 394 549 394 549 377 589 c 1,15,16
 334 672 334 672 334 760 c 0,17,18
 334 763 334 763 334 763 c 0,19,20
 346 880 346 880 384 943 c 0,21,22
 416 998 416 998 449 1034 c 1,23,-1
 428 1055 l 1,24,25
 229 1199 229 1199 177 1218 c 1,26,27
 244 1239 244 1239 292 1267 c 0,28,29
 371 1313 371 1313 409 1353 c 1,30,31
 454 1266 454 1266 586 1135 c 1,32,-1
 760 1227 l 1,33,34
 802 1218 802 1218 904 1177 c 0,35,36
 939 1163 939 1163 977 1141 c 1,37,38
 1106 1270 1106 1270 1151 1356 c 1,39,40
 1189 1316 1189 1316 1268 1270 c 0,41,42
 1318 1241 1318 1241 1383 1221 c 1,43,44
 1332 1202 1332 1202 1132 1058 c 1,45,-1
 1112 1038 l 1,46,47
 1158 989 1158 989 1182 933 c 1,48,49
 1222 842 1222 842 1223 764 c 2,50,-1
 1223 760 l 2,51,52
 1223 662 1223 662 1179 582 c 0,53,54
 1157 542 1157 542 1134 512 c 1,55,-1
 1162 484 l 1,56,57
 1361 340 1361 340 1413 321 c 1,58,59
 1346 300 1346 300 1298 272 c 0,60,61
 1219 226 1219 226 1181 186 c 1,62,63
 1136 274 1136 274 1004 405 c 1,64,-1
 798 302 l 1,0,1
540 1052 m 1,65,-1
 540 1051 l 1,66,67
 510 1013 510 1013 474 923 c 0,68,69
 452 867 452 867 449 804 c 0,70,71
 448 783 448 783 454 758 c 0,72,73
 469 695 469 695 532 631 c 1,74,75
 600 564 600 564 715 529 c 0,76,77
 823 496 823 496 1027 465 c 1,78,-1
 1029 465 l 1,79,80
 1054 505 1054 505 1089 605 c 0,81,82
 1110 666 1110 666 1110 717 c 0,83,84
 1110 743 1110 743 1105 764 c 0,85,86
 1092 818 1092 818 1026 891 c 0,87,88
 971 945 971 945 836 994 c 0,89,90
 737 1030 737 1030 540 1052 c 1,65,-1
EndSplineSet
Validated: 1
EndChar

StartChar: yen
Encoding: 165 165 85
Width: 1276
GlyphClass: 2
Flags: W
HStem: 0 21G<537 544.5> 420 166<786 1073.61> 748 163<602 779.024> 1491 20G<235 290.5 1220 1272>
VStem: 561 177<92.5625 419>
LayerCount: 2
Fore
SplineSet
0 1421 m 1,0,1
 67 1429 67 1429 122 1449 c 0,2,3
 218 1484 218 1484 252 1511 c 1,4,5
 329 1271 329 1271 451 1017 c 0,6,7
 475 967 475 967 502 917 c 1,8,9
 598 911 598 911 717 911 c 0,10,11
 796 911 796 911 877 918 c 1,12,13
 1070 1317 1070 1317 1072 1412 c 2,14,-1
 1072 1425 l 1,15,16
 1218 1455 1218 1455 1272 1507 c 2,17,-1
 1276 1511 l 1,18,19
 1164 1341 1164 1341 953 927 c 1,20,21
 1044 938 1044 938 1138 959 c 1,22,-1
 1135 952 l 2,23,24
 1083 829 1083 829 1073 707 c 1,25,-1
 1048 713 l 1,26,27
 954 729 954 729 858 738 c 1,28,-1
 786 586 l 1,29,30
 956 593 956 593 1139 633 c 1,31,-1
 1136 626 l 2,32,33
 1084 503 1084 503 1074 381 c 1,34,-1
 1049 387 l 1,35,36
 898 413 898 413 738 420 c 1,37,38
 747 224 747 224 767 128 c 1,39,-1
 775 92 l 1,40,41
 708 84 708 84 653 64 c 0,42,43
 566 32 566 32 523 0 c 1,44,45
 551 194 551 194 561 419 c 1,46,-1
 559 422 l 1,47,48
 357 419 357 419 168 381 c 1,49,50
 191 424 191 424 215 511 c 0,51,52
 229 562 229 562 235 633 c 1,53,-1
 261 625 l 1,54,55
 348 603 348 603 480 593 c 1,56,-1
 407 741 l 1,57,58
 284 731 284 731 167 707 c 1,59,60
 190 750 190 750 214 837 c 0,61,62
 228 888 228 888 234 959 c 1,63,-1
 260 951 l 2,64,65
 277 947 277 947 296 943 c 1,66,-1
 286 960 l 1,67,68
 82 1341 82 1341 0 1421 c 1,0,1
602 748 m 1,69,70
 639 690 639 690 679 633 c 1,71,72
 723 657 723 657 780 743 c 1,73,74
 701 748 701 748 620 748 c 2,75,-1
 602 748 l 1,69,70
EndSplineSet
Validated: 1
EndChar

StartChar: brokenbar
Encoding: 166 166 86
Width: 592
GlyphClass: 2
Flags: W
VStem: 211 164<-157.5 572.609 853.5 1583.61>
LayerCount: 2
Fore
SplineSet
170 -231 m 17,0,1
 211 -78 211 -78 211 140 c 0,2,3
 211 173 211 173 210 206 c 0,4,5
 203 453 203 453 176 548 c 24,6,-1
 170 573 l 9,7,8
 292 583 292 583 415 635 c 0,9,-1
 422 638 l 1,10,11
 375 477 375 477 375 247 c 0,12,13
 375 238 375 238 375 228 c 0,14,15
 375 18 375 18 414 -138 c 24,16,-1
 422 -164 l 25,17,18
 355 -170 355 -170 300 -184 c 0,19,20
 220 -204 220 -204 170 -231 c 17,0,1
170 780 m 17,21,22
 209 928 209 928 209 1143 c 0,23,24
 209 1177 209 1177 208 1212 c 0,25,26
 201 1463 201 1463 176 1559 c 24,27,-1
 170 1584 l 9,28,29
 292 1594 292 1594 415 1646 c 0,30,-1
 422 1649 l 1,31,32
 375 1488 375 1488 375 1258 c 0,33,34
 375 1249 375 1249 375 1239 c 0,35,36
 375 1029 375 1029 414 873 c 24,37,-1
 422 847 l 25,38,39
 357 841 357 841 300 827 c 0,40,41
 220 807 220 807 170 780 c 17,21,22
EndSplineSet
Validated: 1
EndChar

StartChar: section
Encoding: 167 167 87
Width: 1143
GlyphClass: 2
Flags: W
HStem: 0 21G<538.5 615.504> 1491 20G<527.353 606>
VStem: 150 130<714.02 853.754> 185 112<1092.5 1254.96> 863 130<655.316 796.421>
LayerCount: 2
Fore
SplineSet
279 956 m 1,0,1
 246 980 246 980 226 1007 c 0,2,3
 185 1062 185 1062 185 1123 c 0,4,5
 185 1131 185 1131 186 1139 c 0,6,7
 191 1176 191 1176 213 1226 c 0,8,9
 231 1266 231 1266 286 1318 c 0,10,11
 336 1366 336 1366 345 1372 c 2,12,-1
 558 1511 l 1,13,14
 654 1472 654 1472 700 1450 c 0,15,16
 835 1387 835 1387 916 1293 c 1,17,-1
 741 1187 l 1,18,19
 704 1232 704 1232 642 1276 c 0,20,21
 576 1323 576 1323 351 1364 c 1,22,-1
 351 1363 l 1,23,24
 313 1324 313 1324 300 1255 c 0,25,26
 297 1239 297 1239 297 1225 c 0,27,28
 298 1183 298 1183 321 1155 c 0,29,30
 362 1105 362 1105 453 1084 c 0,31,32
 526 1067 526 1067 614 1056 c 1,33,34
 916 1024 916 1024 972 886 c 1,35,-1
 976 878 l 1,36,37
 993 837 993 837 993 794 c 0,38,39
 993 746 993 746 971 696 c 0,40,41
 945 637 945 637 864 555 c 1,42,43
 897 530 897 530 916 504 c 0,44,45
 956 448 956 448 956 386 c 0,46,47
 957 380 957 380 956 372 c 0,48,49
 952 342 952 342 929 285 c 0,50,51
 913 246 913 246 857 193 c 0,52,53
 806 145 806 145 797 139 c 2,54,-1
 585 0 l 1,55,56
 492 38 492 38 443 61 c 0,57,58
 307 125 307 125 226 218 c 1,59,-1
 402 323 l 1,60,61
 437 281 437 281 501 235 c 0,62,63
 567 188 567 188 791 147 c 1,64,-1
 792 148 l 1,65,66
 825 183 825 183 842 256 c 0,67,68
 846 273 846 273 846 288 c 0,69,70
 844 328 844 328 821 356 c 0,71,72
 780 406 780 406 689 427 c 0,73,74
 616 444 616 444 528 455 c 1,75,76
 226 487 226 487 170 625 c 1,77,-1
 166 633 l 1,78,79
 150 673 150 673 150 715 c 0,80,81
 151 764 151 764 172 813 c 0,82,83
 195 867 195 867 279 956 c 1,0,1
834 574 m 1,84,85
 863 637 863 637 863 698 c 0,86,87
 863 708 863 708 862 716 c 0,88,89
 851 803 851 803 743 834 c 2,90,-1
 718 841 l 1,91,92
 671 849 671 849 597 858 c 0,93,94
 408 881 408 881 309 937 c 1,95,96
 280 874 280 874 280 813 c 0,97,98
 280 803 280 803 281 795 c 0,99,100
 292 707 292 707 399 677 c 2,101,-1
 424 670 l 1,102,103
 445 665 445 665 554 651 c 0,104,105
 739 628 739 628 834 574 c 1,84,85
EndSplineSet
Validated: 1
EndChar

StartChar: dieresis
Encoding: 168 168 88
Width: 1024
GlyphClass: 2
Flags: W
HStem: 1157 390
VStem: 169 239<1252.49 1454.67> 619 239<1255.49 1457.67>
LayerCount: 2
Fore
SplineSet
858 1388 m 0,0,1
 858 1333 858 1333 868 1253 c 9,2,3
 796 1245 796 1245 730 1221 c 0,4,5
 643 1189 643 1189 600 1157 c 17,6,7
 619 1241 619 1241 619 1329 c 0,8,9
 619 1383 619 1383 612 1437 c 0,10,-1
 606 1458 l 9,11,12
 737 1472 737 1472 867 1547 c 0,13,-1
 874 1551 l 9,14,15
 858 1493 858 1493 858 1388 c 0,0,1
408 1385 m 0,16,17
 408 1330 408 1330 418 1250 c 9,18,19
 346 1242 346 1242 280 1218 c 0,20,21
 193 1186 193 1186 150 1154 c 17,22,23
 169 1238 169 1238 169 1326 c 0,24,25
 169 1380 169 1380 162 1434 c 0,26,-1
 156 1455 l 9,27,28
 287 1469 287 1469 417 1544 c 0,29,-1
 424 1548 l 9,30,31
 408 1490 408 1490 408 1385 c 0,16,17
EndSplineSet
Validated: 1
EndChar

StartChar: copyright
Encoding: 169 169 89
Width: 1261
GlyphClass: 2
Flags: W
HStem: 180 79<444.499 817.229> 1109 20G<575.198 618> 1251 80<441.931 819.969>
VStem: 80 74<566.018 943.982> 269 130<669.084 903.677> 1106 75<560.265 949.908>
LayerCount: 2
Fore
SplineSet
631 1331 m 0,0,1
 741 1331 741 1331 841 1288 c 0,2,3
 937 1247 937 1247 1020 1161 c 0,4,5
 1100 1078 1100 1078 1141 975 c 0,6,7
 1181 874 1181 874 1181 754 c 0,8,9
 1181 638 1181 638 1141 535 c 0,10,11
 1103 437 1103 437 1020 350 c 0,12,13
 941 267 941 267 841 223 c 0,14,15
 743 180 743 180 631 180 c 0,16,17
 520 180 520 180 420 223 c 0,18,19
 324 264 324 264 241 350 c 0,20,21
 160 434 160 434 120 535 c 128,-1,22
 80 636 80 636 80 754 c 0,23,24
 80 873 80 873 120 975 c 128,-1,25
 160 1077 160 1077 241 1161 c 0,26,27
 322 1246 322 1246 420 1288.5 c 128,-1,28
 518 1331 518 1331 631 1331 c 0,0,1
631 1251 m 0,29,30
 533 1251 533 1251 450 1215 c 128,-1,31
 367 1179 367 1179 296 1105 c 0,32,33
 226 1032 226 1032 190 944 c 128,-1,34
 154 856 154 856 154 759 c 2,35,-1
 154 754 l 2,36,37
 154 655 154 655 190 566 c 0,38,39
 224 483 224 483 296 406 c 0,40,41
 366 332 366 332 449 296 c 0,42,43
 534 259 534 259 631 259 c 128,-1,44
 728 259 728 259 813 296 c 0,45,46
 896 332 896 332 967 406 c 0,47,48
 1036 478 1036 478 1071 565 c 128,-1,49
 1106 652 1106 652 1106 754 c 0,50,51
 1106 857 1106 857 1071 945 c 0,52,53
 1037 1031 1037 1031 967 1105 c 0,54,55
 898 1178 898 1178 813 1215 c 0,56,57
 728 1251 728 1251 631 1251 c 0,29,30
527 414 m 0,58,59
 464 439 464 439 406 485 c 0,60,61
 334 541 334 541 304 608 c 1,62,63
 274 665 274 665 270 747 c 0,64,65
 270 748 270 748 269 749 c 0,66,67
 269 750 269 750 269 751 c 0,68,69
 269 821 269 821 310 898 c 0,70,71
 343 959 343 959 391 1001 c 0,72,73
 413 1020 413 1020 441 1038 c 1,74,-1
 613 1129 l 1,75,-1
 618 1128 l 2,76,77
 657 1120 657 1120 733 1088 c 0,78,79
 795 1062 795 1062 854 1017 c 0,80,81
 876 1000 876 1000 907 965 c 2,82,-1
 920 951 l 1,83,-1
 765 866 l 1,84,-1
 757 877 l 2,85,86
 719 926 719 926 674 951 c 0,87,88
 621 980 621 980 460 1003 c 1,89,90
 438 966 438 966 417 899 c 0,91,92
 399 841 399 841 399 796 c 0,93,94
 399 777 399 777 403 757 c 0,95,96
 414 703 414 703 458 649 c 128,-1,97
 502 595 502 595 588 562 c 0,98,99
 663 533 663 533 808 506 c 1,100,101
 815 519 815 519 814 538 c 0,102,103
 813 568 813 568 803 607 c 2,104,-1
 797 633 l 1,105,-1
 952 584 l 1,106,-1
 943 568 l 2,107,108
 920 526 920 526 869 492 c 2,109,-1
 838 472 l 1,110,-1
 838 471 l 1,111,-1
 647 374 l 1,112,-1
 642 375 l 2,113,114
 605 383 605 383 527 414 c 0,58,59
EndSplineSet
Validated: 1
EndChar

StartChar: ordfeminine
Encoding: 170 170 90
Width: 1131
GlyphClass: 2
Flags: W
HStem: 524 163<162.316 985.609> 1231 29<588.678 640.935>
VStem: 194 158<984.602 1126.04> 732 165<876.719 1231.96>
LayerCount: 2
Fore
SplineSet
80 483 m 9,0,1
 103 526 103 526 127 613 c 0,2,3
 141 664 141 664 147 735 c 25,4,-1
 173 727 l 24,5,6
 329 687 329 687 630 687 c 0,7,8
 832 687 832 687 1051 735 c 1,9,-1
 1048 728 l 0,10,11
 996 605 996 605 986 483 c 17,12,-1
 961 489 l 16,13,14
 755 524 755 524 533 524 c 0,15,16
 517 524 517 524 498 524 c 0,17,18
 281 524 281 524 80 483 c 9,0,1
696 740 m 1,19,-1
 702 773 l 2,20,21
 708 806 708 806 713 840 c 1,22,-1
 550 754 l 1,23,-1
 544 756 l 2,24,25
 461 784 461 784 398 810 c 0,26,27
 307 848 307 848 250 905 c 2,28,-1
 249 906 l 1,29,-1
 248 907 l 2,30,31
 194 961 194 961 194 1040 c 0,32,33
 194 1116 194 1116 291 1176 c 0,34,35
 427 1260 427 1260 626 1260 c 0,36,37
 639 1260 639 1260 641 1247 c 128,-1,38
 643 1234 643 1234 631 1231 c 0,39,40
 396 1164 396 1164 359 1079 c 0,41,42
 352 1063 352 1063 352 1049 c 0,43,44
 352 1022 352 1022 372 1005 c 0,45,46
 417 963 417 963 484 936 c 0,47,48
 622 881 622 881 717 873 c 1,49,50
 732 992 732 992 732 1113 c 0,51,-1
 732 1131 l 0,52,53
 731 1200 731 1200 706 1233 c 1,54,55
 659 1289 659 1289 575 1321 c 0,56,57
 499 1350 499 1350 351 1377 c 1,58,59
 348 1370 348 1370 346 1337 c 0,60,61
 345 1323 345 1323 356 1275 c 2,62,-1
 362 1249 l 1,63,-1
 206 1299 l 1,64,-1
 215 1315 l 2,65,66
 240 1360 240 1360 290 1391 c 0,67,68
 322 1411 322 1411 324 1413 c 2,69,-1
 325 1414 l 1,70,-1
 515 1509 l 1,71,-1
 520 1508 l 2,72,73
 571 1498 571 1498 636 1470 c 128,-1,74
 701 1442 701 1442 759 1398 c 0,75,76
 832 1342 832 1342 862 1274 c 1,77,78
 894 1210 894 1210 897 1134 c 0,79,80
 904 944 904 944 932 833 c 0,81,-1
 937 816 l 1,82,-1
 919 814 l 2,83,84
 861 808 861 808 825 797 c 0,85,86
 755 776 755 776 724 757 c 2,87,-1
 696 740 l 1,19,-1
EndSplineSet
Validated: 1
EndChar

StartChar: guillemotleft
Encoding: 171 171 91
Width: 1374
GlyphClass: 2
Flags: W
LayerCount: 2
Fore
SplineSet
575 602 m 1,0,1
 579 608 l 2,2,3
 650 733 650 733 664 854 c 1,4,-1
 667 854 l 2,5,6
 749 854 749 854 912 978 c 0,7,8
 1021 1061 1021 1061 1188 1210 c 0,9,10
 1194 1215 1194 1215 1224 1234 c 1,11,-1
 1220 1230 l 2,12,13
 1168 1178 1168 1178 1138 1030 c 1,14,-1
 1124 1030 l 2,15,-1
 1110 1024 l 0,16,17
 923 911 923 911 784 748 c 1,18,19
 789 725 789 725 916 618 c 0,20,21
 1112 452 1112 452 1216 417 c 1,22,23
 1184 376 1184 376 1154 287 c 0,24,25
 1134 229 1134 229 1126 165 c 1,26,27
 1040 320 1040 320 860 454 c 1,28,29
 637 602 637 602 576 602 c 0,30,-1
 575 602 l 1,0,1
100 600 m 1,31,-1
 104 606 l 2,32,33
 175 731 175 731 189 852 c 1,34,-1
 192 852 l 2,35,36
 274 852 274 852 437 976 c 0,37,38
 546 1059 546 1059 713 1208 c 0,39,40
 719 1213 719 1213 749 1232 c 1,41,-1
 745 1228 l 2,42,43
 693 1176 693 1176 663 1028 c 1,44,-1
 649 1028 l 2,45,-1
 635 1022 l 0,46,47
 448 909 448 909 309 746 c 1,48,49
 314 723 314 723 441 616 c 0,50,51
 637 450 637 450 741 415 c 1,52,53
 709 374 709 374 679 285 c 0,54,55
 659 227 659 227 651 163 c 1,56,57
 565 318 565 318 385 452 c 1,58,59
 162 600 162 600 101 600 c 0,60,-1
 100 600 l 1,31,-1
EndSplineSet
Validated: 1
EndChar

StartChar: logicalnot
Encoding: 172 172 92
Width: 1131
GlyphClass: 2
Flags: W
HStem: 608 166<156.965 790.808>
VStem: 795 158<249.193 602.188>
LayerCount: 2
Fore
SplineSet
80 570 m 1,0,1
 107 620 107 620 127 700 c 0,2,3
 141 755 141 755 147 822 c 1,4,-1
 173 814 l 1,5,6
 329 774 329 774 614 774 c 0,7,8
 831 774 831 774 1051 822 c 1,9,-1
 1048 815 l 1,10,11
 986 678 986 678 961 528 c 1,12,13
 953 460 953 460 953 393 c 0,14,15
 953 388 953 388 953 383 c 0,16,17
 953 297 953 297 969 208 c 1,18,-1
 961 208 l 2,19,20
 820 208 820 208 707 159 c 1,21,22
 762 208 762 208 788 480 c 0,23,24
 794 543 794 543 795 599 c 1,25,26
 763 608 763 608 486 608 c 24,27,28
 266 608 266 608 80 570 c 1,0,1
EndSplineSet
Validated: 1
EndChar

StartChar: uni00AD
Encoding: 173 173 93
Width: 1131
GlyphClass: 2
Flags: W
HStem: 611 163<162.316 985.609>
LayerCount: 2
Fore
SplineSet
80 570 m 9,0,1
 103 613 103 613 127 700 c 0,2,3
 141 751 141 751 147 822 c 25,4,-1
 173 814 l 24,5,6
 329 774 329 774 630 774 c 0,7,8
 832 774 832 774 1051 822 c 1,9,-1
 1048 815 l 0,10,11
 996 692 996 692 986 570 c 17,12,-1
 961 576 l 16,13,14
 755 611 755 611 533 611 c 0,15,16
 517 611 517 611 498 611 c 0,17,18
 281 611 281 611 80 570 c 9,0,1
EndSplineSet
Validated: 1
EndChar

StartChar: registered
Encoding: 174 174 94
Width: 1261
GlyphClass: 2
Flags: W
HStem: 180 79<444.514 817.353> 534 73<526.189 739.778> 1027 132<426.535 762.142> 1027 107<407.054 607.176 610.694 761.835> 1251 80<441.834 819.969>
VStem: 80 74<566.018 943.982> 391 126<380.484 552 630 932.469> 856 137<669.584 935.344> 1106 75<560.483 949.908>
LayerCount: 2
Fore
SplineSet
290 912 m 1,0,-1
 342 1097 l 1,1,-1
 350 1100 l 1,2,3
 421 1126 421 1126 446 1134 c 0,4,-1
 447 1134 l 0,5,6
 551 1159 551 1159 609 1159 c 0,7,8
 663 1159 663 1159 745 1133 c 0,9,10
 823 1108 823 1108 882 1058 c 0,11,12
 928 1019 928 1019 958 963 c 0,13,14
 993 897 993 897 993 822 c 2,15,-1
 993 820 l 2,16,17
 993 755 993 755 958 686 c 0,18,19
 931 633 931 633 863 586 c 1,20,-1
 858 583 l 1,21,22
 915 486 915 486 979 418 c 1,23,24
 1039 485 1039 485 1071 565 c 0,25,26
 1106 652 1106 652 1106 754 c 0,27,28
 1106 857 1106 857 1071 945 c 0,29,30
 1037 1031 1037 1031 967 1105 c 0,31,32
 898 1178 898 1178 813 1215 c 0,33,34
 728 1251 728 1251 631 1251 c 0,35,36
 533 1251 533 1251 450 1215 c 128,-1,37
 367 1179 367 1179 296 1105 c 0,38,39
 226 1032 226 1032 190 944 c 128,-1,40
 154 856 154 856 154 759 c 2,41,-1
 154 754 l 2,42,43
 154 654 154 654 190 566 c 0,44,45
 224 482 224 482 296 406 c 0,46,47
 329 371 329 371 365 345 c 1,48,-1
 365 347 l 2,49,50
 391 489 391 489 391 633 c 0,51,52
 391 663 391 663 390 680 c 0,53,54
 383 796 383 796 369 899 c 1,55,-1
 362 933 l 1,56,-1
 378 935 l 2,57,58
 452 944 452 944 518 978 c 2,59,-1
 549 994 l 1,60,-1
 543 964 l 2,61,62
 517 834 517 834 517 708 c 0,63,64
 517 700 517 700 517 685 c 0,65,66
 517 666 517 666 520 630 c 1,67,-1
 521 630 l 1,68,69
 592 607 592 607 648 607 c 0,70,71
 664 607 664 607 674 608 c 0,72,73
 736 614 736 614 786 647 c 0,74,75
 836 681 836 681 848 740 c 0,76,77
 856 779 856 779 856 800 c 0,78,79
 856 802 856 802 856 804 c 0,80,81
 856 818 856 818 853 834 c 0,82,83
 838 916 838 916 784 966 c 0,84,85
 744 1003 744 1003 653 1021 c 0,86,87
 623 1027 623 1027 586 1027 c 0,88,89
 541 1027 541 1027 492 1013 c 0,90,91
 396 986 396 986 323 935 c 2,92,-1
 290 912 l 1,0,-1
631 1331 m 0,93,94
 741 1331 741 1331 841 1288 c 0,95,96
 937 1247 937 1247 1020 1161 c 0,97,98
 1100 1078 1100 1078 1141 975 c 0,99,100
 1181 874 1181 874 1181 754 c 0,101,102
 1181 638 1181 638 1141 535 c 0,103,104
 1103 437 1103 437 1020 350 c 0,105,106
 941 267 941 267 841 223 c 0,107,108
 743 180 743 180 631 180 c 0,109,110
 520 180 520 180 420 223 c 0,111,112
 324 264 324 264 241 350 c 0,113,114
 160 434 160 434 120 535 c 128,-1,115
 80 636 80 636 80 754 c 0,116,117
 80 874 80 874 120 975 c 128,-1,118
 160 1076 160 1076 241 1161 c 0,119,120
 323 1246 323 1246 420 1288.5 c 128,-1,121
 517 1331 517 1331 631 1331 c 0,93,94
923 365 m 1,122,123
 885 354 885 354 846 334 c 2,124,-1
 826 324 l 1,125,-1
 821 340 l 2,126,127
 767 491 767 491 740 539 c 1,128,129
 733 538 733 538 711 536 c 0,130,131
 684 534 684 534 669 534 c 0,132,133
 594 535 594 535 524 552 c 1,134,135
 531 432 531 432 538 411 c 1,136,-1
 550 380 l 1,137,-1
 530 379 l 2,138,139
 483 374 483 374 459 365 c 0,140,141
 417 350 417 350 388 332 c 2,142,-1
 385 331 l 1,143,144
 416 310 416 310 449 296 c 0,145,146
 536 259 536 259 631 259 c 0,147,148
 727 259 727 259 813 296 c 0,149,150
 871 321 871 321 923 365 c 1,122,123
EndSplineSet
Validated: 1
EndChar

StartChar: macron
Encoding: 175 175 95
Width: 1131
GlyphClass: 2
Flags: W
HStem: 1300 163<162.316 985.609> 1491 20G<144 173 941.5 1048>
LayerCount: 2
Fore
SplineSet
80 1259 m 9,0,1
 103 1302 103 1302 127 1389 c 0,2,3
 141 1440 141 1440 147 1511 c 25,4,-1
 173 1503 l 24,5,6
 329 1463 329 1463 630 1463 c 0,7,8
 832 1463 832 1463 1051 1511 c 1,9,-1
 1048 1504 l 0,10,11
 996 1381 996 1381 986 1259 c 17,12,-1
 961 1265 l 16,13,14
 755 1300 755 1300 533 1300 c 0,15,16
 516 1300 516 1300 498 1300 c 0,17,18
 281 1300 281 1300 80 1259 c 9,0,1
EndSplineSet
Validated: 1
EndChar

StartChar: degree
Encoding: 176 176 96
Width: 816
GlyphClass: 2
Flags: W
HStem: 848 663
VStem: 120 126<1101.1 1340.1> 578 118<1023.04 1262.69>
LayerCount: 2
Fore
SplineSet
298 1372 m 1,0,-1
 292 1361 l 1,1,2
 275 1331 275 1331 258 1279 c 0,3,4
 250 1254 250 1254 246 1208 c 0,5,6
 245 1194 245 1194 248 1180 c 0,7,8
 257 1140 257 1140 288 1104 c 1,9,10
 313 1073 313 1073 380 1043 c 0,11,12
 456 1009 456 1009 520 989 c 1,13,-1
 530 1003 l 1,14,15
 557 1039 557 1039 570 1088 c 0,16,17
 578 1119 578 1119 578 1146 c 0,18,19
 578 1156 578 1156 578 1156 c 0,20,21
 576 1180 576 1180 576 1184 c 0,22,23
 571 1224 571 1224 536 1260 c 1,24,25
 513 1293 513 1293 442 1320 c 0,26,27
 323 1366 323 1366 298 1372 c 1,0,-1
396 1511 m 1,28,29
 425 1506 425 1506 488 1476 c 0,30,31
 537 1453 537 1453 588 1412 c 1,32,33
 646 1362 646 1362 668 1301 c 1,34,35
 696 1235 696 1235 696 1179 c 0,36,-1
 696 1177 l 0,37,38
 696 1106 696 1106 666 1049 c 0,39,40
 635 989 635 989 600 961 c 0,41,42
 563 931 563 931 538 916 c 2,43,-1
 420 848 l 1,44,45
 382 856 382 856 328 882 c 0,46,47
 281 904 281 904 230 946 c 0,48,49
 172 993 172 993 148 1049 c 1,50,51
 120 1113 120 1113 120 1176 c 0,52,53
 120 1233 120 1233 148 1307 c 0,54,55
 164 1351 164 1351 214 1396 c 0,56,57
 238 1418 238 1418 280 1444 c 1,58,-1
 396 1511 l 1,28,29
EndSplineSet
Validated: 1
EndChar

StartChar: plusminus
Encoding: 177 177 97
Width: 1132
GlyphClass: 2
Flags: W
HStem: 209 163<163.316 986.609> 850 166<151.25 477 647 986.609>
VStem: 480 167<527.042 846 1016 1356.61>
LayerCount: 2
Fore
SplineSet
81 168 m 9,0,1
 104 211 104 211 128 298 c 0,2,3
 142 349 142 349 148 420 c 25,4,-1
 174 412 l 24,5,6
 330 372 330 372 631 372 c 0,7,8
 833 372 833 372 1052 420 c 1,9,-1
 1049 413 l 0,10,11
 997 290 997 290 987 168 c 17,12,-1
 962 174 l 16,13,14
 756 209 756 209 534 209 c 0,15,16
 518 209 518 209 499 209 c 0,17,18
 282 209 282 209 81 168 c 9,0,1
81 810 m 1,19,20
 104 853 104 853 128 940 c 0,21,22
 142 991 142 991 148 1062 c 1,23,-1
 174 1054 l 1,24,25
 291 1024 291 1024 477 1016 c 1,26,27
 467 1254 467 1254 447 1332 c 1,28,-1
 441 1357 l 1,29,30
 560 1366 560 1366 686 1419 c 2,31,-1
 693 1422 l 1,32,33
 649 1223 649 1223 645 1014 c 1,34,35
 854 1019 854 1019 1052 1062 c 1,36,-1
 1049 1055 l 2,37,38
 997 930 997 930 987 810 c 1,39,-1
 962 816 l 1,40,41
 885 837 885 837 647 846 c 1,42,43
 654 661 654 661 685 544 c 1,44,-1
 693 518 l 1,45,46
 628 512 628 512 571 497 c 0,47,48
 485 474 485 474 441 450 c 1,49,50
 478 637 478 637 480 850 c 1,51,52
 268 848 268 848 81 810 c 1,19,20
EndSplineSet
Validated: 1
EndChar

StartChar: uni00B2
Encoding: 178 178 98
Width: 910
GlyphClass: 2
Flags: W
HStem: 714 115<285.078 711.734> 1492 20G<402.59 446>
VStem: 613 132<1159.5 1265.5>
DStem2: 210 930 310 886 0.861422 0.50789<-1.35935 492.326>
LayerCount: 2
Fore
SplineSet
165 1262 m 0,0,1
 165 1262 165 1262 166 1272 c 0,2,3
 171 1321 171 1321 222 1370 c 0,4,5
 276 1422 276 1422 297 1434 c 2,6,-1
 439 1512 l 1,7,-1
 446 1509 l 2,8,9
 564 1456 564 1456 594 1439 c 0,10,11
 669 1396 669 1396 703 1355 c 0,12,13
 744 1306 744 1306 745 1241 c 1,14,-1
 745 1239 l 2,15,16
 745 1149 745 1149 678 1101 c 128,-1,17
 611 1053 611 1053 449 964 c 1,18,19
 372 924 372 924 310 886 c 2,20,-1
 255 851 l 1,21,22
 369 829 369 829 479 829 c 0,23,24
 484 829 484 829 489 829 c 0,25,26
 616 829 616 829 731 853 c 2,27,-1
 760 859 l 1,28,-1
 746 828 l 2,29,30
 719 767 719 767 713 705 c 2,31,-1
 712 688 l 1,32,-1
 695 692 l 1,33,-1
 682 695 l 1,34,35
 623 704 623 704 473 713 c 0,36,37
 463 714 463 714 457 714 c 0,38,39
 386 712 386 712 290 692 c 2,40,-1
 285 691 l 1,41,-1
 280 693 l 2,42,43
 250 708 250 708 204 756 c 0,44,45
 150 813 150 813 150 846 c 0,46,47
 150 895 150 895 210 930 c 2,48,-1
 383 1032 l 1,49,50
 501 1108 501 1108 558 1150 c 0,51,52
 613 1191 613 1191 613 1233 c 2,53,-1
 613 1235 l 2,54,55
 613 1250 613 1250 605 1266 c 1,56,57
 588 1290 588 1290 536 1318 c 0,58,59
 419 1380 419 1380 316 1403 c 1,60,61
 281 1369 281 1369 281 1332 c 0,62,63
 281 1322 281 1322 281 1322 c 0,64,65
 282 1294 282 1294 328 1274 c 2,66,-1
 354 1262 l 1,67,-1
 212 1170 l 1,68,-1
 204 1179 l 2,69,70
 165 1220 165 1220 165 1262 c 0,0,1
EndSplineSet
Validated: 1
EndChar

StartChar: uni00B3
Encoding: 179 179 99
Width: 963
GlyphClass: 2
Flags: W
HStem: 1490 20G<449.74 492>
VStem: 235 108<1294.61 1381.17> 638 117<1253.31 1321.62> 706 109<872.471 992.585>
LayerCount: 2
Fore
SplineSet
505 717 m 2,0,1
 457 717 457 717 319 780 c 0,2,3
 282 797 282 797 200 861 c 0,4,5
 180 876 180 876 164 895 c 2,6,-1
 150 911 l 1,7,-1
 298 973 l 1,8,-1
 305 964 l 2,9,10
 326 937 326 937 426 888 c 0,11,12
 514 845 514 845 654 823 c 1,13,14
 705 856 705 856 706 924 c 0,15,-1
 706 925 l 0,16,17
 706 983 706 983 611 1016 c 1,18,-1
 363 1106 l 1,19,-1
 541 1183 l 1,20,21
 623 1226 623 1226 634 1253 c 0,22,23
 638 1263 638 1263 638 1268 c 0,24,25
 637 1289 637 1289 616 1306 c 0,26,27
 594 1324 594 1324 542 1350 c 0,28,29
 454 1394 454 1394 371 1407 c 1,30,31
 343 1379 343 1379 343 1351 c 0,32,33
 343 1342 343 1342 344 1338 c 0,34,35
 349 1317 349 1317 388 1293 c 2,36,-1
 419 1274 l 1,37,-1
 254 1232 l 1,38,-1
 249 1243 l 2,39,40
 235 1274 235 1274 235 1296 c 0,41,42
 235 1306 235 1306 237 1314 c 0,43,44
 246 1350 246 1350 275 1377 c 0,45,46
 317 1417 317 1417 351 1437 c 1,47,-1
 487 1510 l 1,48,-1
 492 1509 l 2,49,50
 532 1501 532 1501 603 1469 c 0,51,52
 668 1439 668 1439 713 1394 c 2,53,-1
 714 1393 l 1,54,-1
 714 1392 l 2,55,56
 755 1345 755 1345 755 1282 c 0,57,58
 755 1281 755 1281 755 1279 c 0,59,60
 755 1217 755 1217 682 1175 c 0,61,62
 661 1163 661 1163 630 1155 c 1,63,64
 730 1116 730 1116 763 1089 c 0,65,66
 815 1047 815 1047 815 987 c 0,67,68
 815 967 815 967 812 948 c 8,69,70
 806 903 806 903 751 852 c 0,71,72
 698 803 698 803 670 792 c 1,73,-1
 509 717 l 1,74,-1
 505 717 l 2,0,1
EndSplineSet
Validated: 1
EndChar

StartChar: acute
Encoding: 180 180 100
Width: 770
GlyphClass: 2
Flags: W
HStem: 1128 384
VStem: 150 470
LayerCount: 2
Fore
SplineSet
150 1221 m 17,0,1
 189 1237 189 1237 226 1264 c 0,2,3
 278 1302 278 1302 315 1342 c 0,4,5
 324 1352 324 1352 347 1384 c 0,6,7
 365 1409 365 1409 403 1501 c 24,8,-1
 408 1512 l 9,9,10
 485 1455 485 1455 612 1419 c 0,11,-1
 620 1418 l 1,12,13
 614 1415 l 0,14,15
 611 1413 611 1413 553 1375 c 0,16,17
 503 1342 503 1342 455 1297 c 0,18,19
 444 1287 444 1287 429 1264 c 0,20,21
 386 1199 386 1199 369 1145 c 0,22,23
 364 1129 364 1129 364 1128 c 25,24,25
 360 1129 360 1129 275 1178 c 0,26,27
 222 1209 222 1209 150 1221 c 17,0,1
EndSplineSet
Validated: 1
EndChar

StartChar: periodcentered
Encoding: 183 183 101
Width: 574
GlyphClass: 2
Flags: W
HStem: 498 390
VStem: 169 239<596.494 798.672>
LayerCount: 2
Fore
SplineSet
408 729 m 0,0,1
 408 674 408 674 418 594 c 9,2,3
 346 586 346 586 280 562 c 0,4,5
 193 530 193 530 150 498 c 17,6,7
 169 582 169 582 169 670 c 0,8,9
 169 724 169 724 162 778 c 0,10,-1
 156 799 l 9,11,12
 287 813 287 813 417 888 c 0,13,-1
 424 892 l 9,14,15
 408 834 408 834 408 729 c 0,0,1
EndSplineSet
Validated: 1
EndChar

StartChar: cedilla
Encoding: 184 184 102
Width: 661
GlyphClass: 2
Flags: W
HStem: -425 491
VStem: 333 178<-270.605 -38.2402>
LayerCount: 2
Fore
SplineSet
250 66 m 1,0,1
 511 18 511 18 511 -164 c 0,2,3
 511 -287 511 -287 416 -344 c 0,4,-1
 402 -349 l 9,5,6
 280 -357 280 -357 157 -425 c 0,7,-1
 150 -428 l 1,8,9
 333 -263 333 -263 333 -146 c 0,10,11
 333 -142 333 -142 333 -139 c 0,12,13
 332 -46 332 -46 250 66 c 1,0,1
EndSplineSet
Validated: 1
EndChar

StartChar: uni00B9
Encoding: 185 185 103
Width: 664
GlyphClass: 2
Flags: W
HStem: 1494 20G<496.5 509>
VStem: 344 134<799.281 1366.53>
LayerCount: 2
Fore
SplineSet
309 752 m 1,0,1
 344 903 344 903 344 1097 c 0,2,3
 344 1145 l 0,4,5
 341 1276 341 1276 329 1371 c 1,6,7
 295 1351 295 1351 270 1331 c 1,8,9
 202 1286 202 1286 177 1224 c 1,10,-1
 169 1229 l 2,11,12
 137 1249 137 1249 50 1263 c 1,13,14
 101 1279 101 1279 204 1347 c 0,15,16
 260 1384 260 1384 309 1469 c 1,17,18
 398 1475 398 1475 509 1512 c 2,19,-1
 515 1514 l 1,20,21
 478 1371 478 1371 478 1167 c 0,22,23
 478 1149 l 0,24,25
 480 902 480 902 508 817 c 1,26,-1
 515 799 l 1,27,28
 468 794 468 794 411 783 c 0,29,30
 347 770 347 770 309 752 c 1,0,1
EndSplineSet
Validated: 1
EndChar

StartChar: ordmasculine
Encoding: 186 186 104
Width: 1131
GlyphClass: 2
Flags: W
HStem: 524 163<162.316 985.609> 1492 20G<509.319 553>
VStem: 196 135<1059.4 1287.34> 803 132<975.693 1228.25>
LayerCount: 2
Fore
SplineSet
80 483 m 9,0,1
 103 526 103 526 127 613 c 0,2,3
 141 664 141 664 147 735 c 25,4,-1
 173 727 l 24,5,6
 329 687 329 687 630 687 c 0,7,8
 832 687 832 687 1051 735 c 1,9,-1
 1048 728 l 0,10,11
 996 605 996 605 986 483 c 17,12,-1
 961 489 l 16,13,14
 755 524 755 524 533 524 c 0,15,16
 517 524 517 524 498 524 c 0,17,18
 281 524 281 524 80 483 c 9,0,1
583 760 m 1,19,-1
 578 761 l 2,20,21
 550 766 550 766 466 798 c 0,22,23
 395 825 395 825 336 870 c 0,24,25
 262 926 262 926 232 992 c 1,26,27
 196 1066 196 1066 196 1131 c 0,28,29
 196 1132 196 1132 196 1132 c 0,30,31
 196 1133 196 1133 196 1133.5 c 128,-1,32
 196 1134 196 1134 196 1135 c 0,33,34
 196 1209 196 1209 237 1282 c 0,35,36
 269 1340 269 1340 321 1385 c 0,37,38
 345 1406 345 1406 372 1421 c 1,39,-1
 548 1512 l 1,40,-1
 553 1511 l 2,41,42
 600 1502 600 1502 671 1472 c 0,43,44
 730 1447 730 1447 795 1401 c 1,45,46
 870 1344 870 1344 901 1273 c 1,47,48
 935 1200 935 1200 935 1136 c 2,49,-1
 935 1133 l 2,50,51
 935 1041 935 1041 897 985 c 0,52,53
 841 903 841 903 801 876 c 0,54,55
 783 864 783 864 776 856 c 2,56,-1
 774 854 l 1,57,-1
 583 760 l 1,19,-1
748 891 m 1,58,59
 767 929 767 929 788 1005 c 0,60,61
 803 1058 803 1058 803 1101 c 2,62,-1
 803 1103 l 2,63,64
 803 1125 803 1125 800 1141 c 0,65,66
 791 1190 791 1190 743 1248 c 0,67,68
 706 1294 706 1294 612 1334 c 0,69,70
 538 1366 538 1366 391 1387 c 1,71,72
 370 1353 370 1353 347 1283 c 16,73,74
 331 1234 331 1234 331 1182 c 0,75,76
 331 1119 331 1119 375 1059 c 0,77,78
 431 982 431 982 522 947 c 0,79,80
 589 921 589 921 748 891 c 1,58,59
EndSplineSet
Validated: 1
EndChar

StartChar: guillemotright
Encoding: 187 187 105
Width: 1374
GlyphClass: 2
Flags: W
LayerCount: 2
Fore
SplineSet
799 795 m 1,0,1
 795 789 l 2,2,3
 724 664 724 664 710 543 c 1,4,-1
 707 543 l 2,5,6
 625 543 625 543 462 419 c 0,7,8
 353 336 353 336 186 187 c 0,9,10
 180 182 180 182 150 163 c 1,11,-1
 154 167 l 2,12,13
 206 219 206 219 236 367 c 1,14,-1
 250 367 l 2,15,-1
 264 373 l 0,16,17
 451 486 451 486 590 649 c 1,18,19
 585 672 585 672 458 779 c 0,20,21
 262 945 262 945 158 980 c 1,22,23
 190 1021 190 1021 220 1110 c 0,24,25
 240 1168 240 1168 248 1232 c 1,26,27
 334 1077 334 1077 514 943 c 1,28,29
 737 795 737 795 798 795 c 0,30,-1
 799 795 l 1,0,1
1274 797 m 1,31,-1
 1270 791 l 2,32,33
 1199 666 1199 666 1185 545 c 1,34,-1
 1182 545 l 2,35,36
 1100 545 1100 545 937 421 c 0,37,38
 828 338 828 338 661 189 c 0,39,40
 655 184 655 184 625 165 c 1,41,-1
 629 169 l 2,42,43
 681 221 681 221 711 369 c 1,44,-1
 725 369 l 2,45,-1
 739 375 l 0,46,47
 926 488 926 488 1065 651 c 1,48,49
 1060 674 1060 674 933 781 c 0,50,51
 737 947 737 947 633 982 c 1,52,53
 665 1023 665 1023 695 1112 c 0,54,55
 715 1170 715 1170 723 1234 c 1,56,57
 809 1079 809 1079 989 945 c 1,58,59
 1212 797 1212 797 1273 797 c 0,60,-1
 1274 797 l 1,31,-1
EndSplineSet
Validated: 1
EndChar

StartChar: onequarter
Encoding: 188 188 106
Width: 1327
GlyphClass: 2
Flags: W
HStem: 0 21G<991.5 991.5> 186 51<757.669 1008.88> 1491 20G<449.5 462>
VStem: 297 134<796.281 1363.53> 1011 138<47.2969 183.538 240.694 632.702>
LayerCount: 2
Fore
SplineSet
972 0 m 1,0,1
 1011 74 1011 74 1012 180 c 1,2,3
 950 186 950 186 889 186 c 0,4,-1
 858 186 l 8,5,6
 727 183 727 183 633 174 c 1,7,-1
 600 229 l 1,8,9
 792 429 792 429 972 728 c 1,10,11
 1074 735 1074 735 1182 771 c 2,12,-1
 1188 773 l 1,13,14
 1149 628 1149 628 1149 429 c 0,15,-1
 1149 403 l 0,16,17
 1157 136 1157 136 1181 66 c 1,18,-1
 1188 47 l 1,19,20
 1129 43 1129 43 1083 33 c 0,21,22
 1011 17 1011 17 972 0 c 1,0,1
983 637 m 1,23,24
 834 429 834 429 756 246 c 1,25,26
 782 237 782 237 889 237 c 0,27,28
 901 237 901 237 913 237 c 0,29,30
 943 237 943 237 1011 246 c 1,31,32
 1011 276 1011 276 1011 276 c 0,33,34
 1010 321 1010 321 1007 422 c 0,35,36
 1005 499 1005 499 983 637 c 1,23,24
0 -127 m 1,37,38
 310 382 310 382 524 816 c 0,39,40
 742 1259 742 1259 866 1664 c 1,41,42
 909 1632 909 1632 996 1600 c 0,43,44
 1053 1580 1053 1580 1118 1572 c 1,45,46
 896 1200 896 1200 680 741 c 1,47,48
 419 213 419 213 252 -216 c 1,49,-1
 245 -212 l 2,50,51
 121 -141 121 -141 0 -127 c 1,37,38
262 749 m 1,52,53
 297 900 297 900 297 1094 c 0,54,55
 297 1118 297 1118 296 1142 c 0,56,57
 294 1277 294 1277 282 1368 c 1,58,59
 248 1348 248 1348 223 1328 c 1,60,61
 155 1283 155 1283 130 1221 c 1,62,-1
 122 1226 l 2,63,64
 89 1246 89 1246 3 1260 c 1,65,66
 54 1276 54 1276 157 1344 c 0,67,68
 213 1381 213 1381 262 1466 c 1,69,70
 360 1473 360 1473 462 1509 c 2,71,-1
 468 1511 l 1,72,73
 431 1368 431 1368 431 1164 c 0,74,75
 431 1164 431 1164 431 1146 c 0,76,77
 431 903 431 903 461 814 c 1,78,-1
 468 796 l 1,79,80
 412 791 412 791 368 781 c 0,81,82
 301 767 301 767 262 749 c 1,52,53
EndSplineSet
Validated: 1
EndChar

StartChar: onehalf
Encoding: 189 189 107
Width: 1515
GlyphClass: 2
Flags: W
HStem: 0 21G<1300.18 1318.46> 25.9082 115.625<889.623 1316.74> 1494.02 20G<449.362 462>
VStem: 297.28 133.734<798.824 1366.73> 769.864 115.8<536.171 656.629> 1218.11 132.3<470.821 577.471>
DStem2: 815.309 242.374 915.479 197.881 0.860218 0.509926<-1.789 491.743>
LayerCount: 2
Fore
SplineSet
769.864 574.495 m 0,0,1
 769.864 579.322 769.864 579.322 770.583 584.049 c 0,2,3
 778.501 636.122 778.501 636.122 826.726 682.425 c 0,4,5
 879.639 733.229 879.639 733.229 902.478 745.831 c 2,6,-1
 1044.31 824.095 l 1,7,-1
 1051.13 821.047 l 2,8,9
 1172.28 766.924 1172.28 766.924 1198.9 751.374 c 0,10,11
 1276.93 705.777 1276.93 705.777 1308.48 667.58 c 0,12,13
 1349.22 618.255 1349.22 618.255 1350.41 553.228 c 1,14,-1
 1350.41 551.522 l 2,15,16
 1350.41 461.886 1350.41 461.886 1282.52 413.483 c 0,17,18
 1212.71 363.715 1212.71 363.715 1054.25 275.664 c 1,19,20
 976.687 236.255 976.687 236.255 915.479 197.881 c 2,21,-1
 860.2 163.137 l 1,22,23
 974.504 141.533 974.504 141.533 1093.96 141.533 c 0,24,25
 1223.88 141.533 1223.88 141.533 1336.23 164.719 c 2,26,-1
 1365.03 170.662 l 1,27,-1
 1351.28 140.195 l 2,28,29
 1323.72 79.1162 1323.72 79.1162 1318.46 17.1885 c 2,30,-1
 1317 0 l 1,31,-1
 1300.18 3.83301 l 1,32,-1
 1286.95 6.86816 l 1,33,34
 1227.91 16.0371 1227.91 16.0371 1078.17 25.416 c 0,35,36
 1069.47 25.9609 1069.47 25.9609 1061.57 25.9082 c 0,37,38
 996.972 25.4775 996.972 25.4775 894.677 3.78418 c 2,39,-1
 889.543 2.69531 l 1,40,-1
 884.851 5.04492 l 2,41,42
 852.084 21.4521 852.084 21.4521 808.586 67.7021 c 0,43,44
 755.014 124.674 755.014 124.674 755.014 157.859 c 0,45,46
 755.014 206.647 755.014 206.647 815.309 242.374 c 2,47,-1
 987.693 344.517 l 1,48,49
 1102.24 416.667 1102.24 416.667 1162.53 461.728 c 0,50,51
 1218.11 503.27 1218.11 503.27 1218.11 545.258 c 2,52,-1
 1218.11 547.346 l 2,53,54
 1218.11 561.74 1218.11 561.74 1210.18 577.978 c 1,55,56
 1194.32 601.552 1194.32 601.552 1140.89 629.608 c 0,57,58
 1019.13 693.554 1019.13 693.554 920.786 715.349 c 1,59,60
 885.664 681.505 885.664 681.505 885.664 643.934 c 0,61,62
 885.664 638.679 885.664 638.679 886.142 633.916 c 0,63,64
 889.078 604.64 889.078 604.64 933.236 585.667 c 2,65,-1
 959.028 574.585 l 1,66,-1
 817.289 482.598 l 1,67,-1
 808.703 491.524 l 2,68,69
 769.864 531.904 769.864 531.904 769.864 574.495 c 0,0,1
47 -127 m 1,70,71
 357 382 357 382 571 816 c 0,72,73
 789 1259 789 1259 913 1664 c 1,74,75
 956 1632 956 1632 1043 1600 c 0,76,77
 1100 1580 1100 1580 1165 1572 c 1,78,79
 943 1200 943 1200 727 741 c 1,80,81
 466 213 466 213 299 -216 c 1,82,-1
 292 -212 l 2,83,84
 168 -141 168 -141 47 -127 c 1,70,71
262.217 752.152 m 1,85,86
 297.28 902.912 297.28 902.912 297.28 1096.53 c 0,87,88
 297.28 1122.24 297.28 1122.24 296.465 1145.44 c 0,89,90
 290.757 1301.74 290.757 1301.74 281.787 1371.33 c 1,91,92
 247.538 1350.65 247.538 1350.65 223.075 1331.49 c 1,93,94
 155.394 1286.11 155.394 1286.11 130.115 1224.1 c 1,95,-1
 121.96 1229.14 l 2,96,97
 89.3428 1249.31 89.3428 1249.31 2.90527 1262.92 c 1,98,99
 56.7246 1280.06 56.7246 1280.06 157.024 1346.62 c 0,100,101
 212.475 1383.43 212.475 1383.43 262.217 1469.14 c 1,102,103
 360.069 1476.2 360.069 1476.2 462 1512 c 2,104,-1
 467.709 1514.02 l 1,105,106
 431.014 1371.33 431.014 1371.33 431.014 1167.12 c 0,107,108
 431.014 1158.55 431.014 1158.55 431.014 1149.47 c 0,109,110
 431.014 906.945 431.014 906.945 461.186 816.691 c 1,111,-1
 467.709 798.54 l 1,112,113
 412.258 794.506 412.258 794.506 368.225 784.422 c 0,114,115
 297.28 768.287 297.28 768.287 262.217 752.152 c 1,85,86
EndSplineSet
Validated: 1
EndChar

StartChar: threequarters
Encoding: 190 190 108
Width: 1597
GlyphClass: 2
Flags: W
HStem: 0 21G<1249.5 1249.5> 186 51<1015.67 1266.88> 1493 20G<368.74 411>
VStem: 154 108<1297.49 1384.66> 557 117<1237.01 1324.94> 625 107<873.057 994.544> 1269 138<47.2969 183.538 240.694 632.702>
LayerCount: 2
Fore
SplineSet
1230 0 m 1,0,1
 1269 74 1269 74 1270 180 c 1,2,3
 1208 186 1208 186 1147 186 c 0,4,-1
 1116 186 l 8,5,6
 985 183 985 183 891 174 c 1,7,-1
 858 229 l 1,8,9
 1050 429 1050 429 1230 728 c 1,10,11
 1332 735 1332 735 1440 771 c 2,12,-1
 1446 773 l 1,13,14
 1407 628 1407 628 1407 429 c 0,15,-1
 1407 403 l 0,16,17
 1415 136 1415 136 1439 66 c 1,18,-1
 1446 47 l 1,19,20
 1387 43 1387 43 1341 33 c 0,21,22
 1269 17 1269 17 1230 0 c 1,0,1
1241 637 m 1,23,24
 1092 429 1092 429 1014 246 c 1,25,26
 1040 237 1040 237 1147 237 c 0,27,28
 1159 237 1159 237 1171 237 c 0,29,30
 1201 237 1201 237 1269 246 c 1,31,32
 1269 276 1269 276 1269 276 c 0,33,34
 1268 321 1268 321 1265 422 c 0,35,36
 1263 499 1263 499 1241 637 c 1,23,24
69 914 m 1,37,-1
 217 976 l 1,38,-1
 223 966 l 2,39,40
 241 943 241 943 345 891 c 0,41,42
 432 848 432 848 572 826 c 1,43,44
 625 860 625 860 625 927 c 0,45,46
 625 986 625 986 529 1019 c 1,47,-1
 281 1109 l 1,48,-1
 460 1186 l 1,49,50
 540 1228 540 1228 553 1256 c 0,51,52
 557 1266 557 1266 557 1271 c 0,53,54
 555 1292 555 1292 535 1309 c 0,55,56
 514 1327 514 1327 461 1353 c 0,57,58
 369 1398 369 1398 289 1410 c 1,59,60
 262 1382 262 1382 262 1354 c 0,61,62
 262 1347 262 1347 263 1340 c 0,63,64
 266 1320 266 1320 307 1296 c 2,65,-1
 338 1277 l 1,66,-1
 173 1235 l 1,67,-1
 168 1246 l 2,68,69
 154 1275 154 1275 154 1299 c 0,70,71
 154 1309 154 1309 156 1317 c 0,72,73
 164 1350 164 1350 194 1380 c 0,74,75
 232 1418 232 1418 270 1440 c 1,76,-1
 406 1513 l 1,77,-1
 411 1512 l 2,78,79
 448 1505 448 1505 521 1472 c 0,80,81
 580 1445 580 1445 631 1397 c 2,82,-1
 632 1396 l 1,83,-1
 633 1395 l 2,84,85
 674 1340 674 1340 674 1286 c 0,86,87
 674 1220 674 1220 600 1178 c 0,88,89
 579 1166 579 1166 549 1158 c 1,90,91
 651 1118 651 1118 682 1092 c 0,92,93
 732 1050 732 1050 732 978 c 0,94,95
 732 972 732 972 732 972 c 0,96,97
 731 956 731 956 730 951 c 0,98,99
 718 898 718 898 670 855 c 0,100,101
 617 807 617 807 589 795 c 1,102,-1
 428 720 l 1,103,-1
 424 720 l 2,104,105
 356 727 356 727 237 783 c 0,106,107
 189 805 189 805 119 863 c 0,108,109
 102 877 102 877 83 898 c 2,110,-1
 69 914 l 1,37,-1
294 -128 m 1,111,112
 604 381 604 381 818 815 c 0,113,114
 1036 1258 1036 1258 1160 1663 c 1,115,116
 1203 1631 1203 1631 1290 1599 c 0,117,118
 1347 1579 1347 1579 1412 1571 c 1,119,120
 1190 1199 1190 1199 974 740 c 1,121,122
 713 212 713 212 546 -217 c 1,123,-1
 539 -213 l 2,124,125
 415 -142 415 -142 294 -128 c 1,111,112
EndSplineSet
Validated: 1
EndChar

StartChar: questiondown
Encoding: 191 191 109
Width: 1240
GlyphClass: 2
Flags: W
HStem: 0 21G<538.5 683.406>
VStem: 121 185<426.25 617.973> 545 239<1281.49 1483.67> 612 202<957.966 1051.28> 966 154<313 445>
LayerCount: 2
Fore
SplineSet
784 1414 m 0,0,1
 784 1359 784 1359 794 1279 c 9,2,3
 722 1271 722 1271 656 1247 c 0,4,5
 569 1215 569 1215 526 1183 c 17,6,7
 545 1267 545 1267 545 1355 c 0,8,9
 545 1409 545 1409 538 1463 c 0,10,-1
 532 1484 l 9,11,12
 663 1498 663 1498 793 1573 c 0,13,-1
 800 1577 l 9,14,15
 784 1519 784 1519 784 1414 c 0,0,1
790 1205 m 1,16,17
 814 1144 814 1144 814 1090 c 0,18,19
 814 982 814 982 718 903 c 0,20,-1
 582 808 l 1,21,22
 565 798 565 798 419 685 c 0,23,24
 306 598 306 598 306 503 c 0,25,26
 306 465 306 465 325 425 c 1,27,28
 357 373 357 373 461 315 c 0,29,30
 688 187 688 187 883 145 c 1,31,32
 966 223 966 223 966 313 c 0,33,34
 966 324 966 324 965 335 c 0,35,36
 958 408 958 408 863 451 c 1,37,-1
 1059 585 l 1,38,39
 1120 518 1120 518 1120 445 c 0,40,41
 1121 439 1121 439 1120 432 c 0,42,43
 1107 343 1107 343 1026 260 c 0,44,45
 934 166 934 166 895 143 c 2,46,-1
 649 0 l 1,47,48
 428 104 428 104 383 132 c 0,49,50
 245 218 245 218 191 286 c 1,51,52
 123 373 123 373 121 487 c 1,53,-1
 121 490 l 0,54,55
 121 633 121 633 233 731 c 0,56,57
 316 803 316 803 470 887 c 1,58,-1
 564 939 l 0,59,60
 612 973 612 973 612 1004 c 0,61,62
 613 1029 613 1029 580 1052 c 1,63,-1
 790 1205 l 1,16,17
EndSplineSet
Validated: 1
EndChar

StartChar: multiply
Encoding: 215 215 110
Width: 1131
GlyphClass: 2
Flags: W
VStem: 443.633 232.801<579.599 812.401>
LayerCount: 2
Fore
SplineSet
133.108 950.215 m 1,0,1
 179.819 964.315 179.819 964.315 258.068 1009.1 c 0,2,3
 307.099 1037.85 307.099 1037.85 358.788 1080.92 c 1,4,-1
 371.714 1056.68 l 1,5,6
 433.064 952.793 433.064 952.793 559.028 816.186 c 1,7,8
 720.335 990.96 720.335 990.96 760.481 1060.67 c 1,9,-1
 773.789 1082.47 l 1,10,11
 865.432 1004.71 865.432 1004.71 990.906 953.101 c 2,12,-1
 997.921 950.215 l 1,13,14
 827.089 840.401 827.089 840.401 676.434 696 c 1,15,16
 827.089 551.599 827.089 551.599 997.921 441.785 c 1,17,-1
 990.906 438.899 l 2,18,19
 865.433 387.292 865.433 387.292 773.789 309.534 c 1,20,-1
 760.481 331.328 l 1,21,22
 720.334 401.04 720.334 401.04 559.028 575.814 c 1,23,24
 433.064 439.207 433.064 439.207 371.714 335.322 c 1,25,-1
 358.788 311.083 l 1,26,27
 307.099 354.146 307.099 354.146 258.068 382.896 c 0,28,29
 179.819 427.685 179.819 427.685 133.108 441.785 c 1,30,31
 291.976 547.126 291.976 547.126 443.633 696 c 1,32,33
 291.976 844.874 291.976 844.874 133.108 950.215 c 1,0,1
EndSplineSet
Validated: 1
EndChar

StartChar: divide
Encoding: 247 247 111
Width: 1131
GlyphClass: 2
Flags: W
HStem: 611 163<162.316 985.609>
VStem: 451 239<176.494 378.672 1018.49 1220.67>
LayerCount: 2
Fore
SplineSet
690 309 m 0,0,1
 690 254 690 254 700 174 c 9,2,3
 628 166 628 166 562 142 c 0,4,5
 475 110 475 110 432 78 c 17,6,7
 451 162 451 162 451 250 c 0,8,9
 451 304 451 304 444 358 c 0,10,-1
 438 379 l 9,11,12
 569 393 569 393 699 468 c 0,13,-1
 706 472 l 9,14,15
 690 414 690 414 690 309 c 0,0,1
688 1151 m 0,16,17
 688 1096 688 1096 698 1016 c 9,18,19
 626 1008 626 1008 560 984 c 0,20,21
 473 952 473 952 430 920 c 17,22,23
 449 1004 449 1004 449 1092 c 0,24,25
 449 1146 449 1146 442 1200 c 0,26,-1
 436 1221 l 9,27,28
 567 1235 567 1235 697 1310 c 0,29,-1
 704 1314 l 9,30,31
 688 1256 688 1256 688 1151 c 0,16,17
80 570 m 9,32,33
 103 613 103 613 127 700 c 0,34,35
 141 751 141 751 147 822 c 25,36,-1
 173 814 l 24,37,38
 329 774 329 774 630 774 c 0,39,40
 832 774 832 774 1051 822 c 1,41,-1
 1048 815 l 0,42,43
 996 692 996 692 986 570 c 17,44,-1
 961 576 l 16,45,46
 755 611 755 611 533 611 c 0,47,48
 517 611 517 611 498 611 c 0,49,50
 281 611 281 611 80 570 c 9,32,33
EndSplineSet
Validated: 1
EndChar

StartChar: Delta
Encoding: 916 916 112
Width: 1306
GlyphClass: 2
Flags: W
HStem: 0 21G<3 129> 49 162<241.652 947.09> 1491 20G<754 777.5>
VStem: 509 252<1260.22 1428.5>
DStem2: 4 8 616 1214 0.400142 0.916453<383.516 1185.22>
LayerCount: 2
Fore
SplineSet
1306 2 m 1,0,1
 1290 9 1290 9 1280 10 c 0,2,3
 891 49 891 49 541 49 c 0,4,5
 482 49 482 49 421 48 c 0,6,7
 258 45 258 45 0 0 c 1,8,-1
 3 7 l 1,9,-1
 4 8 l 1,10,11
 128 249 128 249 310 710 c 0,12,13
 467 1108 467 1108 505 1382 c 0,14,15
 509 1411 509 1411 509 1419 c 2,16,-1
 509 1422 l 1,17,18
 630 1436 630 1436 754 1507 c 2,19,-1
 761 1511 l 1,20,21
 794 1204 794 1204 964 751 c 1,22,23
 1147 293 1147 293 1306 2 c 1,0,1
957 232 m 1,24,-1
 805 721 l 1,25,26
 666 1155 666 1155 616 1214 c 1,27,28
 562 1135 562 1135 402 704 c 0,29,30
 284 385 284 385 237 233 c 1,31,32
 386 211 386 211 518 211 c 2,33,-1
 553 211 l 2,34,35
 776 211 776 211 957 232 c 1,24,-1
EndSplineSet
Validated: 1
EndChar

StartChar: Pi
Encoding: 928 928 113
Width: 1320
GlyphClass: 2
Flags: W
HStem: 0 21G<180.5 180.5 939.5 939.5> 1298 163<391.97 932.647> 1490 20G<152.735 164 1056 1147.5>
VStem: 202 165<209.313 1212.18> 961 164<286.748 1279.56>
LayerCount: 2
Fore
SplineSet
159 0 m 1,0,1
 202 298 202 298 202 672 c 0,2,3
 202 726 202 726 201 780 c 0,4,5
 193 1221 193 1221 166 1393 c 1,6,-1
 150 1510 l 1,7,8
 178 1500 178 1500 185 1498 c 0,9,10
 315 1461 315 1461 697 1461 c 0,11,12
 707 1461 707 1461 717 1461 c 0,13,14
 942 1461 942 1461 1170 1511 c 1,15,16
 1125 1228 1125 1228 1125 823 c 2,17,-1
 1125 788 l 2,18,19
 1125 307 1125 307 1162 128 c 1,20,-1
 1170 92 l 1,21,22
 1103 84 1103 84 1048 64 c 0,23,24
 961 32 961 32 918 0 c 1,25,26
 961 316 961 316 961 694 c 0,27,28
 961 772 961 772 959 845 c 0,29,30
 951 1143 951 1143 937 1284 c 1,31,32
 798 1298 798 1298 620 1298 c 2,33,-1
 585 1298 l 2,34,35
 484 1298 484 1298 389 1289 c 1,36,37
 368 1051 368 1051 367 713 c 1,38,39
 371 284 371 284 403 128 c 1,40,-1
 411 92 l 1,41,42
 343 84 343 84 289 64 c 0,43,44
 202 32 202 32 159 0 c 1,0,1
EndSplineSet
Validated: 1
EndChar

StartChar: Sigma
Encoding: 931 931 114
Width: 1167
GlyphClass: 2
Flags: W
HStem: 0 21G<189 199.5 954 983.5> 46 90<439.625 852.225> 1258 252<771.231 919.522> 1258 202<652.375 915.75>
LayerCount: 2
Fore
SplineSet
516 756 m 1,0,1
 350 1156 350 1156 150 1404 c 0,2,-1
 140 1414 l 2,3,-1
 136 1422 l 1,4,5
 257 1436 257 1436 381 1507 c 2,6,-1
 388 1511 l 1,7,8
 393 1510 393 1510 419 1500 c 0,9,10
 523 1460 523 1460 643 1460 c 0,11,-1
 648 1460 l 0,12,13
 843 1460 843 1460 994 1510 c 1,14,-1
 991 1503 l 1,15,16
 923 1380 923 1380 915 1258 c 1,17,-1
 908 1258 l 1,18,19
 666 1269 666 1269 544 1360 c 1,20,21
 426 1451 426 1451 385 1491 c 1,22,23
 440 1178 440 1178 728 760 c 1,24,25
 723 749 723 749 716 738 c 0,26,27
 501 400 501 400 438 144 c 1,28,29
 466 136 466 136 485 136 c 0,30,31
 818 136 818 136 1047 252 c 1,32,33
 1024 209 1024 209 1000 122 c 0,34,35
 987 73 987 73 980 0 c 1,36,-1
 954 8 l 2,37,38
 830 46 830 46 574 46 c 0,39,40
 298 46 298 46 80 0 c 1,41,42
 319 334 319 334 516 756 c 1,0,1
EndSplineSet
Validated: 1
EndChar

StartChar: Omega
Encoding: 937 937 115
Width: 1522
VWidth: 0
GlyphClass: 2
Flags: W
HStem: 0 21G<11.5 108 646 676 988 1024 1432 1462> 44 164<67.4062 427.937 1092.01 1456.61> 1495 20G<704.951 767>
VStem: 203 161<615.5 1002.19> 1157 160<490.405 912.019>
LayerCount: 2
Fore
SplineSet
0 0 m 1,0,1
 23 43 23 43 47 130 c 0,2,3
 61 181 61 181 67 252 c 1,4,-1
 93 244 l 1,5,6
 220 208 220 208 418 208 c 0,7,8
 423 208 423 208 429 208 c 1,9,-1
 414 223 l 1,10,11
 302 336 302 336 257 470 c 1,12,13
 203 621 203 621 203 750 c 2,14,-1
 203 755 l 2,15,16
 203 896 203 896 265 1050 c 0,17,18
 310 1163 310 1163 391 1257 c 0,19,20
 456 1333 456 1333 514 1372 c 1,21,-1
 736 1515 l 1,22,23
 798 1498 798 1498 917 1434 c 0,24,25
 1006 1386 1006 1386 1107 1289 c 1,26,27
 1220 1175 1220 1175 1265 1034 c 1,28,29
 1316 885 1316 885 1317 757 c 1,30,-1
 1317 751 l 2,31,32
 1317 594 1317 594 1261 459 c 0,33,34
 1198 308 1198 308 1094 204 c 0,35,36
 1092 202 1092 202 1092 201 c 0,37,38
 1092 197 1092 197 1114 197 c 0,39,40
 1185 197 1185 197 1522 252 c 1,41,-1
 1519 245 l 2,42,43
 1467 124 1467 124 1457 0 c 1,44,-1
 1432 6 l 1,45,46
 1264 39 1264 39 1223 39 c 2,47,-1
 1188 39 l 2,48,49
 1020 39 1020 39 956 0 c 1,50,51
 1092 247 1092 247 1132 423 c 0,52,53
 1157 534 1157 534 1157 662 c 0,54,55
 1157 713 1157 713 1151 763 c 0,56,57
 1136 890 1136 890 1057 1034 c 0,58,59
 986 1163 986 1163 843 1247 c 0,60,61
 699 1331 699 1331 526 1370 c 1,62,-1
 525 1369 l 1,63,64
 441 1320 441 1320 394 1104 c 0,65,66
 364 965 364 965 364 848 c 0,67,68
 364 796 364 796 370 749 c 0,69,70
 387 618 387 618 484.5 481 c 129,-1,71
 582 344 582 344 736 252 c 1,72,-1
 733 245 l 2,73,74
 681 124 681 124 671 0 c 1,75,-1
 646 6 l 1,76,77
 452 44 452 44 382 44 c 2,78,-1
 347 44 l 2,79,80
 216 44 216 44 0 0 c 1,0,1
EndSplineSet
Validated: 1
EndChar

StartChar: mu
Encoding: 956 956 116
Width: 1180
GlyphClass: 2
Flags: W
HStem: 0 21G<574 634.206 785 788> 1110 20G<330.5 332.5 1008.5 1011>
VStem: 104 252<-204.07 -41.0312> 149 157<-184.628 155.908 393.857 1016.19> 828 164<157 1015.5>
LayerCount: 2
Fore
SplineSet
104 -266 m 1,0,1
 149 -172 149 -172 149 -26 c 1,2,3
 149 417 149 417 145 562 c 24,4,5
 136 854 136 854 108 1002 c 1,6,-1
 100 1038 l 1,7,8
 167 1046 167 1046 222 1066 c 0,9,10
 309 1098 309 1098 352 1130 c 1,11,12
 313 868 313 868 313 623 c 0,13,14
 314 591 314 591 314 566 c 0,15,16
 314 451 314 451 350 392 c 1,17,18
 410 304 410 304 524 247 c 0,19,20
 624 197 624 197 820 157 c 1,21,-1
 821 157 l 1,22,23
 828 230 828 230 828 481 c 2,24,-1
 828 516 l 2,25,26
 828 797 828 797 786 1002 c 1,27,-1
 778 1038 l 1,28,29
 846 1046 846 1046 900 1066 c 0,30,31
 987 1098 987 1098 1030 1130 c 1,32,33
 992 830 992 830 992 632 c 0,34,35
 992 533 992 533 993 524 c 0,36,37
 995 291 995 291 1025 105 c 1,38,-1
 1030 89 l 1,39,40
 909 75 909 75 785 4 c 2,41,-1
 778 0 l 1,42,43
 798 59 798 59 821 136 c 1,44,-1
 602 0 l 1,45,46
 546 14 546 14 461 58 c 0,47,48
 389 95 389 95 321 158 c 1,49,50
 306 91 306 91 306 30 c 0,51,52
 306 15 306 15 307 2 c 0,53,54
 316 -118 316 -118 348 -182 c 0,55,56
 356 -198 356 -198 356 -199 c 0,57,58
 291 -205 291 -205 234 -219 c 0,59,60
 154 -239 154 -239 104 -266 c 1,0,1
EndSplineSet
Validated: 1
EndChar

StartChar: pi
Encoding: 960 960 117
Width: 1198
GlyphClass: 2
Flags: W
HStem: 0 21G<152.5 152.5 828 829.5> 890 163<371.97 802.812>
VStem: 174 166<190.32 879.078> 848 167<286.748 877.625>
LayerCount: 2
Fore
SplineSet
131 0 m 1,0,1
 174 306 174 306 174 693 c 0,2,3
 174 728 174 728 170 778 c 0,4,5
 160 904 160 904 146 985 c 1,6,-1
 130 1102 l 1,7,8
 162 1091 162 1091 165 1090 c 0,9,10
 338 1053 338 1053 679 1053 c 0,11,12
 688 1053 688 1053 697 1053 c 0,13,14
 840 1053 840 1053 1068 1103 c 1,15,16
 1015 922 1015 922 1015 823 c 2,17,-1
 1015 788 l 2,18,19
 1015 307 1015 307 1052 128 c 1,20,-1
 1060 92 l 1,21,22
 992 84 992 84 938 64 c 0,23,24
 851 32 851 32 808 0 c 1,25,26
 848 337 848 337 848 554 c 0,27,28
 848 639 848 639 842 706 c 0,29,30
 828 866 828 866 806 880 c 1,31,32
 704 890 704 890 600 890 c 2,33,-1
 565 890 l 2,34,35
 464 890 464 890 369 881 c 1,36,37
 344 820 344 820 340 696 c 1,38,39
 344 267 344 267 375 128 c 1,40,-1
 383 92 l 1,41,42
 316 84 316 84 261 64 c 0,43,44
 174 32 174 32 131 0 c 1,0,1
EndSplineSet
Validated: 1
EndChar

StartChar: uni2010
Encoding: 8208 8208 118
Width: 1056
GlyphClass: 2
Flags: W
HStem: 644 164<227.406 830.609>
LayerCount: 2
Fore
SplineSet
160 600 m 9,0,1
 183 643 183 643 207 730 c 0,2,3
 221 781 221 781 227 852 c 25,4,-1
 253 844 l 24,5,6
 380 808 380 808 578 808 c 0,7,8
 695 808 695 808 896 852 c 1,9,-1
 893 845 l 0,10,11
 841 722 841 722 831 600 c 17,12,-1
 806 606 l 16,13,14
 612 644 612 644 542 644 c 0,15,16
 526 644 526 644 507 644 c 0,17,18
 376 644 376 644 160 600 c 9,0,1
EndSplineSet
Validated: 1
EndChar

StartChar: uni2011
Encoding: 8209 8209 119
Width: 1056
GlyphClass: 2
Flags: W
HStem: 644 164<227.406 830.609>
LayerCount: 2
Fore
SplineSet
160 600 m 9,0,1
 183 643 183 643 207 730 c 0,2,3
 221 781 221 781 227 852 c 25,4,-1
 253 844 l 24,5,6
 380 808 380 808 578 808 c 0,7,8
 695 808 695 808 896 852 c 1,9,-1
 893 845 l 0,10,11
 841 722 841 722 831 600 c 17,12,-1
 806 606 l 16,13,14
 612 644 612 644 542 644 c 0,15,16
 526 644 526 644 507 644 c 0,17,18
 376 644 376 644 160 600 c 9,0,1
EndSplineSet
Validated: 1
EndChar

StartChar: figuredash
Encoding: 8210 8210 120
Width: 1131
GlyphClass: 2
Flags: W
HStem: 611 163<162.316 985.609>
LayerCount: 2
Fore
SplineSet
80 570 m 9,0,1
 103 613 103 613 127 700 c 0,2,3
 141 751 141 751 147 822 c 25,4,-1
 173 814 l 24,5,6
 329 774 329 774 630 774 c 0,7,8
 832 774 832 774 1051 822 c 1,9,-1
 1048 815 l 0,10,11
 996 692 996 692 986 570 c 17,12,-1
 961 576 l 16,13,14
 755 611 755 611 533 611 c 0,15,16
 517 611 517 611 498 611 c 0,17,18
 281 611 281 611 80 570 c 9,0,1
EndSplineSet
Validated: 1
EndChar

StartChar: endash
Encoding: 8211 8211 121
Width: 1131
GlyphClass: 2
Flags: W
HStem: 611 163<162.316 985.609>
LayerCount: 2
Fore
SplineSet
80 570 m 9,0,1
 103 613 103 613 127 700 c 0,2,3
 141 751 141 751 147 822 c 25,4,-1
 173 814 l 24,5,6
 329 774 329 774 630 774 c 0,7,8
 832 774 832 774 1051 822 c 1,9,-1
 1048 815 l 0,10,11
 996 692 996 692 986 570 c 17,12,-1
 961 576 l 16,13,14
 755 611 755 611 533 611 c 0,15,16
 517 611 517 611 498 611 c 0,17,18
 281 611 281 611 80 570 c 9,0,1
EndSplineSet
Validated: 1
EndChar

StartChar: emdash
Encoding: 8212 8212 122
Width: 1083
GlyphClass: 2
Flags: W
HStem: 647 163<127.789 1017.61>
LayerCount: 2
Fore
SplineSet
0 598 m 9,0,1
 23 641 23 641 47 728 c 0,2,3
 61 779 61 779 67 850 c 25,4,-1
 93 842 l 24,5,6
 193 810 193 810 630 810 c 0,7,8
 855 810 855 810 1083 860 c 1,9,-1
 1080 853 l 0,10,11
 1028 730 1028 730 1018 608 c 17,12,-1
 993 614 l 16,13,14
 810 647 810 647 533 647 c 0,15,16
 517 647 517 647 498 647 c 0,17,18
 241 647 241 647 0 598 c 9,0,1
EndSplineSet
Validated: 1
EndChar

StartChar: afii00208
Encoding: 8213 8213 123
Width: 1083
GlyphClass: 2
Flags: W
HStem: 647 163<127.789 1017.61>
LayerCount: 2
Fore
SplineSet
0 598 m 9,0,1
 23 641 23 641 47 728 c 0,2,3
 61 779 61 779 67 850 c 25,4,-1
 93 842 l 24,5,6
 193 810 193 810 630 810 c 0,7,8
 855 810 855 810 1083 860 c 1,9,-1
 1080 853 l 0,10,11
 1028 730 1028 730 1018 608 c 17,12,-1
 993 614 l 16,13,14
 810 647 810 647 533 647 c 0,15,16
 517 647 517 647 498 647 c 0,17,18
 241 647 241 647 0 598 c 9,0,1
EndSplineSet
Validated: 1
EndChar

StartChar: underscoredbl
Encoding: 8215 8215 124
Width: 1131
GlyphClass: 2
Flags: W
HStem: 0 21G<91.5 180.5 961 991> 41 163<162.316 985.609>
LayerCount: 2
Fore
SplineSet
80 0 m 9,0,1
 103 43 103 43 127 130 c 0,2,3
 141 181 141 181 147 252 c 25,4,-1
 173 244 l 24,5,6
 329 204 329 204 630 204 c 0,7,8
 832 204 832 204 1051 252 c 1,9,-1
 1048 245 l 0,10,11
 996 122 996 122 986 0 c 17,12,-1
 961 6 l 16,13,14
 755 41 755 41 533 41 c 0,15,16
 516 41 516 41 498 41 c 0,17,18
 281 41 281 41 80 0 c 9,0,1
EndSplineSet
Validated: 1
EndChar

StartChar: quoteleft
Encoding: 8216 8216 125
Width: 649
GlyphClass: 2
Flags: W
HStem: 936 571 1492 20G<371 375>
VStem: 157 342
DStem2: 392 1274 250 1197 0.284088 -0.958798<-152.455 215.129>
LayerCount: 2
Fore
SplineSet
273 936 m 17,0,1
 280 974 280 974 280 1014 c 0,2,3
 280 1092 280 1092 255 1179 c 0,4,5
 251 1192 251 1192 250 1197 c 0,6,7
 221 1296 221 1296 157 1374 c 24,8,-1
 150 1384 l 9,9,10
 265 1425 265 1425 371 1507 c 0,11,-1
 377 1512 l 1,12,13
 373 1470 373 1470 373 1430 c 0,14,15
 373 1346 373 1346 392 1274 c 0,16,17
 396 1260 396 1260 400 1247 c 0,18,19
 438 1133 438 1133 487 1080 c 0,20,21
 499 1067 499 1067 499 1066 c 25,22,23
 437 1049 437 1049 383 1017 c 0,24,25
 318 979 318 979 273 936 c 17,0,1
EndSplineSet
Validated: 1
EndChar

StartChar: quoteright
Encoding: 8217 8217 126
Width: 649
GlyphClass: 2
Flags: W
HStem: 936 576
VStem: 150 349
LayerCount: 2
Fore
SplineSet
376 936 m 9,0,1
 332 978 332 978 263 1015 c 0,2,3
 212 1042 212 1042 150 1066 c 25,4,5
 150 1067 150 1067 162 1080 c 0,6,7
 201 1121 201 1121 249 1247 c 0,8,9
 255 1263 255 1263 258 1274 c 0,10,11
 276.692 1347.38 276.692 1347.38 276.692 1433.23 c 0,12,13
 276.692 1471.38 276.692 1471.38 273 1512 c 1,14,-1
 279 1507 l 0,15,16
 384 1425 384 1425 499 1384 c 17,17,-1
 493 1374 l 24,18,19
 429 1296 429 1296 400 1197 c 0,20,21
 399 1195 399 1195 392 1174 c 0,22,23
 367.468 1096 367.468 1096 367.468 1021.96 c 0,24,25
 367.468 978.29 367.468 978.29 376 936 c 9,0,1
EndSplineSet
Validated: 1
EndChar

StartChar: quotesinglbase
Encoding: 8218 8218 127
Width: 648
GlyphClass: 2
Flags: W
HStem: -434 576
VStem: 149 350
DStem2: 249 -123 392 -201 0.234641 0.972082<-178.31 170.406>
LayerCount: 2
Fore
SplineSet
375 -434 m 9,0,1
 335 -396 335 -396 262 -355 c 0,2,3
 212 -327 212 -327 149 -304 c 25,4,5
 150 -303 150 -303 161 -290 c 0,6,7
 222 -218 222 -218 249 -123 c 0,8,9
 254 -105 254 -105 257 -96 c 0,10,11
 276 -26 276 -26 276 59 c 0,12,13
 276 98 276 98 272 142 c 1,14,-1
 278 138 l 0,15,16
 383 56 383 56 499 14 c 17,17,-1
 492 5 l 24,18,19
 424 -84 424 -84 399 -172 c 0,20,21
 392 -201 l 0,22,23
 370 -314 370 -314 370 -374 c 0,24,25
 370 -405 370 -405 375 -434 c 9,0,1
EndSplineSet
Validated: 1
EndChar

StartChar: quotereversed
Encoding: 8219 8219 128
Width: 649
GlyphClass: 2
Flags: W
HStem: 936 571 1492 20G<371 375>
VStem: 157 342
DStem2: 392 1274 250 1197 0.284088 -0.958798<-152.455 215.129>
LayerCount: 2
Fore
SplineSet
273 936 m 17,0,1
 280 974 280 974 280 1014 c 0,2,3
 280 1092 280 1092 255 1179 c 0,4,5
 251 1192 251 1192 250 1197 c 0,6,7
 221 1296 221 1296 157 1374 c 24,8,-1
 150 1384 l 9,9,10
 265 1425 265 1425 371 1507 c 0,11,-1
 377 1512 l 1,12,13
 373 1470 373 1470 373 1430 c 0,14,15
 373 1346 373 1346 392 1274 c 0,16,17
 396 1260 396 1260 400 1247 c 0,18,19
 438 1133 438 1133 487 1080 c 0,20,21
 499 1067 499 1067 499 1066 c 25,22,23
 437 1049 437 1049 383 1017 c 0,24,25
 318 979 318 979 273 936 c 17,0,1
EndSplineSet
Validated: 1
EndChar

StartChar: quotedblleft
Encoding: 8220 8220 129
Width: 998
GlyphClass: 2
Flags: W
HStem: 935 571 1491 21G<371 375 720 724>
DStem2: 392 1274 250 1197 0.284088 -0.958798<-152.455 215.129> 741 1273 599 1196 0.284088 -0.958798<-152.455 215.129>
LayerCount: 2
Fore
SplineSet
622 935 m 17,0,1
 629 973 629 973 629 1013 c 0,2,3
 629 1091 629 1091 604 1178 c 0,4,5
 600 1191 600 1191 599 1196 c 0,6,7
 570 1295 570 1295 506 1373 c 24,8,-1
 499 1383 l 9,9,10
 614 1424 614 1424 720 1506 c 0,11,-1
 726 1511 l 1,12,13
 722 1469 722 1469 722 1429 c 0,14,15
 722 1345 722 1345 741 1273 c 0,16,17
 745 1259 745 1259 749 1246 c 0,18,19
 787 1132 787 1132 836 1079 c 0,20,21
 848 1066 848 1066 848 1065 c 25,22,23
 786 1048 786 1048 732 1016 c 0,24,25
 667 978 667 978 622 935 c 17,0,1
273 936 m 17,26,27
 280 974 280 974 280 1014 c 0,28,29
 280 1092 280 1092 255 1179 c 0,30,31
 251 1192 251 1192 250 1197 c 0,32,33
 221 1296 221 1296 157 1374 c 24,34,-1
 150 1384 l 9,35,36
 265 1425 265 1425 371 1507 c 0,37,-1
 377 1512 l 1,38,39
 373 1470 373 1470 373 1430 c 0,40,41
 373 1346 373 1346 392 1274 c 0,42,43
 396 1260 396 1260 400 1247 c 0,44,45
 438 1133 438 1133 487 1080 c 0,46,47
 499 1067 499 1067 499 1066 c 25,48,49
 437 1049 437 1049 383 1017 c 0,50,51
 318 979 318 979 273 936 c 17,26,27
EndSplineSet
Validated: 1
EndChar

StartChar: quotedblright
Encoding: 8221 8221 130
Width: 998
GlyphClass: 2
Flags: W
HStem: 935 576
DStem2: 257 1273 394 1178 0.284088 0.958798<-215.129 152.455> 606 1274 743 1179 0.284088 0.958798<-215.129 152.455>
LayerCount: 2
Fore
SplineSet
376 935 m 9,0,1
 331 978 331 978 266 1016 c 0,2,3
 212 1048 212 1048 150 1065 c 25,4,5
 150 1066 150 1066 162 1079 c 0,6,7
 211 1132 211 1132 249 1246 c 0,8,9
 253 1259 253 1259 257 1273 c 0,10,11
 276 1345 276 1345 276 1429 c 0,12,13
 276 1469 276 1469 272 1511 c 1,14,-1
 278 1506 l 0,15,16
 384 1424 384 1424 499 1383 c 17,17,-1
 492 1373 l 24,18,19
 428 1295 428 1295 399 1196 c 0,20,21
 398 1191 398 1191 394 1178 c 0,22,23
 369 1091 369 1091 369 1013 c 0,24,25
 369 973 369 973 376 935 c 9,0,1
725 936 m 9,26,27
 680 979 680 979 615 1017 c 0,28,29
 561 1049 561 1049 499 1066 c 25,30,31
 499 1067 499 1067 511 1080 c 0,32,33
 560 1133 560 1133 598 1247 c 0,34,35
 602 1260 602 1260 606 1274 c 0,36,37
 625 1346 625 1346 625 1430 c 0,38,39
 625 1470 625 1470 621 1512 c 1,40,-1
 627 1507 l 0,41,42
 733 1425 733 1425 848 1384 c 17,43,-1
 841 1374 l 24,44,45
 777 1296 777 1296 748 1197 c 0,46,47
 747 1192 747 1192 743 1179 c 0,48,49
 718 1092 718 1092 718 1014 c 0,50,51
 718 974 718 974 725 936 c 9,26,27
EndSplineSet
Validated: 1
EndChar

StartChar: quotedblbase
Encoding: 8222 8222 131
Width: 998
GlyphClass: 2
Flags: W
HStem: -467 576
DStem2: 257 -129 394 -224 0.284088 0.958798<-215.129 152.455> 606 -128 743 -223 0.284088 0.958798<-215.129 152.455>
LayerCount: 2
Fore
SplineSet
376 -467 m 9,0,1
 331 -424 331 -424 266 -386 c 0,2,3
 212 -354 212 -354 150 -337 c 25,4,5
 150 -336 150 -336 162 -323 c 0,6,7
 211 -270 211 -270 249 -156 c 0,8,9
 253 -143 253 -143 257 -129 c 0,10,11
 276 -57 276 -57 276 27 c 0,12,13
 276 67 276 67 272 109 c 1,14,-1
 278 104 l 0,15,16
 384 22 384 22 499 -19 c 17,17,-1
 492 -29 l 24,18,19
 428 -107 428 -107 399 -206 c 0,20,21
 398 -211 398 -211 394 -224 c 0,22,23
 369 -311 369 -311 369 -389 c 0,24,25
 369 -429 369 -429 376 -467 c 9,0,1
725 -466 m 9,26,27
 680 -423 680 -423 615 -385 c 0,28,29
 561 -353 561 -353 499 -336 c 25,30,31
 499 -335 499 -335 511 -322 c 0,32,33
 560 -269 560 -269 598 -155 c 0,34,35
 602 -142 602 -142 606 -128 c 0,36,37
 625 -56 625 -56 625 28 c 0,38,39
 625 68 625 68 621 110 c 1,40,-1
 627 105 l 0,41,42
 733 23 733 23 848 -18 c 17,43,-1
 841 -28 l 24,44,45
 777 -106 777 -106 748 -205 c 0,46,47
 747 -210 747 -210 743 -223 c 0,48,49
 718 -310 718 -310 718 -388 c 0,50,51
 718 -428 718 -428 725 -466 c 9,26,27
EndSplineSet
Validated: 1
EndChar

StartChar: uni201F
Encoding: 8223 8223 132
Width: 998
GlyphClass: 2
Flags: W
HStem: 935 571 1491 21G<371 375 720 724>
DStem2: 392 1274 250 1197 0.284088 -0.958798<-152.455 215.129> 741 1273 599 1196 0.284088 -0.958798<-152.455 215.129>
LayerCount: 2
Fore
SplineSet
622 935 m 17,0,1
 629 973 629 973 629 1013 c 0,2,3
 629 1091 629 1091 604 1178 c 0,4,5
 600 1191 600 1191 599 1196 c 0,6,7
 570 1295 570 1295 506 1373 c 24,8,-1
 499 1383 l 9,9,10
 614 1424 614 1424 720 1506 c 0,11,-1
 726 1511 l 1,12,13
 722 1469 722 1469 722 1429 c 0,14,15
 722 1345 722 1345 741 1273 c 0,16,17
 745 1259 745 1259 749 1246 c 0,18,19
 787 1132 787 1132 836 1079 c 0,20,21
 848 1066 848 1066 848 1065 c 25,22,23
 786 1048 786 1048 732 1016 c 0,24,25
 667 978 667 978 622 935 c 17,0,1
273 936 m 17,26,27
 280 974 280 974 280 1014 c 0,28,29
 280 1092 280 1092 255 1179 c 0,30,31
 251 1192 251 1192 250 1197 c 0,32,33
 221 1296 221 1296 157 1374 c 24,34,-1
 150 1384 l 9,35,36
 265 1425 265 1425 371 1507 c 0,37,-1
 377 1512 l 1,38,39
 373 1470 373 1470 373 1430 c 0,40,41
 373 1346 373 1346 392 1274 c 0,42,43
 396 1260 396 1260 400 1247 c 0,44,45
 438 1133 438 1133 487 1080 c 0,46,47
 499 1067 499 1067 499 1066 c 25,48,49
 437 1049 437 1049 383 1017 c 0,50,51
 318 979 318 979 273 936 c 17,26,27
EndSplineSet
Validated: 1
EndChar

StartChar: dagger
Encoding: 8224 8224 133
Width: 1071
GlyphClass: 2
Flags: W
HStem: 0 21G<434.5 434.5> 977 166<117.406 442 628 955.609> 1491 20G<652 658>
VStem: 456 164<287.199 974 1143 1421.47>
LayerCount: 2
Fore
SplineSet
413 0 m 1,0,1
 456 300 456 300 456 672 c 0,2,3
 456 727 456 727 455 780 c 0,4,5
 453 886 453 886 450 977 c 1,6,7
 243 975 243 975 50 936 c 1,8,9
 73 979 73 979 97 1066 c 0,10,11
 111 1117 111 1117 117 1188 c 1,12,-1
 143 1180 l 1,13,14
 255 1151 255 1151 442 1143 c 1,15,16
 433 1301 433 1301 419 1388 c 1,17,-1
 413 1422 l 1,18,19
 533 1436 533 1436 658 1507 c 2,20,-1
 665 1511 l 1,21,22
 639 1346 639 1346 628 1140 c 1,23,24
 817 1143 817 1143 1021 1188 c 1,25,-1
 1018 1181 l 2,26,27
 966 1058 966 1058 956 936 c 1,28,-1
 931 942 l 1,29,30
 781 968 781 968 622 974 c 1,31,32
 620 901 620 901 620 823 c 2,33,-1
 620 788 l 2,34,35
 620 308 620 308 657 128 c 1,36,-1
 665 92 l 1,37,38
 597 84 597 84 543 64 c 0,39,40
 456 32 456 32 413 0 c 1,0,1
EndSplineSet
Validated: 1
EndChar

StartChar: daggerdbl
Encoding: 8225 8225 134
Width: 1071
GlyphClass: 2
Flags: W
HStem: 0 21G<428.5 434.5> 470 166<117.406 453 625 955.609> 977 166<117.406 442 628 955.609> 1491 20G<652 658>
VStem: 456 165<92.5625 467 636 974 1143 1421.47>
LayerCount: 2
Fore
SplineSet
50 936 m 1,0,1
 73 979 73 979 97 1066 c 0,2,3
 111 1117 111 1117 117 1188 c 1,4,-1
 143 1180 l 1,5,6
 255 1151 255 1151 442 1143 c 1,7,8
 433 1301 433 1301 419 1388 c 1,9,-1
 413 1422 l 1,10,11
 533 1436 533 1436 658 1507 c 2,12,-1
 665 1511 l 1,13,14
 639 1346 639 1346 628 1140 c 1,15,16
 817 1143 817 1143 1021 1188 c 1,17,-1
 1018 1181 l 2,18,19
 966 1058 966 1058 956 936 c 1,20,-1
 931 942 l 1,21,22
 781 968 781 968 622 974 c 1,23,24
 620 901 620 901 620 823 c 2,25,-1
 620 788 l 2,26,27
 620 706 620 706 621 633 c 1,28,29
 813 635 813 635 1021 681 c 1,30,-1
 1018 674 l 2,31,32
 966 551 966 551 956 429 c 1,33,-1
 931 435 l 1,34,35
 782 460 782 460 625 467 c 1,36,37
 634 240 634 240 657 128 c 1,38,-1
 665 92 l 1,39,40
 598 84 598 84 543 64 c 0,41,42
 456 32 456 32 413 0 c 1,43,44
 444 216 444 216 453 470 c 1,45,46
 244 469 244 469 50 429 c 1,47,48
 73 472 73 472 97 559 c 0,49,50
 111 610 111 610 117 681 c 1,51,-1
 143 673 l 1,52,53
 259 643 259 643 456 636 c 1,54,55
 456 654 456 654 456 672 c 0,56,57
 456 727 456 727 455 780 c 0,58,59
 453 886 453 886 450 977 c 1,60,61
 243 975 243 975 50 936 c 1,0,1
EndSplineSet
Validated: 1
EndChar

StartChar: bullet
Encoding: 8226 8226 135
Width: 876
GlyphClass: 2
Flags: W
HStem: 378 663
VStem: 150 576<553.244 866.249>
LayerCount: 2
Fore
SplineSet
426 1041 m 1,0,1
 455 1036 455 1036 518 1006 c 0,2,3
 567 983 567 983 618 942 c 1,4,5
 676 892 676 892 698 831 c 1,6,7
 726 765 726 765 726 709 c 0,8,-1
 726 707 l 0,9,10
 726 636 726 636 696 579 c 0,11,12
 665 519 665 519 630 491 c 0,13,14
 593 461 593 461 568 446 c 2,15,-1
 450 378 l 1,16,17
 412 386 412 386 358 412 c 0,18,19
 311 434 311 434 260 476 c 0,20,21
 202 523 202 523 178 579 c 1,22,23
 150 643 150 643 150 706 c 0,24,25
 150 763 150 763 178 837 c 0,26,27
 194 881 194 881 244 926 c 0,28,29
 268 948 268 948 310 974 c 1,30,-1
 426 1041 l 1,0,1
EndSplineSet
Validated: 1
EndChar

StartChar: uni2023
Encoding: 8227 8227 136
Width: 880
GlyphClass: 2
Flags: W
VStem: 154 624
LayerCount: 2
Fore
SplineSet
154 304 m 17,0,1
 155 310 155 310 156 326 c 0,2,3
 172 546 172 546 174 667 c 0,4,5
 175 752 175 752 175 791 c 0,6,7
 174 891 174 891 155 1035 c 0,8,-1
 150 1075 l 25,9,-1
 180 1048 l 0,10,11
 293 937 293 937 492 832 c 0,12,13
 696 724 696 724 778 700 c 25,14,15
 739 686 739 686 528 568 c 0,16,17
 323 454 323 454 188 334 c 0,18,19
 162 311 162 311 154 304 c 17,0,1
EndSplineSet
Validated: 1
EndChar

StartChar: onedotenleader
Encoding: 8228 8228 137
Width: 574
GlyphClass: 2
Flags: W
HStem: -66 390
VStem: 169 239<32.4939 234.672>
LayerCount: 2
Fore
SplineSet
150 -66 m 17,0,1
 169 18 169 18 169 106 c 0,2,3
 169 160 169 160 162 214 c 0,4,-1
 156 235 l 9,5,6
 287 249 287 249 417 324 c 0,7,-1
 424 328 l 9,8,9
 408 270 408 270 408 165 c 0,10,11
 408 110 408 110 418 30 c 9,12,13
 346 22 346 22 280 -2 c 0,14,15
 193 -34 193 -34 150 -66 c 17,0,1
EndSplineSet
Validated: 1
EndChar

StartChar: twodotenleader
Encoding: 8229 8229 138
Width: 963
GlyphClass: 2
Flags: W
HStem: -64 390
VStem: 169 239<32.4939 234.672> 558 239<34.4939 236.672>
LayerCount: 2
Fore
SplineSet
539 -64 m 17,0,1
 558 20 558 20 558 108 c 0,2,3
 558 162 558 162 551 216 c 0,4,-1
 545 237 l 9,5,6
 676 251 676 251 806 326 c 0,7,-1
 813 330 l 9,8,9
 797 272 797 272 797 167 c 0,10,11
 797 112 797 112 807 32 c 9,12,13
 735 24 735 24 669 0 c 0,14,15
 582 -32 582 -32 539 -64 c 17,0,1
150 -66 m 17,16,17
 169 18 169 18 169 106 c 0,18,19
 169 160 169 160 162 214 c 0,20,-1
 156 235 l 9,21,22
 287 249 287 249 417 324 c 0,23,-1
 424 328 l 9,24,25
 408 270 408 270 408 165 c 0,26,27
 408 110 408 110 418 30 c 9,28,29
 346 22 346 22 280 -2 c 0,30,31
 193 -34 193 -34 150 -66 c 17,16,17
EndSplineSet
Validated: 1
EndChar

StartChar: ellipsis
Encoding: 8230 8230 139
Width: 1345
GlyphClass: 2
Flags: W
HStem: -64 390
VStem: 169 239<32.4939 234.672> 558 239<34.4939 236.672> 940 239<34.4939 236.672>
LayerCount: 2
Fore
SplineSet
921 -64 m 17,0,1
 940 20 940 20 940 108 c 0,2,3
 940 162 940 162 933 216 c 0,4,-1
 927 237 l 9,5,6
 1058 251 1058 251 1188 326 c 0,7,-1
 1195 330 l 9,8,9
 1179 272 1179 272 1179 167 c 0,10,11
 1179 112 1179 112 1189 32 c 9,12,13
 1117 24 1117 24 1051 0 c 0,14,15
 964 -32 964 -32 921 -64 c 17,0,1
539 -64 m 17,16,17
 558 20 558 20 558 108 c 0,18,19
 558 162 558 162 551 216 c 0,20,-1
 545 237 l 9,21,22
 676 251 676 251 806 326 c 0,23,-1
 813 330 l 9,24,25
 797 272 797 272 797 167 c 0,26,27
 797 112 797 112 807 32 c 9,28,29
 735 24 735 24 669 0 c 0,30,31
 582 -32 582 -32 539 -64 c 17,16,17
150 -66 m 17,32,33
 169 18 169 18 169 106 c 0,34,35
 169 160 169 160 162 214 c 0,36,-1
 156 235 l 9,37,38
 287 249 287 249 417 324 c 0,39,-1
 424 328 l 9,40,41
 408 270 408 270 408 165 c 0,42,43
 408 110 408 110 418 30 c 9,44,45
 346 22 346 22 280 -2 c 0,46,47
 193 -34 193 -34 150 -66 c 17,32,33
EndSplineSet
Validated: 1
EndChar

StartChar: uni2027
Encoding: 8231 8231 140
Width: 574
GlyphClass: 2
Flags: W
HStem: 498 390
VStem: 169 239<596.494 798.672>
LayerCount: 2
Fore
SplineSet
408 729 m 0,0,1
 408 674 408 674 418 594 c 9,2,3
 346 586 346 586 280 562 c 0,4,5
 193 530 193 530 150 498 c 17,6,7
 169 582 169 582 169 670 c 0,8,9
 169 724 169 724 162 778 c 0,10,-1
 156 799 l 9,11,12
 287 813 287 813 417 888 c 0,13,-1
 424 892 l 9,14,15
 408 834 408 834 408 729 c 0,0,1
EndSplineSet
Validated: 1
EndChar

StartChar: perthousand
Encoding: 8240 8240 141
Width: 2122
GlyphClass: 2
Flags: W
HStem: 0 21G<395 525 1130 1184.41 1747 1801.41> 1491 20G<417.373 467.5 1122.5 1192>
VStem: 177 125<1100.92 1340.1> 634 118<1021.38 1262.69> 850 126<252.835 493.056> 1307 118<172.688 416.149> 1467 126<252.835 493.056> 1924 118<172.688 416.149>
LayerCount: 2
Fore
SplineSet
1645 524 m 1,0,-1
 1638 513 l 1,1,2
 1620 480 1620 480 1605 431 c 0,3,4
 1596 402 1596 402 1593 359 c 0,5,6
 1592 344 1592 344 1595 332 c 0,7,8
 1605 292 1605 292 1634 256 c 1,9,10
 1659 225 1659 225 1727 195 c 0,11,12
 1809 159 1809 159 1866 141 c 1,13,-1
 1877 155 l 1,14,15
 1901 188 1901 188 1916 240 c 0,16,17
 1920 254 1920 254 1924 307 c 0,18,19
 1925 321 1925 321 1922 336 c 0,20,21
 1915 371 1915 371 1883 412 c 1,22,23
 1853 448 1853 448 1798 470 c 0,24,25
 1721 502 1721 502 1645 524 c 1,0,-1
1467 328 m 0,26,27
 1468 394 1468 394 1494 459 c 0,28,29
 1514 508 1514 508 1560 548 c 0,30,31
 1586 571 1586 571 1626 596 c 1,32,-1
 1742 663 l 1,33,34
 1771 657 1771 657 1836 627 c 0,35,36
 1884 605 1884 605 1934 564 c 1,37,38
 1992 514 1992 514 2015 452 c 1,39,40
 2042 387 2042 387 2042 331 c 0,41,-1
 2042 329 l 0,42,43
 2042 260 2042 260 2013 201 c 128,-1,44
 1984 142 1984 142 1947 113 c 0,45,46
 1908 82 1908 82 1884 68 c 2,47,-1
 1767 0 l 1,48,49
 1727 9 1727 9 1674 34 c 0,50,51
 1628 56 1628 56 1576 98 c 0,52,53
 1520 143 1520 143 1495 201 c 1,54,55
 1467 265 1467 265 1467 328 c 0,26,27
1028 524 m 1,56,-1
 1021 513 l 1,57,58
 1003 480 1003 480 988 431 c 0,59,60
 979 402 979 402 976 359 c 0,61,62
 975 344 975 344 978 332 c 0,63,64
 988 292 988 292 1017 256 c 1,65,66
 1042 225 1042 225 1110 195 c 0,67,68
 1192 159 1192 159 1249 141 c 1,69,-1
 1260 155 l 1,70,71
 1284 188 1284 188 1299 240 c 0,72,73
 1303 254 1303 254 1307 307 c 0,74,75
 1308 321 1308 321 1305 336 c 0,76,77
 1298 371 1298 371 1266 412 c 1,78,79
 1236 448 1236 448 1181 470 c 0,80,81
 1104 502 1104 502 1028 524 c 1,56,-1
850 328 m 0,82,83
 851 394 851 394 877 459 c 0,84,85
 897 508 897 508 943 548 c 0,86,87
 969 571 969 571 1009 596 c 1,88,-1
 1125 663 l 1,89,90
 1154 657 1154 657 1219 627 c 0,91,92
 1267 605 1267 605 1317 564 c 1,93,94
 1375 514 1375 514 1398 452 c 1,95,96
 1425 387 1425 387 1425 331 c 0,97,-1
 1425 329 l 0,98,99
 1425 260 1425 260 1396 201 c 128,-1,100
 1367 142 1367 142 1330 113 c 0,101,102
 1291 82 1291 82 1267 68 c 2,103,-1
 1150 0 l 1,104,105
 1110 9 1110 9 1057 34 c 0,106,107
 1011 56 1011 56 959 98 c 0,108,109
 903 143 903 143 878 201 c 1,110,111
 850 265 850 265 850 328 c 0,82,83
355 1372 m 1,112,-1
 348 1361 l 1,113,114
 332 1332 332 1332 315 1279 c 0,115,116
 302 1239 302 1239 302 1208 c 0,117,118
 302 1194 302 1194 305 1180 c 0,119,120
 313 1142 313 1142 344 1104 c 1,121,122
 370 1072 370 1072 436 1043 c 0,123,124
 519 1007 519 1007 576 989 c 1,125,-1
 587 1003 l 1,126,127
 612 1037 612 1037 626 1088 c 0,128,129
 634 1117 634 1117 634 1156 c 0,130,131
 634 1171 634 1171 632 1184 c 0,132,133
 627 1217 627 1217 592 1260 c 1,134,135
 569 1290 569 1290 506 1318 c 0,136,137
 458 1339 458 1339 355 1372 c 1,112,-1
177 1176 m 0,138,139
 177 1242 177 1242 204 1307 c 0,140,141
 223 1353 223 1353 270 1396 c 0,142,143
 296 1419 296 1419 336 1444 c 1,144,-1
 452 1511 l 1,145,146
 483 1505 483 1505 545 1476 c 0,147,148
 591 1455 591 1455 644 1412 c 1,149,150
 702 1362 702 1362 725 1301 c 1,151,152
 752 1235 752 1235 752 1179 c 0,153,-1
 752 1177 l 0,154,155
 752 1106 752 1106 723 1049 c 0,156,157
 693 990 693 990 657 961 c 0,158,159
 616 929 616 929 594 916 c 2,160,-1
 477 848 l 1,161,162
 439 856 439 856 384 882 c 0,163,164
 333 906 333 906 286 946 c 0,165,166
 229 993 229 993 205 1049 c 1,167,168
 177 1113 177 1113 177 1176 c 0,138,139
150 89 m 1,169,170
 344 284 344 284 747 825 c 0,171,172
 1074 1264 1074 1264 1171 1513 c 1,173,174
 1213 1481 1213 1481 1301 1449 c 0,175,176
 1355 1429 1355 1429 1423 1421 c 1,177,178
 1236 1209 1236 1209 912 756 c 1,179,180
 648 396 648 396 402 0 c 1,181,-1
 395 4 l 2,182,183
 271 75 271 75 150 89 c 1,169,170
EndSplineSet
Validated: 1025
EndChar

StartChar: minute
Encoding: 8242 8242 142
Width: 649
GlyphClass: 2
Flags: W
HStem: 936 576
VStem: 150 349
LayerCount: 2
Fore
SplineSet
376 936 m 9,0,1
 332 978 332 978 263 1015 c 0,2,3
 212 1042 212 1042 150 1066 c 25,4,5
 150 1067 150 1067 162 1080 c 0,6,7
 201 1121 201 1121 249 1247 c 0,8,9
 255 1263 255 1263 258 1274 c 0,10,11
 276.692 1347.38 276.692 1347.38 276.692 1433.23 c 0,12,13
 276.692 1471.38 276.692 1471.38 273 1512 c 1,14,-1
 279 1507 l 0,15,16
 384 1425 384 1425 499 1384 c 17,17,-1
 493 1374 l 24,18,19
 429 1296 429 1296 400 1197 c 0,20,21
 399 1195 399 1195 392 1174 c 0,22,23
 367.468 1096 367.468 1096 367.468 1021.96 c 0,24,25
 367.468 978.29 367.468 978.29 376 936 c 9,0,1
EndSplineSet
Validated: 1
EndChar

StartChar: second
Encoding: 8243 8243 143
Width: 998
GlyphClass: 2
Flags: W
HStem: 935 576
DStem2: 257 1273 394 1178 0.284088 0.958798<-215.129 152.455> 606 1274 743 1179 0.284088 0.958798<-215.129 152.455>
LayerCount: 2
Fore
SplineSet
376 935 m 9,0,1
 331 978 331 978 266 1016 c 0,2,3
 212 1048 212 1048 150 1065 c 25,4,5
 150 1066 150 1066 162 1079 c 0,6,7
 211 1132 211 1132 249 1246 c 0,8,9
 253 1259 253 1259 257 1273 c 0,10,11
 276 1345 276 1345 276 1429 c 0,12,13
 276 1469 276 1469 272 1511 c 1,14,-1
 278 1506 l 0,15,16
 384 1424 384 1424 499 1383 c 17,17,-1
 492 1373 l 24,18,19
 428 1295 428 1295 399 1196 c 0,20,21
 398 1191 398 1191 394 1178 c 0,22,23
 369 1091 369 1091 369 1013 c 0,24,25
 369 973 369 973 376 935 c 9,0,1
725 936 m 9,26,27
 680 979 680 979 615 1017 c 0,28,29
 561 1049 561 1049 499 1066 c 25,30,31
 499 1067 499 1067 511 1080 c 0,32,33
 560 1133 560 1133 598 1247 c 0,34,35
 602 1260 602 1260 606 1274 c 0,36,37
 625 1346 625 1346 625 1430 c 0,38,39
 625 1470 625 1470 621 1512 c 1,40,-1
 627 1507 l 0,41,42
 733 1425 733 1425 848 1384 c 17,43,-1
 841 1374 l 24,44,45
 777 1296 777 1296 748 1197 c 0,46,47
 747 1192 747 1192 743 1179 c 0,48,49
 718 1092 718 1092 718 1014 c 0,50,51
 718 974 718 974 725 936 c 9,26,27
EndSplineSet
Validated: 1
EndChar

StartChar: uni2034
Encoding: 8244 8244 144
Width: 1347
GlyphClass: 2
Flags: W
HStem: 937 576
DStem2: 257 1273 394 1178 0.284088 0.958798<-215.129 152.455> 606 1274 743 1179 0.284088 0.958798<-215.129 152.455> 955 1275 1092 1180 0.284088 0.958798<-215.129 152.455>
LayerCount: 2
Fore
SplineSet
1074 937 m 9,0,1
 1029 980 1029 980 964 1018 c 0,2,3
 910 1050 910 1050 848 1067 c 25,4,5
 848 1068 848 1068 860 1081 c 0,6,7
 909 1134 909 1134 947 1248 c 0,8,9
 951 1261 951 1261 955 1275 c 0,10,11
 974 1347 974 1347 974 1431 c 0,12,13
 974 1471 974 1471 970 1513 c 1,14,-1
 976 1508 l 0,15,16
 1082 1426 1082 1426 1197 1385 c 17,17,-1
 1190 1375 l 24,18,19
 1126 1297 1126 1297 1097 1198 c 0,20,21
 1096 1193 1096 1193 1092 1180 c 0,22,23
 1067 1093 1067 1093 1067 1015 c 0,24,25
 1067 975 1067 975 1074 937 c 9,0,1
376 935 m 9,26,27
 331 978 331 978 266 1016 c 0,28,29
 212 1048 212 1048 150 1065 c 25,30,31
 150 1066 150 1066 162 1079 c 0,32,33
 211 1132 211 1132 249 1246 c 0,34,35
 253 1259 253 1259 257 1273 c 0,36,37
 276 1345 276 1345 276 1429 c 0,38,39
 276 1469 276 1469 272 1511 c 1,40,-1
 278 1506 l 0,41,42
 384 1424 384 1424 499 1383 c 17,43,-1
 492 1373 l 24,44,45
 428 1295 428 1295 399 1196 c 0,46,47
 398 1191 398 1191 394 1178 c 0,48,49
 369 1091 369 1091 369 1013 c 0,50,51
 369 973 369 973 376 935 c 9,26,27
725 936 m 9,52,53
 680 979 680 979 615 1017 c 0,54,55
 561 1049 561 1049 499 1066 c 25,56,57
 499 1067 499 1067 511 1080 c 0,58,59
 560 1133 560 1133 598 1247 c 0,60,61
 602 1260 602 1260 606 1274 c 0,62,63
 625 1346 625 1346 625 1430 c 0,64,65
 625 1470 625 1470 621 1512 c 1,66,-1
 627 1507 l 0,67,68
 733 1425 733 1425 848 1384 c 17,69,-1
 841 1374 l 24,70,71
 777 1296 777 1296 748 1197 c 0,72,73
 747 1192 747 1192 743 1179 c 0,74,75
 718 1092 718 1092 718 1014 c 0,76,77
 718 974 718 974 725 936 c 9,52,53
EndSplineSet
Validated: 1
EndChar

StartChar: uni2035
Encoding: 8245 8245 145
Width: 649
GlyphClass: 2
Flags: W
HStem: 936 571 1492 20G<371 375>
VStem: 157 342
DStem2: 392 1274 250 1197 0.284088 -0.958798<-152.455 215.129>
LayerCount: 2
Fore
SplineSet
273 936 m 17,0,1
 280 974 280 974 280 1014 c 0,2,3
 280 1092 280 1092 255 1179 c 0,4,5
 251 1192 251 1192 250 1197 c 0,6,7
 221 1296 221 1296 157 1374 c 24,8,-1
 150 1384 l 9,9,10
 265 1425 265 1425 371 1507 c 0,11,-1
 377 1512 l 1,12,13
 373 1470 373 1470 373 1430 c 0,14,15
 373 1346 373 1346 392 1274 c 0,16,17
 396 1260 396 1260 400 1247 c 0,18,19
 438 1133 438 1133 487 1080 c 0,20,21
 499 1067 499 1067 499 1066 c 25,22,23
 437 1049 437 1049 383 1017 c 0,24,25
 318 979 318 979 273 936 c 17,0,1
EndSplineSet
Validated: 1
EndChar

StartChar: uni2036
Encoding: 8246 8246 146
Width: 998
GlyphClass: 2
Flags: W
HStem: 935 571 1491 21G<371 375 720 724>
DStem2: 392 1274 250 1197 0.284088 -0.958798<-152.455 215.129> 741 1273 599 1196 0.284088 -0.958798<-152.455 215.129>
LayerCount: 2
Fore
SplineSet
622 935 m 17,0,1
 629 973 629 973 629 1013 c 0,2,3
 629 1091 629 1091 604 1178 c 0,4,5
 600 1191 600 1191 599 1196 c 0,6,7
 570 1295 570 1295 506 1373 c 24,8,-1
 499 1383 l 9,9,10
 614 1424 614 1424 720 1506 c 0,11,-1
 726 1511 l 1,12,13
 722 1469 722 1469 722 1429 c 0,14,15
 722 1345 722 1345 741 1273 c 0,16,17
 745 1259 745 1259 749 1246 c 0,18,19
 787 1132 787 1132 836 1079 c 0,20,21
 848 1066 848 1066 848 1065 c 25,22,23
 786 1048 786 1048 732 1016 c 0,24,25
 667 978 667 978 622 935 c 17,0,1
273 936 m 17,26,27
 280 974 280 974 280 1014 c 0,28,29
 280 1092 280 1092 255 1179 c 0,30,31
 251 1192 251 1192 250 1197 c 0,32,33
 221 1296 221 1296 157 1374 c 24,34,-1
 150 1384 l 9,35,36
 265 1425 265 1425 371 1507 c 0,37,-1
 377 1512 l 1,38,39
 373 1470 373 1470 373 1430 c 0,40,41
 373 1346 373 1346 392 1274 c 0,42,43
 396 1260 396 1260 400 1247 c 0,44,45
 438 1133 438 1133 487 1080 c 0,46,47
 499 1067 499 1067 499 1066 c 25,48,49
 437 1049 437 1049 383 1017 c 0,50,51
 318 979 318 979 273 936 c 17,26,27
EndSplineSet
Validated: 1
EndChar

StartChar: uni2037
Encoding: 8247 8247 147
Width: 1347
GlyphClass: 2
Flags: W
HStem: 934 571 1490 22G<371 375 720 724 1069 1073>
DStem2: 392 1274 250 1197 0.284088 -0.958798<-152.455 215.129> 741 1273 599 1196 0.284088 -0.958798<-152.455 215.129> 1090 1272 948 1195 0.284088 -0.958798<-152.455 215.129>
LayerCount: 2
Fore
SplineSet
971 934 m 17,0,1
 978 972 978 972 978 1012 c 0,2,3
 978 1090 978 1090 953 1177 c 0,4,5
 949 1190 949 1190 948 1195 c 0,6,7
 919 1294 919 1294 855 1372 c 24,8,-1
 848 1382 l 9,9,10
 963 1423 963 1423 1069 1505 c 0,11,-1
 1075 1510 l 1,12,13
 1071 1468 1071 1468 1071 1428 c 0,14,15
 1071 1344 1071 1344 1090 1272 c 0,16,17
 1094 1258 1094 1258 1098 1245 c 0,18,19
 1136 1131 1136 1131 1185 1078 c 0,20,21
 1197 1065 1197 1065 1197 1064 c 25,22,23
 1135 1047 1135 1047 1081 1015 c 0,24,25
 1016 977 1016 977 971 934 c 17,0,1
622 935 m 17,26,27
 629 973 629 973 629 1013 c 0,28,29
 629 1091 629 1091 604 1178 c 0,30,31
 600 1191 600 1191 599 1196 c 0,32,33
 570 1295 570 1295 506 1373 c 24,34,-1
 499 1383 l 9,35,36
 614 1424 614 1424 720 1506 c 0,37,-1
 726 1511 l 1,38,39
 722 1469 722 1469 722 1429 c 0,40,41
 722 1345 722 1345 741 1273 c 0,42,43
 745 1259 745 1259 749 1246 c 0,44,45
 787 1132 787 1132 836 1079 c 0,46,47
 848 1066 848 1066 848 1065 c 25,48,49
 786 1048 786 1048 732 1016 c 0,50,51
 667 978 667 978 622 935 c 17,26,27
273 936 m 17,52,53
 280 974 280 974 280 1014 c 0,54,55
 280 1092 280 1092 255 1179 c 0,56,57
 251 1192 251 1192 250 1197 c 0,58,59
 221 1296 221 1296 157 1374 c 24,60,-1
 150 1384 l 9,61,62
 265 1425 265 1425 371 1507 c 0,63,-1
 377 1512 l 1,64,65
 373 1470 373 1470 373 1430 c 0,66,67
 373 1346 373 1346 392 1274 c 0,68,69
 396 1260 396 1260 400 1247 c 0,70,71
 438 1133 438 1133 487 1080 c 0,72,73
 499 1067 499 1067 499 1066 c 25,74,75
 437 1049 437 1049 383 1017 c 0,76,77
 318 979 318 979 273 936 c 17,52,53
EndSplineSet
Validated: 1
EndChar

StartChar: guilsinglleft
Encoding: 8249 8249 148
Width: 899
GlyphClass: 2
Flags: W
VStem: 100 649
LayerCount: 2
Fore
SplineSet
100 600 m 1,0,-1
 104 606 l 2,1,2
 175 731 175 731 189 852 c 1,3,-1
 192 852 l 2,4,5
 274 852 274 852 437 976 c 0,6,7
 546 1059 546 1059 713 1208 c 0,8,9
 719 1213 719 1213 749 1232 c 1,10,-1
 745 1228 l 2,11,12
 693 1176 693 1176 663 1028 c 1,13,-1
 649 1028 l 2,14,-1
 635 1022 l 0,15,16
 448 909 448 909 309 746 c 1,17,18
 314 723 314 723 441 616 c 0,19,20
 637 450 637 450 741 415 c 1,21,22
 709 374 709 374 679 285 c 0,23,24
 659 227 659 227 651 163 c 1,25,26
 565 318 565 318 385 452 c 1,27,28
 162 600 162 600 101 600 c 0,29,-1
 100 600 l 1,0,-1
EndSplineSet
Validated: 1
EndChar

StartChar: guilsinglright
Encoding: 8250 8250 149
Width: 899
GlyphClass: 2
Flags: W
VStem: 150 649
LayerCount: 2
Fore
SplineSet
799 795 m 1,0,1
 795 789 l 2,2,3
 724 664 724 664 710 543 c 1,4,-1
 707 543 l 2,5,6
 625 543 625 543 462 419 c 0,7,8
 353 336 353 336 186 187 c 0,9,10
 180 182 180 182 150 163 c 1,11,-1
 154 167 l 2,12,13
 206 219 206 219 236 367 c 1,14,-1
 250 367 l 2,15,-1
 264 373 l 0,16,17
 451 486 451 486 590 649 c 1,18,19
 585 672 585 672 458 779 c 0,20,21
 262 945 262 945 158 980 c 1,22,23
 190 1021 190 1021 220 1110 c 0,24,25
 240 1168 240 1168 248 1232 c 1,26,27
 334 1077 334 1077 514 943 c 1,28,29
 737 795 737 795 798 795 c 0,30,-1
 799 795 l 1,0,1
EndSplineSet
Validated: 1
EndChar

StartChar: uni2043
Encoding: 8259 8259 150
Width: 1267
GlyphClass: 2
Flags: W
LayerCount: 2
Fore
SplineSet
150 868 m 1,0,1
 189 893 189 893 255 957 c 0,2,3
 293 994 293 994 334 1053 c 1,4,-1
 353 1033 l 1,5,6
 426 961 426 961 550 879 c 1,7,8
 541 1027 541 1027 515 1127 c 1,9,-1
 507 1153 l 1,10,11
 577 1159 577 1159 629 1173 c 0,12,13
 712 1195 712 1195 759 1220 c 1,14,15
 727 1060 727 1060 721 881 c 1,16,17
 842 962 842 962 914 1033 c 1,18,-1
 933 1053 l 1,19,20
 975 993 975 993 1011 957 c 0,21,22
 1070 897 1070 897 1117 868 c 1,23,24
 961 816 961 816 802 731 c 1,25,26
 956 652 956 652 1117 601 c 1,27,-1
 1111 596 l 2,28,29
 1003 514 1003 514 935 415 c 1,30,-1
 916 433 l 1,31,32
 870 479 870 479 727 573 c 1,33,34
 736 402 736 402 753 339 c 1,35,-1
 759 314 l 1,36,37
 640 304 640 304 514 252 c 2,38,-1
 507 249 l 1,39,40
 543 411 543 411 552 581 c 1,41,42
 399 481 399 481 351 433 c 1,43,-1
 332 415 l 1,44,45
 264 514 264 514 156 596 c 2,46,-1
 150 601 l 1,47,48
 311 652 311 652 465 731 c 1,49,50
 306 816 306 816 150 868 c 1,0,1
EndSplineSet
Validated: 1
EndChar

StartChar: fraction
Encoding: 8260 8260 151
Width: 1118
GlyphClass: 2
Flags: W
LayerCount: 2
Fore
SplineSet
0 -127 m 1,0,1
 310 382 310 382 524 816 c 0,2,3
 742 1259 742 1259 866 1664 c 1,4,5
 909 1632 909 1632 996 1600 c 0,6,7
 1053 1580 1053 1580 1118 1572 c 1,8,9
 896 1200 896 1200 680 741 c 1,10,11
 419 213 419 213 252 -216 c 1,12,-1
 245 -212 l 2,13,14
 121 -141 121 -141 0 -127 c 1,0,1
EndSplineSet
Validated: 1
EndChar

StartChar: Euro
Encoding: 8364 8364 152
Width: 1403
VWidth: 0
GlyphClass: 2
Flags: W
HStem: 0 21G<800.5 868.857> 492 163<509 986.609> 818 168<427 985.609> 1495 20G<757.951 821.5>
VStem: 256 161<679.211 804.219>
LayerCount: 2
Fore
SplineSet
1323 483 m 1,0,1
 1318 467 1318 467 1314 459 c 0,2,3
 1254 328 1254 328 1185 258 c 0,4,5
 1080 153 1080 153 1060 140 c 2,6,-1
 837 0 l 1,7,8
 764 19 764 19 657 78 c 0,9,10
 557 133 557 133 467 223 c 0,11,12
 356 334 356 334 310 470 c 1,13,-1
 305 484 l 1,14,15
 191 473 191 473 81 451 c 1,16,17
 104 494 104 494 128 581 c 0,18,19
 142 632 142 632 148 703 c 1,20,-1
 174 695 l 1,21,22
 213 685 213 685 260 678 c 1,23,24
 256 715 256 715 256 750 c 2,25,-1
 256 755 l 2,26,27
 256 780 256 780 258 805 c 1,28,29
 167 795 167 795 80 777 c 1,30,31
 103 820 103 820 127 907 c 0,32,33
 141 958 141 958 147 1029 c 1,34,-1
 173 1021 l 1,35,36
 227 1007 227 1007 298 998 c 1,37,38
 307 1024 307 1024 318 1050 c 0,39,40
 370 1172 370 1172 444 1257 c 0,41,42
 511 1334 511 1334 567 1372 c 1,43,-1
 789 1515 l 1,44,45
 854 1497 854 1497 970 1434 c 0,46,47
 1060 1385 1060 1385 1160 1289 c 1,48,49
 1191 1257 1191 1257 1217 1223 c 1,50,-1
 1018 1125 l 1,51,52
 950 1210 950 1210 889 1252 c 0,53,54
 764 1337 764 1337 579 1370 c 1,55,-1
 578 1369 l 1,56,57
 493 1320 493 1320 447 1104 c 0,58,59
 434 1043 434 1043 427 986 c 1,60,61
 518 981 518 981 630 981 c 0,62,63
 832 981 832 981 1051 1029 c 1,64,-1
 1048 1022 l 2,65,66
 996 899 996 899 986 777 c 1,67,-1
 961 783 l 1,68,69
 755 818 755 818 533 818 c 2,70,-1
 498 818 l 2,71,72
 457 818 457 818 417 817 c 1,73,74
 419 782 419 782 423 749 c 0,75,76
 428 708 428 708 441 660 c 1,77,78
 528 655 528 655 631 655 c 0,79,80
 833 655 833 655 1052 703 c 1,81,-1
 1049 696 l 2,82,83
 997 573 997 573 987 451 c 1,84,-1
 962 457 l 1,85,86
 756 492 756 492 534 492 c 2,87,-1
 509 492 l 1,88,-1
 517 478 l 1,89,90
 588 352 588 352 737 260 c 0,91,92
 880 172 880 172 1047 142 c 1,93,-1
 1049 143 l 1,94,95
 1141 224 1141 224 1141 400 c 0,96,97
 1141 483 1141 483 1121 552 c 1,98,-1
 1323 483 l 1,0,1
EndSplineSet
Validated: 1
EndChar

StartChar: afii61248
Encoding: 8453 8453 153
Width: 1713
GlyphClass: 2
Flags: W
HStem: 0 21G<1282 1327.64> 1492 20G<379.198 422>
VStem: 73 130<1052.08 1286.68> 900 135<299.397 527.34> 1507 132<215.693 468.254>
DStem2: 612 889 446 758 0.980231 -0.197859<-332.044 -131.7 654.454 861.026>
LayerCount: 2
Fore
SplineSet
331 797 m 0,0,1
 268 822 268 822 210 868 c 0,2,3
 138 924 138 924 108 991 c 1,4,5
 78 1048 78 1048 74 1130 c 0,6,7
 74 1131 74 1131 73 1132 c 0,8,9
 73 1133 73 1133 73 1134 c 0,10,11
 73 1204 73 1204 114 1281 c 0,12,13
 147 1342 147 1342 195 1384 c 0,14,15
 217 1403 217 1403 245 1421 c 1,16,-1
 417 1512 l 1,17,-1
 422 1511 l 2,18,19
 461 1503 461 1503 537 1471 c 0,20,21
 599 1445 599 1445 658 1400 c 0,22,23
 680 1383 680 1383 711 1348 c 2,24,-1
 724 1334 l 1,25,-1
 569 1249 l 1,26,-1
 561 1260 l 2,27,28
 523 1309 523 1309 478 1334 c 0,29,30
 425 1363 425 1363 264 1386 c 1,31,32
 242 1349 242 1349 221 1282 c 0,33,34
 203 1224 203 1224 203 1179 c 0,35,36
 203 1160 203 1160 207 1140 c 0,37,38
 218 1086 218 1086 262 1032 c 128,-1,39
 306 978 306 978 392 945 c 0,40,41
 467 916 467 916 612 889 c 1,42,43
 619 902 619 902 618 921 c 0,44,45
 617 951 617 951 607 990 c 2,46,-1
 601 1016 l 1,47,-1
 756 967 l 1,48,-1
 747 951 l 2,49,50
 724 909 724 909 673 875 c 2,51,-1
 642 855 l 1,52,-1
 642 854 l 1,53,-1
 451 757 l 1,54,-1
 446 758 l 2,55,56
 409 766 409 766 331 797 c 0,0,1
1287 0 m 1,57,-1
 1282 1 l 2,58,59
 1254 6 1254 6 1170 38 c 0,60,61
 1099 65 1099 65 1040 110 c 0,62,63
 966 166 966 166 936 232 c 1,64,65
 900 306 900 306 900 371 c 0,66,67
 900 372 900 372 900 372 c 0,68,69
 900 373 900 373 900 373.5 c 128,-1,70
 900 374 900 374 900 375 c 0,71,72
 900 449 900 449 941 522 c 0,73,74
 973 580 973 580 1025 625 c 0,75,76
 1049 646 1049 646 1076 661 c 1,77,-1
 1252 752 l 1,78,-1
 1257 751 l 2,79,80
 1304 742 1304 742 1375 712 c 0,81,82
 1434 687 1434 687 1499 641 c 1,83,84
 1574 584 1574 584 1605 513 c 1,85,86
 1639 440 1639 440 1639 376 c 2,87,-1
 1639 373 l 2,88,89
 1639 281 1639 281 1601 225 c 0,90,91
 1545 143 1545 143 1505 116 c 0,92,93
 1487 104 1487 104 1480 96 c 2,94,-1
 1478 94 l 1,95,-1
 1287 0 l 1,57,-1
1452 131 m 1,96,97
 1471 169 1471 169 1492 245 c 0,98,99
 1507 298 1507 298 1507 341 c 2,100,-1
 1507 343 l 2,101,102
 1507 365 1507 365 1504 381 c 0,103,104
 1495 430 1495 430 1447 488 c 0,105,106
 1410 534 1410 534 1316 574 c 0,107,108
 1242 606 1242 606 1095 627 c 1,109,110
 1074 593 1074 593 1051 523 c 16,111,112
 1035 474 1035 474 1035 422 c 0,113,114
 1035 359 1035 359 1079 299 c 0,115,116
 1135 222 1135 222 1226 187 c 0,117,118
 1293 161 1293 161 1452 131 c 1,96,97
260 -127 m 1,119,120
 575 390 575 390 784 816 c 0,121,122
 1001 1258 1001 1258 1126 1664 c 1,123,124
 1171 1630 1171 1630 1256 1600 c 0,125,126
 1309 1581 1309 1581 1378 1572 c 1,127,128
 1156 1200 1156 1200 940 741 c 1,129,130
 679 213 679 213 512 -216 c 1,131,-1
 505 -212 l 2,132,133
 381 -141 381 -141 260 -127 c 1,119,120
EndSplineSet
Validated: 1
EndChar

StartChar: afii61289
Encoding: 8467 8467 154
Width: 781
GlyphClass: 2
Flags: W
HStem: 0 142<377.201 528.143> 1395 120<386.9 489.991>
VStem: 177 189<164.188 469 684 751.759 923 1367.65> 511 140<1108.14 1376.82>
LayerCount: 2
Fore
SplineSet
0 449 m 1,0,-1
 177 684 l 1,1,-1
 177 1139 l 2,2,3
 177 1365 177 1365 248.5 1440 c 128,-1,4
 320 1515 320 1515 431 1515 c 0,5,6
 527 1515 527 1515 589 1450 c 128,-1,7
 651 1385 651 1385 651 1276 c 0,8,9
 651 1184 651 1184 591 1051.5 c 128,-1,10
 531 919 531 919 366 689 c 1,11,-1
 366 274 l 2,12,13
 366 185 366 185 380.5 163.5 c 128,-1,14
 395 142 395 142 422 142 c 0,15,16
 448 142 448 142 482 158.5 c 128,-1,17
 516 175 516 175 621 249 c 1,18,-1
 621 87 l 1,19,20
 510 0 510 0 396 0 c 0,21,22
 304 0 304 0 240.5 58.5 c 128,-1,23
 177 117 177 117 177 244 c 2,24,-1
 177 469 l 1,25,-1
 98 371 l 1,26,-1
 0 449 l 1,0,-1
366 923 m 1,27,28
 464 1092 464 1092 487.5 1156 c 128,-1,29
 511 1220 511 1220 511 1275 c 0,30,31
 511 1336 511 1336 485 1370 c 0,32,33
 465 1395 465 1395 435 1395 c 0,34,35
 404 1395 404 1395 389 1369 c 0,36,37
 366 1327 366 1327 366 1150 c 2,38,-1
 366 923 l 1,27,28
EndSplineSet
Validated: 1
EndChar

StartChar: trademark
Encoding: 8482 8482 155
Width: 1942
GlyphClass: 2
Flags: W
HStem: 1395 126<213 401 544 737 934.256 1158.78 1382.29 1614.25>
VStem: 400 143<798 1395> 749 143<798 1357.78> 1198 143<798 1355.9> 1649 143<798 1360.38>
LayerCount: 2
Fore
SplineSet
1036 1395 m 0,0,1
 978 1395 978 1395 937 1359 c 0,2,3
 893 1320 893 1320 893 1260 c 2,4,-1
 892 798 l 1,5,-1
 749 741 l 1,6,-1
 749 1263 l 2,7,8
 749 1369 749 1369 837 1445 c 128,-1,9
 925 1521 925 1521 1047 1521 c 0,10,11
 1181 1521 1181 1521 1256 1446 c 0,12,13
 1264 1438 1264 1438 1270 1432 c 1,14,15
 1279 1441 1279 1441 1286 1447 c 0,16,17
 1373 1522 1373 1522 1495 1522 c 0,18,19
 1616 1522 1616 1522 1704 1447 c 0,20,21
 1793 1371 1793 1371 1793 1264 c 2,22,-1
 1792 798 l 1,23,-1
 1649 741 l 1,24,-1
 1651 1278 l 2,25,26
 1651 1321 1651 1321 1604 1361 c 0,27,28
 1560 1398 1560 1398 1494 1398 c 2,29,-1
 1492 1398 l 2,30,31
 1422 1398 1422 1398 1381 1360 c 0,32,33
 1349 1330 1349 1330 1342 1266 c 1,34,-1
 1341 798 l 1,35,-1
 1198 741 l 1,36,-1
 1198 1264 l 1,37,38
 1197 1322 1197 1322 1156 1357 c 0,39,40
 1111 1395 1111 1395 1036 1395 c 0,0,1
543 798 m 1,41,-1
 400 741 l 1,42,-1
 401 1395 l 1,43,-1
 150 1395 l 1,44,-1
 213 1515 l 1,45,-1
 804 1516 l 1,46,-1
 737 1395 l 1,47,-1
 544 1395 l 1,48,-1
 543 798 l 1,41,-1
EndSplineSet
Validated: 1
EndChar

StartChar: uni2126
Encoding: 8486 8486 156
Width: 1522
VWidth: 0
GlyphClass: 2
Flags: W
HStem: 0 21G<11.5 108 646 676 988 1024 1432 1462> 44 164<67.4062 427.937 1092.01 1456.61> 1495 20G<704.951 767>
VStem: 203 161<615.5 1002.19> 1157 160<490.405 912.019>
LayerCount: 2
Fore
SplineSet
0 0 m 1,0,1
 23 43 23 43 47 130 c 0,2,3
 61 181 61 181 67 252 c 1,4,-1
 93 244 l 1,5,6
 220 208 220 208 418 208 c 0,7,8
 423 208 423 208 429 208 c 1,9,-1
 414 223 l 1,10,11
 302 336 302 336 257 470 c 1,12,13
 203 621 203 621 203 750 c 2,14,-1
 203 755 l 2,15,16
 203 896 203 896 265 1050 c 0,17,18
 310 1163 310 1163 391 1257 c 0,19,20
 456 1333 456 1333 514 1372 c 1,21,-1
 736 1515 l 1,22,23
 798 1498 798 1498 917 1434 c 0,24,25
 1006 1386 1006 1386 1107 1289 c 1,26,27
 1220 1175 1220 1175 1265 1034 c 1,28,29
 1316 885 1316 885 1317 757 c 1,30,-1
 1317 751 l 2,31,32
 1317 594 1317 594 1261 459 c 0,33,34
 1198 308 1198 308 1094 204 c 0,35,36
 1092 202 1092 202 1092 201 c 0,37,38
 1092 197 1092 197 1114 197 c 0,39,40
 1185 197 1185 197 1522 252 c 1,41,-1
 1519 245 l 2,42,43
 1467 124 1467 124 1457 0 c 1,44,-1
 1432 6 l 1,45,46
 1264 39 1264 39 1223 39 c 2,47,-1
 1188 39 l 2,48,49
 1020 39 1020 39 956 0 c 1,50,51
 1092 247 1092 247 1132 423 c 0,52,53
 1157 534 1157 534 1157 662 c 0,54,55
 1157 713 1157 713 1151 763 c 0,56,57
 1136 890 1136 890 1057 1034 c 0,58,59
 986 1163 986 1163 843 1247 c 0,60,61
 699 1331 699 1331 526 1370 c 1,62,-1
 525 1369 l 1,63,64
 441 1320 441 1320 394 1104 c 0,65,66
 364 965 364 965 364 848 c 0,67,68
 364 796 364 796 370 749 c 0,69,70
 387 618 387 618 484.5 481 c 129,-1,71
 582 344 582 344 736 252 c 1,72,-1
 733 245 l 2,73,74
 681 124 681 124 671 0 c 1,75,-1
 646 6 l 1,76,77
 452 44 452 44 382 44 c 2,78,-1
 347 44 l 2,79,80
 216 44 216 44 0 0 c 1,0,1
EndSplineSet
Validated: 1
EndChar

StartChar: estimated
Encoding: 8494 8494 157
Width: 1258
GlyphClass: 2
Flags: W
HStem: 0 73<451.557 805.461> 565 74<331 927> 1057 73<452.165 800.247>
VStem: 100 231<322.452 565 639 808.838> 927 231<639 804.607>
LayerCount: 2
Fore
SplineSet
331 565 m 1,0,-1
 331 194 l 1,1,2
 451 73 451 73 629 73 c 0,3,4
 883 73 883 73 1024 319 c 1,5,-1
 1096 276 l 1,6,7
 976 103 976 103 864 51.5 c 128,-1,8
 752 0 752 0 629 0 c 0,9,10
 392 0 392 0 246 160 c 128,-1,11
 100 320 100 320 100 565 c 0,12,13
 100 812 100 812 247 971 c 128,-1,14
 394 1130 394 1130 629 1130 c 0,15,16
 843 1130 843 1130 995 988 c 128,-1,17
 1147 846 1147 846 1158 565 c 1,18,-1
 331 565 l 1,0,-1
927 639 m 1,19,-1
 927 936 l 1,20,21
 799 1057 799 1057 627 1057 c 0,22,23
 452 1057 452 1057 331 935 c 1,24,-1
 331 639 l 1,25,-1
 927 639 l 1,19,-1
EndSplineSet
Validated: 1
EndChar

StartChar: partialdiff
Encoding: 8706 8706 158
Width: 1147
GlyphClass: 2
Flags: W
HStem: -25 145<370.487 582.919> 782 160<556.96 811.119> 1358 133<558.35 741.538>
VStem: 100 212<178.808 498.767> 830 187<546.946 757.371 940 1247.34>
LayerCount: 2
Fore
SplineSet
836 940 m 1,0,1
 837 958 837 958 837 976 c 0,2,3
 837 1073 837 1073 810 1178 c 0,4,5
 787 1266 787 1266 742 1314 c 1,6,7
 699 1358 699 1358 644 1358 c 0,8,9
 590 1358 590 1358 540 1292 c 0,10,11
 528 1276 528 1276 470 1138 c 1,12,-1
 335 1198 l 1,13,14
 405 1355 405 1355 503 1423 c 128,-1,15
 601 1491 601 1491 695 1491 c 0,16,17
 771 1491 771 1491 832.5 1451.5 c 128,-1,18
 894 1412 894 1412 925 1361 c 0,19,20
 972 1282 972 1282 994.5 1174 c 128,-1,21
 1017 1066 1017 1066 1017 926 c 0,22,23
 1017 638 1017 638 930.5 413.5 c 128,-1,24
 844 189 844 189 697 82 c 128,-1,25
 550 -25 550 -25 408 -25 c 0,26,27
 271 -25 271 -25 185.5 66 c 128,-1,28
 100 157 100 157 100 322 c 0,29,30
 100 531 100 531 253 709 c 0,31,32
 453 942 453 942 731 942 c 2,33,-1
 738 942 l 2,34,35
 795 942 795 942 836 940 c 1,0,1
812 758 m 1,36,37
 784 782 784 782 730 782 c 0,38,39
 714 782 714 782 696 780 c 0,40,41
 612 771 612 771 544 730 c 0,42,43
 460 678 460 678 386 556 c 128,-1,44
 312 434 312 434 312 308 c 0,45,46
 312 227 312 227 363 171 c 0,47,48
 409 120 409 120 464 120 c 2,49,-1
 468 120 l 2,50,51
 545 120 545 120 586 164 c 0,52,53
 649 232 649 232 716 368 c 0,54,55
 818 575 818 575 830 690 c 1,56,-1
 830 702 l 1,57,58
 829 738 829 738 812 758 c 1,36,37
EndSplineSet
Validated: 1
EndChar

StartChar: uni2206
Encoding: 8710 8710 159
Width: 1306
GlyphClass: 2
Flags: W
HStem: 0 21G<3 129> 49 162<241.652 947.09> 1491 20G<754 777.5>
VStem: 509 252<1260.22 1428.5>
DStem2: 4 8 616 1214 0.400142 0.916453<383.516 1185.22>
LayerCount: 2
Fore
SplineSet
1306 2 m 1,0,1
 1290 9 1290 9 1280 10 c 0,2,3
 891 49 891 49 541 49 c 0,4,5
 482 49 482 49 421 48 c 0,6,7
 258 45 258 45 0 0 c 1,8,-1
 3 7 l 1,9,-1
 4 8 l 1,10,11
 128 249 128 249 310 710 c 0,12,13
 467 1108 467 1108 505 1382 c 0,14,15
 509 1411 509 1411 509 1419 c 2,16,-1
 509 1422 l 1,17,18
 630 1436 630 1436 754 1507 c 2,19,-1
 761 1511 l 1,20,21
 794 1204 794 1204 964 751 c 1,22,23
 1147 293 1147 293 1306 2 c 1,0,1
957 232 m 1,24,-1
 805 721 l 1,25,26
 666 1155 666 1155 616 1214 c 1,27,28
 562 1135 562 1135 402 704 c 0,29,30
 284 385 284 385 237 233 c 1,31,32
 386 211 386 211 518 211 c 2,33,-1
 553 211 l 2,34,35
 776 211 776 211 957 232 c 1,24,-1
EndSplineSet
Validated: 1
EndChar

StartChar: gradient
Encoding: 8711 8711 160
Width: 1306
GlyphClass: 2
Flags: W
HStem: 0 21G<528.5 552> 1300 162<358.91 1064.35> 1491 20G<1177 1303>
VStem: 545 252<82.5037 250.781>
DStem2: 690 297 1302 1503 0.400142 0.916453<164.908 966.614>
LayerCount: 2
Fore
SplineSet
0 1509 m 1,0,1
 16 1502 16 1502 26 1501 c 0,2,3
 415 1462 415 1462 765 1462 c 0,4,5
 824 1462 824 1462 885 1463 c 0,6,7
 1048 1466 1048 1466 1306 1511 c 1,8,-1
 1303 1504 l 1,9,-1
 1302 1503 l 1,10,11
 1178 1262 1178 1262 996 801 c 0,12,13
 839 403 839 403 801 129 c 0,14,15
 797 100 797 100 797 92 c 2,16,-1
 797 89 l 1,17,18
 676 75 676 75 552 4 c 2,19,-1
 545 0 l 1,20,21
 512 307 512 307 342 760 c 1,22,23
 159 1218 159 1218 0 1509 c 1,0,1
349 1279 m 1,24,-1
 501 790 l 1,25,26
 640 356 640 356 690 297 c 1,27,28
 744 376 744 376 904 807 c 0,29,30
 1022 1126 1022 1126 1069 1278 c 1,31,32
 920 1300 920 1300 788 1300 c 2,33,-1
 753 1300 l 2,34,35
 530 1300 530 1300 349 1279 c 1,24,-1
EndSplineSet
Validated: 1
EndChar

StartChar: product
Encoding: 8719 8719 161
Width: 1320
GlyphClass: 2
Flags: W
HStem: 0 21G<180.5 180.5 939.5 939.5> 1298 163<391.97 932.647> 1490 20G<152.735 164 1056 1147.5>
VStem: 202 165<209.313 1212.18> 961 164<286.748 1279.56>
LayerCount: 2
Fore
SplineSet
159 0 m 1,0,1
 202 298 202 298 202 672 c 0,2,3
 202 726 202 726 201 780 c 0,4,5
 193 1221 193 1221 166 1393 c 1,6,-1
 150 1510 l 1,7,8
 178 1500 178 1500 185 1498 c 0,9,10
 315 1461 315 1461 697 1461 c 0,11,12
 707 1461 707 1461 717 1461 c 0,13,14
 942 1461 942 1461 1170 1511 c 1,15,16
 1125 1228 1125 1228 1125 823 c 2,17,-1
 1125 788 l 2,18,19
 1125 307 1125 307 1162 128 c 1,20,-1
 1170 92 l 1,21,22
 1103 84 1103 84 1048 64 c 0,23,24
 961 32 961 32 918 0 c 1,25,26
 961 316 961 316 961 694 c 0,27,28
 961 772 961 772 959 845 c 0,29,30
 951 1143 951 1143 937 1284 c 1,31,32
 798 1298 798 1298 620 1298 c 2,33,-1
 585 1298 l 2,34,35
 484 1298 484 1298 389 1289 c 1,36,37
 368 1051 368 1051 367 713 c 1,38,39
 371 284 371 284 403 128 c 1,40,-1
 411 92 l 1,41,42
 343 84 343 84 289 64 c 0,43,44
 202 32 202 32 159 0 c 1,0,1
EndSplineSet
Validated: 1
EndChar

StartChar: uni2210
Encoding: 8720 8720 162
Width: 1320
GlyphClass: 2
Flags: W
HStem: 0 21G<172.5 264 1156 1167.27> 50 163<387.353 928.03> 1491 20G<380.5 380.5 1139.5 1139.5>
VStem: 195 164<231.445 1224.25> 953 165<298.816 1301.69>
LayerCount: 2
Fore
SplineSet
150 0 m 1,0,1
 195 283 195 283 195 688 c 2,2,-1
 195 723 l 2,3,4
 195 1204 195 1204 158 1383 c 1,5,-1
 150 1419 l 1,6,7
 217 1427 217 1427 272 1447 c 0,8,9
 359 1479 359 1479 402 1511 c 1,10,11
 359 1195 359 1195 359 817 c 0,12,13
 359 739 359 739 361 666 c 0,14,15
 369 368 369 368 383 227 c 1,16,17
 522 213 522 213 700 213 c 2,18,-1
 735 213 l 2,19,20
 836 213 836 213 931 222 c 1,21,22
 952 460 952 460 953 798 c 1,23,24
 949 1227 949 1227 917 1383 c 1,25,-1
 909 1419 l 1,26,27
 977 1427 977 1427 1031 1447 c 0,28,29
 1118 1479 1118 1479 1161 1511 c 1,30,31
 1118 1213 1118 1213 1118 839 c 0,32,33
 1118 785 1118 785 1119 731 c 0,34,35
 1127 290 1127 290 1154 118 c 1,36,-1
 1170 1 l 1,37,38
 1142 11 1142 11 1135 13 c 0,39,40
 1005 50 1005 50 623 50 c 0,41,42
 613 50 613 50 603 50 c 0,43,44
 378 50 378 50 150 0 c 1,0,1
EndSplineSet
Validated: 1
EndChar

StartChar: summation
Encoding: 8721 8721 163
Width: 1167
GlyphClass: 2
Flags: W
HStem: 0 21G<189 199.5 954 983.5> 46 90<439.625 852.225> 1258 252<771.231 919.522> 1258 202<652.375 915.75>
LayerCount: 2
Fore
SplineSet
516 756 m 1,0,1
 350 1156 350 1156 150 1404 c 0,2,-1
 140 1414 l 2,3,-1
 136 1422 l 1,4,5
 257 1436 257 1436 381 1507 c 2,6,-1
 388 1511 l 1,7,8
 393 1510 393 1510 419 1500 c 0,9,10
 523 1460 523 1460 643 1460 c 0,11,-1
 648 1460 l 0,12,13
 843 1460 843 1460 994 1510 c 1,14,-1
 991 1503 l 1,15,16
 923 1380 923 1380 915 1258 c 1,17,-1
 908 1258 l 1,18,19
 666 1269 666 1269 544 1360 c 1,20,21
 426 1451 426 1451 385 1491 c 1,22,23
 440 1178 440 1178 728 760 c 1,24,25
 723 749 723 749 716 738 c 0,26,27
 501 400 501 400 438 144 c 1,28,29
 466 136 466 136 485 136 c 0,30,31
 818 136 818 136 1047 252 c 1,32,33
 1024 209 1024 209 1000 122 c 0,34,35
 987 73 987 73 980 0 c 1,36,-1
 954 8 l 2,37,38
 830 46 830 46 574 46 c 0,39,40
 298 46 298 46 80 0 c 1,41,42
 319 334 319 334 516 756 c 1,0,1
EndSplineSet
Validated: 1
EndChar

StartChar: minus
Encoding: 8722 8722 164
Width: 1131
GlyphClass: 2
Flags: W
HStem: 611 163<162.316 985.609>
LayerCount: 2
Fore
SplineSet
80 570 m 9,0,1
 103 613 103 613 127 700 c 0,2,3
 141 751 141 751 147 822 c 25,4,-1
 173 814 l 24,5,6
 329 774 329 774 630 774 c 0,7,8
 832 774 832 774 1051 822 c 1,9,-1
 1048 815 l 0,10,11
 996 692 996 692 986 570 c 17,12,-1
 961 576 l 16,13,14
 755 611 755 611 533 611 c 0,15,16
 517 611 517 611 498 611 c 0,17,18
 281 611 281 611 80 570 c 9,0,1
EndSplineSet
Validated: 1
EndChar

StartChar: uni2215
Encoding: 8725 8725 165
Width: 1118
GlyphClass: 2
Flags: W
LayerCount: 2
Fore
SplineSet
0 -127 m 1,0,1
 310 382 310 382 524 816 c 0,2,3
 742 1259 742 1259 866 1664 c 1,4,5
 909 1632 909 1632 996 1600 c 0,6,7
 1053 1580 1053 1580 1118 1572 c 1,8,9
 896 1200 896 1200 680 741 c 1,10,11
 419 213 419 213 252 -216 c 1,12,-1
 245 -212 l 2,13,14
 121 -141 121 -141 0 -127 c 1,0,1
EndSplineSet
Validated: 1
EndChar

StartChar: asteriskmath
Encoding: 8727 8727 166
Width: 1267
GlyphClass: 2
Flags: W
LayerCount: 2
Fore
SplineSet
150 868 m 1,0,1
 189 893 189 893 255 957 c 0,2,3
 293 994 293 994 334 1053 c 1,4,-1
 353 1033 l 1,5,6
 426 961 426 961 550 879 c 1,7,8
 541 1027 541 1027 515 1127 c 1,9,-1
 507 1153 l 1,10,11
 577 1159 577 1159 629 1173 c 0,12,13
 712 1195 712 1195 759 1220 c 1,14,15
 727 1060 727 1060 721 881 c 1,16,17
 842 962 842 962 914 1033 c 1,18,-1
 933 1053 l 1,19,20
 975 993 975 993 1011 957 c 0,21,22
 1070 897 1070 897 1117 868 c 1,23,24
 961 816 961 816 802 731 c 1,25,26
 956 652 956 652 1117 601 c 1,27,-1
 1111 596 l 2,28,29
 1003 514 1003 514 935 415 c 1,30,-1
 916 433 l 1,31,32
 870 479 870 479 727 573 c 1,33,34
 736 402 736 402 753 339 c 1,35,-1
 759 314 l 1,36,37
 640 304 640 304 514 252 c 2,38,-1
 507 249 l 1,39,40
 543 411 543 411 552 581 c 1,41,42
 399 481 399 481 351 433 c 1,43,-1
 332 415 l 1,44,45
 264 514 264 514 156 596 c 2,46,-1
 150 601 l 1,47,48
 311 652 311 652 465 731 c 1,49,50
 306 816 306 816 150 868 c 1,0,1
EndSplineSet
Validated: 1
EndChar

StartChar: uni2218
Encoding: 8728 8728 167
Width: 876
GlyphClass: 2
Flags: W
HStem: 378 663
VStem: 150 126<631.096 870.102> 608 118<553.042 792.694>
LayerCount: 2
Fore
SplineSet
328 902 m 1,0,-1
 322 891 l 1,1,2
 305 861 305 861 288 809 c 0,3,4
 280 784 280 784 276 738 c 0,5,6
 275 724 275 724 278 710 c 0,7,8
 287 670 287 670 318 634 c 1,9,10
 343 603 343 603 410 573 c 0,11,12
 486 539 486 539 550 519 c 1,13,-1
 560 533 l 1,14,15
 587 569 587 569 600 618 c 0,16,17
 608 649 608 649 608 676 c 0,18,19
 608 686 608 686 608 686 c 0,20,21
 606 710 606 710 606 714 c 0,22,23
 601 754 601 754 566 790 c 1,24,25
 543 823 543 823 472 850 c 0,26,27
 353 896 353 896 328 902 c 1,0,-1
426 1041 m 1,28,29
 455 1036 455 1036 518 1006 c 0,30,31
 567 983 567 983 618 942 c 1,32,33
 676 892 676 892 698 831 c 1,34,35
 726 765 726 765 726 709 c 0,36,-1
 726 707 l 0,37,38
 726 636 726 636 696 579 c 0,39,40
 665 519 665 519 630 491 c 0,41,42
 593 461 593 461 568 446 c 2,43,-1
 450 378 l 1,44,45
 412 386 412 386 358 412 c 0,46,47
 311 434 311 434 260 476 c 0,48,49
 202 523 202 523 178 579 c 1,50,51
 150 643 150 643 150 706 c 0,52,53
 150 763 150 763 178 837 c 0,54,55
 194 881 194 881 244 926 c 0,56,57
 268 948 268 948 310 974 c 1,58,-1
 426 1041 l 1,28,29
EndSplineSet
Validated: 1
EndChar

StartChar: uni2219
Encoding: 8729 8729 168
Width: 574
GlyphClass: 2
Flags: W
HStem: 498 390
VStem: 169 239<596.494 798.672>
LayerCount: 2
Fore
SplineSet
408 729 m 0,0,1
 408 674 408 674 418 594 c 9,2,3
 346 586 346 586 280 562 c 0,4,5
 193 530 193 530 150 498 c 17,6,7
 169 582 169 582 169 670 c 0,8,9
 169 724 169 724 162 778 c 0,10,-1
 156 799 l 9,11,12
 287 813 287 813 417 888 c 0,13,-1
 424 892 l 9,14,15
 408 834 408 834 408 729 c 0,0,1
EndSplineSet
Validated: 1
EndChar

StartChar: radical
Encoding: 8730 8730 169
Width: 1251
GlyphClass: 2
Flags: W
HStem: 0 21G<372.5 397> 1491 20G<1088.5 1147>
VStem: 390 252<82.5037 224.369>
LayerCount: 2
Fore
SplineSet
642 89 m 1,0,1
 521 75 521 75 397 4 c 2,2,-1
 390 0 l 1,3,4
 355 240 355 240 292 393 c 1,5,6
 193 630 193 630 100 759 c 1,7,8
 161 766 161 766 222 787 c 0,9,10
 313 818 313 818 352 849 c 1,11,12
 361 726 361 726 463 459 c 0,13,14
 508 341 508 341 535 297 c 1,15,16
 590 376 590 376 749 807 c 0,17,18
 947 1341 947 1341 947 1412 c 2,19,-1
 947 1425 l 1,20,21
 1094 1454 1094 1454 1147 1507 c 2,22,-1
 1151 1511 l 1,23,24
 1026 1270 1026 1270 841 801 c 0,25,26
 684 403 684 403 646 129 c 0,27,28
 642 100 642 100 642 92 c 2,29,-1
 642 89 l 1,0,1
EndSplineSet
Validated: 1
EndChar

StartChar: uni221B
Encoding: 8731 8731 170
Width: 1251
GlyphClass: 2
Flags: W
HStem: 0 21G<372.5 397> 1491 20G<1088.5 1147>
VStem: 286 93<1297.19 1403.37> 390 252<82.5037 224.369> 634 102<1267.89 1349.98> 694 92<948.12 1065.03>
LayerCount: 2
Fore
SplineSet
212 991 m 1,0,-1
 340 1045 l 1,1,-1
 346 1036 l 2,2,3
 362 1014 362 1014 451 971 c 0,4,5
 528 934 528 934 648 915 c 1,6,7
 694 944 694 944 694 1000 c 0,8,9
 694 1001 694 1001 694 1002 c 0,10,11
 694 1054 694 1054 611 1082 c 1,12,-1
 396 1160 l 1,13,-1
 551 1226 l 1,14,15
 615 1259 615 1259 631 1287 c 0,16,17
 634 1293 634 1293 634 1300 c 0,18,19
 633 1318 633 1318 616 1332 c 0,20,21
 595 1349 595 1349 551 1371 c 0,22,23
 475 1409 475 1409 403 1420 c 1,24,25
 379 1396 379 1396 379 1372 c 0,26,27
 379 1368 379 1368 381 1360 c 0,28,29
 386 1340 386 1340 418 1321 c 2,30,-1
 445 1305 l 1,31,-1
 303 1269 l 1,32,-1
 298 1278 l 2,33,34
 286 1303 286 1303 286 1324 c 0,35,36
 286 1332 286 1332 288 1339 c 0,37,38
 296 1369 296 1369 321 1394 c 0,39,40
 355 1428 355 1428 387 1446 c 1,41,-1
 504 1509 l 1,42,-1
 508 1508 l 2,43,44
 545 1502 545 1502 604 1474 c 0,45,46
 655 1450 655 1450 699 1408 c 2,47,-1
 700 1408 l 1,48,-1
 701 1407 l 2,49,50
 736 1360 736 1360 736 1313 c 0,51,52
 736 1259 736 1259 672 1220 c 0,53,54
 654 1209 654 1209 628 1202 c 1,55,56
 717 1167 717 1167 743 1145 c 0,57,58
 786 1109 786 1109 786 1046 c 0,59,60
 786 1044 786 1044 786 1041 c 0,61,62
 786 1030 786 1030 785 1023 c 0,63,64
 779 980 779 980 733 940 c 0,65,66
 685 898 685 898 662 888 c 1,67,-1
 523 823 l 1,68,-1
 520 823 l 2,69,70
 464 829 464 829 358 878 c 0,71,72
 321 895 321 895 256 947 c 0,73,74
 241 959 241 959 225 977 c 2,75,-1
 212 991 l 1,0,-1
642 89 m 1,76,77
 521 75 521 75 397 4 c 2,78,-1
 390 0 l 1,79,80
 355 240 355 240 292 393 c 1,81,82
 193 630 193 630 100 759 c 1,83,84
 161 766 161 766 222 787 c 0,85,86
 313 818 313 818 352 849 c 1,87,88
 361 726 361 726 463 459 c 0,89,90
 508 341 508 341 535 297 c 1,91,92
 590 376 590 376 749 807 c 0,93,94
 947 1341 947 1341 947 1412 c 2,95,-1
 947 1425 l 1,96,97
 1094 1454 1094 1454 1147 1507 c 2,98,-1
 1151 1511 l 1,99,100
 1026 1270 1026 1270 841 801 c 0,101,102
 684 403 684 403 646 129 c 0,103,104
 642 100 642 100 642 92 c 2,105,-1
 642 89 l 1,76,77
EndSplineSet
Validated: 1
EndChar

StartChar: infinity
Encoding: 8734 8734 171
Width: 1631
GlyphClass: 2
Flags: W
VStem: 150 163<670 926.161> 742 158<673.734 836.25> 1329 152<583.264 841.55>
LayerCount: 2
Fore
SplineSet
538 345 m 1,0,1
 493 354 493 354 419 387 c 0,2,3
 358 414 358 414 292 465 c 0,4,5
 216 523 216 523 186 591 c 0,6,7
 150 671 150 671 150 747 c 0,8,9
 150 817 150 817 186 907 c 0,10,11
 208 963 208 963 271 1016 c 0,12,13
 304 1044 304 1044 357 1075 c 1,14,-1
 507 1157 l 1,15,16
 543 1151 543 1151 626 1114 c 0,17,18
 689 1086 689 1086 755 1036 c 1,19,20
 790 1007 790 1007 815 976 c 1,21,22
 834 998 834 998 858 1019 c 0,23,24
 889 1046 889 1046 944 1078 c 1,25,-1
 1094 1160 l 1,26,27
 1130 1154 1130 1154 1213 1117 c 0,28,29
 1276 1089 1276 1089 1342 1039 c 1,30,31
 1417 978 1417 978 1445 903 c 1,32,33
 1481 822 1481 822 1481 753 c 2,34,-1
 1481 751 l 2,35,36
 1481 662 1481 662 1443 594 c 0,37,38
 1403 522 1403 522 1357 486 c 0,39,40
 1312 451 1312 451 1277 431 c 2,41,-1
 1125 348 l 1,42,43
 1080 357 1080 357 1006 390 c 0,44,45
 943 418 943 418 879 468 c 0,46,47
 842 497 842 497 815 529 c 1,48,49
 793 501 793 501 770 483 c 0,50,51
 725 448 725 448 690 428 c 2,52,-1
 538 345 l 1,0,1
667 518 m 1,53,-1
 680 535 l 1,54,55
 715 578 715 578 732 639 c 0,56,57
 740 668 740 668 741 696 c 1,58,59
 742 706 742 706 742 715 c 0,60,61
 740 780 740 780 688 850 c 0,62,63
 657 894 657 894 558 930 c 0,64,65
 424 979 424 979 380 987 c 1,66,-1
 372 973 l 2,67,68
 346 927 346 927 328 873 c 0,69,70
 321 852 321 852 313 786 c 0,71,72
 311 769 311 769 315 752 c 0,73,74
 327 702 327 702 367 659 c 1,75,76
 399 621 399 621 486 584 c 0,77,78
 582 543 582 543 667 518 c 1,53,-1
1254 521 m 1,79,-1
 1267 538 l 1,80,81
 1303 583 1303 583 1319 642 c 0,82,83
 1329 679 1329 679 1329 713 c 2,84,-1
 1329 725 l 0,85,86
 1329 801 1329 801 1275 853 c 1,87,88
 1246 893 1246 893 1140 930 c 0,89,90
 1058 958 1058 958 967 990 c 1,91,-1
 959 976 l 2,92,93
 933 931 933 931 915 876 c 0,94,95
 903 840 903 840 900 789 c 0,96,97
 899 769 899 769 902 755 c 0,98,99
 912 709 912 709 954 662 c 1,100,101
 986 624 986 624 1073 587 c 0,102,103
 1172 545 1172 545 1254 521 c 1,79,-1
EndSplineSet
Validated: 1
EndChar

StartChar: approxequal
Encoding: 8776 8776 172
Width: 1122
GlyphClass: 2
Flags: W
HStem: 490 6<461 671> 882 6<467 677>
LayerCount: 2
Fore
SplineSet
90 332 m 1,0,-1
 92 339 l 1,1,2
 187 462 187 462 187 581 c 0,3,4
 187 591 187 591 186 600 c 1,5,-1
 193 601 l 1,6,7
 262 658 262 658 333 658 c 0,8,9
 429 657 429 657 528 555 c 0,10,11
 585 496 585 496 671 496 c 0,12,13
 811 497 811 497 1026 654 c 1,14,-1
 1024 647 l 1,15,16
 941 526 941 526 941 412 c 0,17,18
 941 401 941 401 942 390 c 1,19,-1
 935 389 l 1,20,21
 865 327 865 327 789 327 c 0,22,23
 697 327 697 327 600 434 c 0,24,25
 549 490 549 490 461 490 c 0,26,27
 322 490 322 490 90 332 c 1,0,-1
96 724 m 1,28,-1
 98 731 l 1,29,30
 193 854 193 854 193 973 c 0,31,32
 193 983 193 983 192 992 c 1,33,-1
 199 993 l 1,34,35
 268 1050 268 1050 339 1050 c 0,36,37
 435 1049 435 1049 534 947 c 0,38,39
 591 888 591 888 677 888 c 0,40,41
 817 889 817 889 1032 1046 c 1,42,-1
 1030 1039 l 1,43,44
 947 918 947 918 947 804 c 0,45,46
 947 793 947 793 948 782 c 1,47,-1
 941 781 l 1,48,49
 871 719 871 719 795 719 c 0,50,51
 703 719 703 719 606 826 c 0,52,53
 555 882 555 882 467 882 c 0,54,55
 328 882 328 882 96 724 c 1,28,-1
EndSplineSet
Validated: 1
EndChar

